<svg width="11" height="20" viewBox="0 0 11 20" fill="none" xmlns="http://www.w3.org/2000/svg">
<path d="M2.88394 4.21149C2.88394 4.68182 2.88394 6.78111 2.88394 6.78111H0.763184V9.92326H2.88394V19.2606H7.24044V9.92352H10.1638C10.1638 9.92352 10.4376 8.41689 10.5704 6.76953C10.1899 6.76953 7.25691 6.76953 7.25691 6.76953C7.25691 6.76953 7.25691 4.94153 7.25691 4.62111C7.25691 4.30001 7.7319 3.86808 8.20137 3.86808C8.66996 3.86808 9.65894 3.86808 10.575 3.86808C10.575 3.44027 10.575 1.9621 10.575 0.596924C9.35211 0.596924 7.96092 0.596924 7.34769 0.596924C2.77626 0.596707 2.88394 3.74198 2.88394 4.21149Z" fill="#8D8D8D"/>
</svg>
