<svg width="15" height="15" viewBox="0 0 15 15" fill="none" xmlns="http://www.w3.org/2000/svg">
<path d="M9.08619 5.88795C8.90982 5.7212 8.71427 5.57338 8.50316 5.44721C7.944 5.11067 7.29395 4.93184 6.62998 4.93184C5.70841 4.93023 4.82428 5.27439 4.17377 5.88795L1.01792 8.85649C0.368512 9.46805 0.0035119 10.2966 0.00293041 11.1607C0.00170928 12.9637 1.5558 14.4263 3.47413 14.4275C4.39427 14.4305 5.27758 14.088 5.92786 13.476L8.53293 11.0275C8.58027 10.9834 8.60669 10.9232 8.60631 10.8606C8.60553 10.7318 8.4938 10.628 8.35677 10.6287H8.25754C7.71326 10.6306 7.17385 10.5323 6.6697 10.3396C6.5768 10.3037 6.47004 10.3239 6.39928 10.3909L4.5261 12.1538C3.94443 12.7005 3.00138 12.7005 2.41971 12.1538C1.83805 11.6071 1.83805 10.7207 2.41971 10.174L5.58798 7.19848C6.16918 6.65289 7.1107 6.65289 7.6919 7.19848C8.08359 7.54497 8.69456 7.54497 9.08622 7.19848C9.25473 7.03996 9.3569 6.8297 9.37403 6.60616C9.39214 6.33904 9.28733 6.07743 9.08619 5.88795Z" fill="#8D8D8D"/>
<path d="M13.8723 1.39009C12.5158 0.115088 10.3164 0.115088 8.95992 1.39009L6.35733 3.83392C6.28587 3.90142 6.26525 4.00294 6.30523 4.09044C6.34474 4.17818 6.43708 4.23451 6.53843 4.23268H6.63022C7.17385 4.23175 7.7124 4.33075 8.21559 4.52417C8.30848 4.56011 8.41524 4.53983 8.48601 4.47288L10.3542 2.71927C10.9359 2.17257 11.8789 2.17257 12.4606 2.71927C13.0423 3.26598 13.0423 4.15236 12.4606 4.69907L10.1334 6.88406L10.1135 6.90504L9.29977 7.66525C8.71858 8.21084 7.77706 8.21084 7.19586 7.66525C6.80417 7.31877 6.19321 7.31877 5.80154 7.66525C5.63195 7.82498 5.5297 8.03707 5.51374 8.26221C5.49559 8.52934 5.60041 8.79094 5.80154 8.98045C6.08871 9.25151 6.4247 9.47256 6.79394 9.63338C6.84604 9.65669 6.89814 9.67535 6.95024 9.69634C7.00235 9.71733 7.05692 9.73364 7.10902 9.7523C7.16112 9.77097 7.21569 9.78728 7.26779 9.80127L7.41418 9.83858C7.51341 9.86189 7.61267 9.88055 7.71438 9.89686C7.8369 9.91397 7.96029 9.92487 8.08406 9.92952H8.2726L8.42146 9.91321C8.47604 9.91088 8.53311 9.89921 8.59763 9.89921H8.68197L8.85316 9.8759L8.93256 9.86191L9.07645 9.83393H9.10375C9.71318 9.69005 10.2697 9.39347 10.7139 8.97578L13.8722 6.00727C15.2289 4.73227 15.2289 2.66509 13.8723 1.39009Z" fill="#8D8D8D"/>
</svg>
