<svg width="22" height="17" viewBox="0 0 22 17" fill="none" xmlns="http://www.w3.org/2000/svg">
<path d="M0.888737 8.34435L5.80708 9.97388L7.71078 15.4086C7.83259 15.7567 8.31207 15.8854 8.63033 15.6544L11.3719 13.6704C11.6593 13.4625 12.0686 13.4522 12.3689 13.6457L17.3137 16.8326C17.6542 17.0522 18.1365 16.8866 18.2219 16.5214L21.8442 1.0541C21.9374 0.655178 21.4959 0.322387 21.068 0.469298L0.882973 7.3816C0.384849 7.55213 0.38919 8.17818 0.888737 8.34435ZM7.40398 9.10644L17.0163 3.85108C17.189 3.75691 17.3667 3.96426 17.2184 4.08641L9.28548 10.6323C9.00664 10.8627 8.82677 11.1711 8.77583 11.5058L8.5056 13.2835C8.46981 13.5208 8.09421 13.5444 8.02043 13.3147L6.98113 10.073C6.8621 9.70324 7.03556 9.3083 7.40398 9.10644Z" fill="#8D8D8D"/>
</svg>
