<svg width="31" height="16" viewBox="0 0 31 16" fill="none" xmlns="http://www.w3.org/2000/svg">
<path d="M29.9028 13.6584C29.8242 13.5415 29.3375 12.6027 26.9954 10.6731C24.5436 8.65259 24.873 8.98068 27.8261 5.48698C29.6247 3.35926 30.3438 2.05988 30.1187 1.5044C29.9047 0.974901 28.5818 1.11458 28.5818 1.11458L24.1832 1.13732C24.1832 1.13732 23.8575 1.09834 23.6141 1.22666C23.3781 1.35334 23.2262 1.6457 23.2262 1.6457C23.2262 1.6457 22.5291 3.29266 21.5996 4.69274C19.64 7.64719 18.8551 7.80312 18.5349 7.61958C17.7902 7.19241 17.9768 5.90116 17.9768 4.9851C17.9768 2.1216 18.4654 0.927799 17.0235 0.619197C16.5442 0.516872 16.1929 0.448654 14.9688 0.437285C13.3989 0.422667 12.0687 0.442158 11.3167 0.768626C10.8154 0.986271 10.4293 1.47191 10.6653 1.49952C10.9562 1.53363 11.6149 1.65707 11.9644 2.07937C12.4163 2.62348 12.3999 3.84814 12.3999 3.84814C12.3999 3.84814 12.6597 7.2184 11.7942 7.63745C11.1996 7.92493 10.3854 7.33859 8.638 4.65701C7.74328 3.28454 7.06629 1.7659 7.06629 1.7659C7.06629 1.7659 6.93638 1.48328 6.70401 1.33223C6.42223 1.14869 6.02702 1.09022 6.02702 1.09022L1.84431 1.11296C1.84431 1.11296 1.21672 1.1292 0.986178 1.37121C0.781251 1.58723 0.969711 2.03227 0.969711 2.03227C0.969711 2.03227 4.24488 8.83287 7.95187 12.2616C11.3533 15.4045 15.214 15.1982 15.214 15.1982H16.9632C16.9632 15.1982 17.4919 15.1462 17.7609 14.888C18.0098 14.6508 18.0006 14.2058 18.0006 14.2058C18.0006 14.2058 17.9658 12.1219 19.0563 11.8149C20.1304 11.5128 21.51 13.829 22.9719 14.7207C24.0771 15.3947 24.9169 15.2469 24.9169 15.2469L28.827 15.1982C28.827 15.1982 30.8726 15.0861 29.9028 13.6584Z" fill="#8D8D8D"/>
</svg>
