<svg width="20" height="17" viewBox="0 0 20 17" fill="none" xmlns="http://www.w3.org/2000/svg">
<path d="M10.0862 0.141724C4.89199 0.141724 0.629395 3.92563 0.629395 8.53651C0.629395 10.0583 1.09158 11.5397 1.96806 12.8357L0.629395 16.9313L5.24307 15.743C6.70309 16.521 8.37191 16.9313 10.0862 16.9313C15.2804 16.9313 19.543 13.1474 19.543 8.53651C19.543 3.92563 15.2804 0.141724 10.0862 0.141724ZM15.9987 12.0836L15.5587 12.4741C14.9362 13.0267 13.5046 12.9829 12.5847 12.8252C9.52601 12.3008 5.95995 9.23245 5.27222 6.57526C4.93167 5.25896 5.11969 4.11457 5.61147 3.6779L6.05143 3.28734C6.29429 3.07188 6.6888 3.07214 6.93137 3.28734L8.69153 4.84996C8.80899 4.95423 8.87335 5.09244 8.87335 5.24039C8.87335 5.38834 8.80899 5.52668 8.69153 5.63057L8.25171 6.02151C7.76686 6.45293 7.76686 7.15374 8.25171 7.58413L11.1583 10.1304C11.6446 10.5621 12.4316 10.5626 12.9186 10.1304L13.3586 9.73996C13.5857 9.53719 14.01 9.53655 14.239 9.73996L15.9987 11.3021C16.2377 11.5133 16.2467 11.8633 15.9987 12.0836Z" fill="#8D8D8D"/>
</svg>
