<svg width="646" height="564" viewBox="0 0 646 564" fill="none" xmlns="http://www.w3.org/2000/svg">
<path d="M609.694 347.56C609.516 349.21 609.301 350.858 609.047 352.503L608.553 352.427C608.427 353.246 608.291 354.065 608.146 354.883C608 355.701 607.846 356.516 607.682 357.329L608.173 357.427C607.844 359.06 607.479 360.681 607.078 362.291L606.593 362.17C606.193 363.774 605.758 365.367 605.287 366.949L605.766 367.092C605.292 368.684 604.782 370.265 604.236 371.835L603.764 371.67C603.221 373.232 602.643 374.781 602.031 376.32L602.495 376.505C601.882 378.043 601.235 379.57 600.553 381.085L600.097 380.88C599.419 382.389 598.706 383.886 597.96 385.371L598.406 385.595C597.665 387.07 596.891 388.533 596.084 389.985L595.647 389.742C594.844 391.186 594.009 392.619 593.142 394.04L593.569 394.3C592.709 395.709 591.818 397.106 590.897 398.491L590.48 398.214C589.567 399.586 588.623 400.947 587.649 402.297L588.055 402.589C587.087 403.93 586.09 405.259 585.064 406.576L584.67 406.269C583.66 407.565 582.622 408.85 581.557 410.124L581.94 410.445C580.874 411.719 579.781 412.981 578.66 414.231L578.288 413.898C577.196 415.116 576.078 416.323 574.934 417.519L575.296 417.865C574.149 419.065 572.976 420.254 571.777 421.431L571.426 421.075C570.258 422.223 569.065 423.361 567.848 424.488L568.188 424.855C566.976 425.977 565.74 427.089 564.481 428.19L564.152 427.813C562.909 428.901 561.642 429.978 560.353 431.044L560.672 431.429C559.407 432.476 558.121 433.512 556.813 434.538L556.504 434.145C555.2 435.168 553.874 436.181 552.527 437.184L552.825 437.585C551.509 438.565 550.172 439.536 548.816 440.496L548.527 440.088C547.183 441.04 545.819 441.982 544.437 442.914L544.716 443.329C543.338 444.258 541.942 445.177 540.526 446.086L540.256 445.665C538.881 446.549 537.488 447.423 536.078 448.288L536.339 448.714C534.925 449.58 533.494 450.438 532.046 451.285L531.794 450.854C530.371 451.687 528.931 452.51 527.475 453.325L527.719 453.761C526.285 454.564 524.834 455.357 523.368 456.142L523.132 455.701C521.668 456.484 520.188 457.258 518.693 458.024L518.921 458.469C517.457 459.218 515.978 459.959 514.484 460.691L514.264 460.242C512.787 460.966 511.295 461.681 509.789 462.388L510.002 462.841C508.493 463.549 506.971 464.248 505.434 464.939L505.229 464.483C503.735 465.155 502.227 465.818 500.706 466.474L500.904 466.933C499.388 467.586 497.86 468.231 496.319 468.867L496.128 468.405C494.589 469.04 493.038 469.668 491.474 470.287L491.658 470.752C490.132 471.355 488.594 471.951 487.045 472.539L486.868 472.072C485.327 472.657 483.774 473.234 482.21 473.802L482.381 474.272C480.814 474.842 479.236 475.404 477.647 475.958L477.483 475.486C475.933 476.026 474.372 476.558 472.801 477.083L472.959 477.558C471.395 478.08 469.819 478.595 468.234 479.103L468.081 478.627C466.498 479.134 464.904 479.633 463.299 480.124L463.446 480.603C461.869 481.086 460.283 481.561 458.687 482.03L458.546 481.55C456.967 482.013 455.378 482.469 453.78 482.918L453.915 483.4C452.315 483.849 450.706 484.291 449.087 484.725L448.957 484.243C447.359 484.672 445.751 485.094 444.135 485.508L444.259 485.993C442.666 486.402 441.064 486.803 439.454 487.198L439.335 486.713C437.726 487.107 436.109 487.494 434.483 487.874L434.597 488.361C432.974 488.741 431.342 489.113 429.702 489.479L429.594 488.991C427.993 489.347 426.385 489.697 424.769 490.041L424.872 490.53C423.255 490.873 421.629 491.21 419.996 491.54L419.897 491.05C418.266 491.379 416.627 491.702 414.98 492.018L415.074 492.509C413.454 492.82 411.826 493.124 410.191 493.421L410.101 492.929C408.48 493.224 406.852 493.513 405.217 493.794L405.302 494.287C403.666 494.569 402.023 494.845 400.372 495.113L400.292 494.62C398.651 494.887 397.003 495.148 395.348 495.402L395.424 495.896C393.799 496.146 392.167 496.389 390.529 496.626L390.458 496.131C388.821 496.367 387.179 496.598 385.53 496.821L385.597 497.317C383.947 497.541 382.29 497.758 380.627 497.969L380.564 497.473C378.926 497.681 377.281 497.883 375.63 498.078L375.689 498.575C374.051 498.769 372.408 498.956 370.759 499.138L370.704 498.641C369.056 498.822 367.403 498.997 365.744 499.166L365.794 499.663C364.134 499.832 362.468 499.995 360.797 500.151L360.75 499.653C359.114 499.807 357.472 499.954 355.824 500.095L355.867 500.593C354.22 500.734 352.568 500.869 350.911 500.997L350.873 500.499C349.217 500.627 347.556 500.75 345.891 500.866L345.925 501.365C344.266 501.481 342.601 501.591 340.931 501.695L340.9 501.196C339.258 501.298 337.611 501.395 335.959 501.485L335.986 501.984C334.333 502.075 332.676 502.159 331.014 502.238L330.99 501.738C329.33 501.817 327.665 501.889 325.995 501.955L326.015 502.455C324.356 502.521 322.694 502.581 321.027 502.636L321.01 502.136C319.363 502.189 317.712 502.237 316.057 502.279L316.07 502.779C314.413 502.821 312.753 502.857 311.089 502.888L311.079 502.388C309.416 502.418 307.749 502.442 306.078 502.461L306.083 502.961C304.426 502.98 302.765 502.992 301.1 502.999L301.098 502.499C299.448 502.506 297.795 502.507 296.139 502.503L296.137 503.003C294.479 502.998 292.818 502.988 291.153 502.972L291.158 502.472C289.494 502.456 287.827 502.435 286.156 502.407L286.147 502.907C284.491 502.88 282.831 502.847 281.168 502.809L281.179 502.309C279.53 502.271 277.876 502.227 276.22 502.177L276.205 502.677C274.548 502.628 272.887 502.573 271.224 502.512L271.242 502.013C269.579 501.952 267.913 501.886 266.244 501.814L266.223 502.314C264.567 502.242 262.908 502.166 261.246 502.083L261.271 501.584C259.622 501.502 257.971 501.415 256.316 501.322L256.288 501.821C254.633 501.728 252.975 501.63 251.314 501.526L251.345 501.027C249.685 500.923 248.022 500.814 246.357 500.699L246.323 501.198C244.667 501.084 243.009 500.964 241.348 500.839L241.386 500.341C239.74 500.217 238.091 500.087 236.44 499.952L236.4 500.451C234.748 500.316 233.093 500.175 231.436 500.029L231.48 499.531C229.824 499.386 228.166 499.234 226.505 499.078L226.458 499.576C224.803 499.419 223.146 499.258 221.487 499.091L221.537 498.593C219.895 498.428 218.25 498.258 216.604 498.082L216.551 498.579C214.903 498.403 213.254 498.222 211.602 498.035L211.658 497.538C210.008 497.351 208.355 497.16 206.7 496.962L206.641 497.459C204.987 497.261 203.331 497.059 201.673 496.851L201.735 496.354C200.098 496.149 198.459 495.938 196.819 495.722L196.753 496.218C195.112 496.002 193.468 495.781 191.823 495.554L191.891 495.059C190.246 494.832 188.6 494.6 186.952 494.363L186.881 494.858C185.232 494.621 183.581 494.378 181.929 494.13L182.003 493.635C180.369 493.39 178.732 493.14 177.095 492.884L177.017 493.378C175.382 493.123 173.746 492.862 172.108 492.596L172.188 492.103C170.551 491.837 168.912 491.566 167.272 491.29L167.189 491.783C165.547 491.506 163.905 491.225 162.261 490.938L162.347 490.445C161.525 490.302 160.703 490.157 159.881 490.011C159.059 489.865 158.237 489.718 157.417 489.57L157.328 490.062C155.685 489.765 154.046 489.464 152.41 489.159L152.502 488.667C150.867 488.362 149.235 488.052 147.607 487.738L147.512 488.229C145.882 487.914 144.256 487.595 142.633 487.272L142.731 486.782C141.105 486.458 139.483 486.13 137.863 485.798L137.763 486.287C136.126 485.951 134.493 485.611 132.863 485.266L132.966 484.777C131.338 484.432 129.712 484.083 128.09 483.73L127.984 484.218C126.361 483.865 124.742 483.507 123.126 483.144L123.235 482.656C121.621 482.294 120.009 481.928 118.402 481.557L118.289 482.044C116.661 481.669 115.037 481.289 113.416 480.905L113.531 480.418C111.909 480.034 110.292 479.645 108.678 479.252L108.559 479.738C106.944 479.344 105.333 478.947 103.726 478.545L103.847 478.06C102.241 477.658 100.638 477.252 99.0399 476.842L98.9156 477.326C97.3001 476.912 95.6885 476.493 94.0811 476.07L94.2084 475.586C92.5953 475.161 90.9863 474.732 89.3815 474.299L89.2511 474.782C87.6453 474.348 86.0436 473.91 84.4461 473.468L84.5795 472.987C82.9831 472.545 81.3908 472.099 79.8029 471.649L79.6665 472.13C78.0641 471.675 76.4661 471.217 74.8725 470.754L75.012 470.274C73.4088 469.808 71.8101 469.338 70.2159 468.864L70.0734 469.344C68.4782 468.869 66.8875 468.391 65.3014 467.908L65.447 467.43C63.8619 466.947 62.2814 466.46 60.7055 465.97L60.5568 466.447C58.968 465.952 57.3839 465.453 55.8046 464.95L55.9565 464.474C54.3648 463.966 52.7781 463.455 51.1963 462.939L51.0413 463.415C49.4584 462.899 47.8804 462.379 46.3073 461.855L46.4654 461.38C44.8934 460.856 43.3264 460.328 41.7644 459.796L41.6031 460.269C40.0282 459.733 38.4584 459.192 36.8938 458.647L37.0583 458.175C35.4801 457.626 33.9071 457.072 32.3395 456.514L32.1718 456.985C30.6032 456.427 29.0398 455.864 27.4818 455.298L27.6527 454.828C26.0957 454.262 24.5442 453.692 22.9981 453.117L22.824 453.586C21.2632 453.006 19.708 452.423 18.1584 451.835L18.3358 451.367C16.7731 450.774 15.2161 450.177 13.665 449.576L13.4843 450.042C11.932 449.441 10.3855 448.835 8.84486 448.225L9.02886 447.761C7.48929 447.151 5.95559 446.538 4.42777 445.921L4.24044 446.384C2.694 445.759 1.15364 445.13 -0.380652 444.497L-0.189976 444.035C-1.73462 443.398 -3.27304 442.757 -4.8052 442.111L-4.99929 442.572C-6.53259 441.926 -8.05964 441.276 -9.58032 440.622L-9.38279 440.163C-10.9023 439.51 -12.4155 438.852 -13.9223 438.191L-14.1233 438.649C-15.6551 437.976 -17.1803 437.3 -18.6988 436.619L-18.4944 436.163C-20.0181 435.48 -21.5351 434.794 -23.0452 434.103L-23.2532 434.557C-24.7645 433.866 -26.2691 433.171 -27.7666 432.471L-27.5551 432.018C-29.0531 431.319 -30.5441 430.615 -32.0282 429.908L-32.2433 430.36C-33.7586 429.637 -35.2666 428.911 -36.7672 428.181L-36.5484 427.731C-38.0479 427.002 -39.5399 426.268 -41.0245 425.531L-41.2469 425.979C-42.7328 425.241 -44.2112 424.499 -45.6821 423.753L-45.4559 423.307C-46.9384 422.555 -48.4132 421.799 -49.8803 421.04L-50.1102 421.484C-51.5985 420.713 -53.0789 419.939 -54.5512 419.16L-54.3175 418.718C-55.7886 417.94 -57.2516 417.159 -58.7065 416.373L-58.944 416.813C-60.4002 416.027 -61.8483 415.237 -63.2882 414.443L-63.0468 414.005C-64.5129 413.197 -65.9705 412.385 -67.4194 411.569L-67.6648 412.004C-69.1216 411.184 -70.5696 410.36 -72.0089 409.532L-71.7595 409.098C-73.1975 408.271 -74.6267 407.44 -76.0469 406.605L-76.3003 407.036C-77.733 406.193 -79.1566 405.347 -80.5711 404.498L-80.3136 404.069C-81.7509 403.206 -83.1787 402.338 -84.597 401.467L-84.8587 401.893C-86.2784 401.021 -87.6885 400.146 -89.0891 399.266L-88.8232 398.843C-90.2224 397.964 -91.6119 397.082 -92.9917 396.196L-93.2619 396.617C-94.6756 395.709 -96.0791 394.798 -97.4723 393.882L-97.1978 393.464C-98.5932 392.548 -99.9782 391.627 -101.353 390.703L-101.632 391.118C-103.008 390.193 -104.374 389.265 -105.729 388.332L-105.445 387.92C-106.82 386.974 -108.184 386.025 -109.537 385.071L-109.825 385.48C-111.195 384.515 -112.554 383.546 -113.901 382.573L-113.609 382.168C-114.955 381.196 -116.289 380.221 -117.612 379.242L-117.91 379.644C-119.247 378.655 -120.573 377.662 -121.887 376.666L-121.584 376.267C-122.921 375.253 -124.246 374.236 -125.558 373.215L-125.866 373.609C-127.179 372.587 -128.481 371.561 -129.77 370.532L-129.458 370.141C-130.753 369.107 -132.035 368.07 -133.304 367.029L-133.621 367.416C-134.922 366.349 -136.21 365.278 -137.485 364.204L-137.162 363.821C-138.435 362.749 -139.694 361.672 -140.94 360.593L-141.267 360.971C-142.519 359.885 -143.758 358.796 -144.982 357.704L-144.65 357.331C-145.905 356.212 -147.146 355.088 -148.372 353.962L-148.71 354.33C-149.938 353.202 -151.15 352.071 -152.348 350.936L-152.004 350.573C-153.207 349.434 -154.394 348.292 -155.566 347.146L-155.915 347.504C-157.12 346.326 -158.309 345.146 -159.481 343.962L-159.126 343.61C-160.296 342.428 -161.45 341.243 -162.588 340.054L-162.949 340.4C-164.1 339.199 -165.233 337.994 -166.35 336.786L-165.983 336.446C-167.123 335.213 -168.246 333.977 -169.35 332.738L-169.724 333.071C-170.83 331.829 -171.919 330.585 -172.99 329.337L-172.61 329.012C-173.697 327.746 -174.765 326.477 -175.814 325.205L-176.2 325.523C-177.268 324.228 -178.316 322.931 -179.345 321.631L-178.953 321.321C-179.979 320.023 -180.986 318.723 -181.973 317.42L-182.371 317.722C-183.387 316.381 -184.382 315.037 -185.356 313.691L-184.951 313.398C-185.928 312.047 -186.884 310.693 -187.818 309.337L-188.23 309.62C-189.172 308.251 -190.093 306.88 -190.992 305.506L-190.573 305.233C-191.493 303.827 -192.389 302.42 -193.261 301.01L-193.686 301.273C-194.561 299.859 -195.412 298.443 -196.24 297.025L-195.808 296.773C-196.651 295.328 -197.469 293.881 -198.262 292.432L-198.7 292.673C-199.503 291.205 -200.281 289.736 -201.032 288.265L-200.587 288.038C-201.341 286.561 -202.07 285.082 -202.772 283.601L-203.223 283.816C-203.943 282.297 -204.635 280.777 -205.299 279.255L-204.841 279.055C-205.503 277.538 -206.137 276.02 -206.742 274.501L-207.207 274.686C-207.829 273.126 -208.421 271.564 -208.983 270.002L-208.512 269.833C-209.074 268.27 -209.606 266.706 -210.108 265.142L-210.584 265.294C-211.094 263.704 -211.572 262.113 -212.019 260.521L-211.538 260.386C-211.987 258.784 -212.405 257.181 -212.79 255.578L-213.276 255.695C-213.665 254.077 -214.02 252.459 -214.342 250.84L-213.852 250.743C-214.177 249.11 -214.468 247.478 -214.724 245.845L-215.218 245.923C-215.476 244.283 -215.699 242.642 -215.887 241.002L-215.39 240.945C-215.58 239.294 -215.734 237.643 -215.851 235.993L-216.35 236.029C-216.468 234.372 -216.551 232.715 -216.596 231.06L-216.096 231.046C-216.142 229.391 -216.151 227.737 -216.123 226.084L-216.623 226.076C-216.595 224.414 -216.529 222.754 -216.426 221.096L-215.927 221.127C-215.825 219.48 -215.686 217.834 -215.508 216.191L-216.006 216.137C-215.828 214.488 -215.612 212.84 -215.359 211.194L-214.864 211.27C-214.738 210.451 -214.602 209.633 -214.457 208.815C-214.312 207.996 -214.158 207.181 -213.994 206.369L-214.484 206.27C-214.156 204.638 -213.791 203.016 -213.39 201.406L-212.905 201.527C-212.505 199.923 -212.07 198.33 -211.599 196.748L-212.078 196.606C-211.603 195.013 -211.093 193.432 -210.548 191.863L-210.076 192.027C-209.533 190.466 -208.955 188.916 -208.342 187.378L-208.807 187.193C-208.194 185.654 -207.546 184.127 -206.865 182.612L-206.409 182.817C-205.73 181.309 -205.018 179.812 -204.271 178.327L-204.718 178.102C-203.977 176.627 -203.203 175.164 -202.396 173.713L-201.959 173.955C-201.156 172.511 -200.321 171.079 -199.454 169.658L-199.88 169.397C-199.021 167.989 -198.13 166.592 -197.208 165.207L-196.792 165.484C-195.879 164.111 -194.935 162.75 -193.961 161.401L-194.367 161.108C-193.399 159.768 -192.402 158.439 -191.376 157.121L-190.981 157.428C-189.972 156.132 -188.934 154.847 -187.868 153.573L-188.252 153.253C-187.186 151.979 -186.092 150.717 -184.972 149.466L-184.599 149.8C-183.508 148.582 -182.39 147.375 -181.246 146.179L-181.608 145.833C-180.46 144.633 -179.287 143.444 -178.089 142.266L-177.738 142.623C-176.569 141.474 -175.377 140.337 -174.16 139.21L-174.499 138.843C-173.287 137.72 -172.052 136.609 -170.793 135.508L-170.464 135.884C-169.22 134.797 -167.954 133.72 -166.665 132.654L-166.984 132.268C-165.719 131.222 -164.432 130.186 -163.125 129.16L-162.816 129.553C-161.511 128.53 -160.185 127.516 -158.838 126.513L-159.137 126.112C-157.82 125.132 -156.484 124.162 -155.127 123.201L-154.838 123.609C-153.495 122.658 -152.131 121.716 -150.748 120.783L-151.028 120.369C-149.65 119.44 -148.253 118.521 -146.838 117.612L-146.568 118.032C-145.193 117.149 -143.8 116.275 -142.389 115.41L-142.651 114.984C-141.237 114.117 -139.806 113.26 -138.358 112.412L-138.105 112.844C-136.682 112.011 -135.243 111.187 -133.787 110.373L-134.031 109.936C-132.596 109.134 -131.146 108.34 -129.679 107.556L-129.443 107.996C-127.98 107.213 -126.5 106.439 -125.005 105.674L-125.233 105.229C-123.768 104.479 -122.289 103.738 -120.795 103.006L-120.575 103.455C-119.098 102.731 -117.607 102.016 -116.101 101.309L-116.313 100.857C-114.805 100.149 -113.282 99.4493 -111.746 98.7586L-111.541 99.2147C-110.046 98.5428 -108.539 97.8792 -107.017 97.2237L-107.215 96.7646C-105.7 96.1116 -104.172 95.4669 -102.631 94.8304L-102.44 95.2925C-100.901 94.657 -99.3496 94.0298 -97.7855 93.4108L-97.9695 92.9458C-96.4438 92.3421 -94.9061 91.7462 -93.3567 91.1582L-93.1793 91.6257C-91.6383 91.0409 -90.0857 90.464 -88.5215 89.895L-88.6924 89.4252C-87.126 88.8554 -85.5482 88.2935 -83.959 87.7397L-83.7944 88.2118C-82.2446 87.6717 -80.6839 87.1391 -79.1125 86.6142L-79.2709 86.1399C-77.7063 85.6172 -76.131 85.1021 -74.5454 84.5946L-74.393 85.0708C-72.8094 84.564 -71.2154 84.0647 -69.611 83.573L-69.7575 83.095C-68.181 82.6118 -66.5945 82.1361 -64.9983 81.6677L-64.8575 82.1475C-63.2784 81.6842 -61.6897 81.2281 -60.0915 80.7793L-60.2267 80.2979C-58.6267 79.8486 -57.0173 79.4067 -55.3986 78.9721L-55.2689 79.455C-53.6705 79.0258 -52.063 78.6038 -50.4466 78.1891L-50.5709 77.7047C-48.9776 77.2959 -47.3757 76.8941 -45.7652 76.4994L-45.6462 76.985C-44.0375 76.5907 -42.4202 76.2034 -40.7945 75.8232L-40.9084 75.3363C-39.2853 74.9567 -37.6537 74.5842 -36.014 74.2187L-35.9052 74.7067C-34.3048 74.35 -32.6964 74.0001 -31.0803 73.6569L-31.1842 73.1678C-29.5664 72.8243 -27.941 72.4876 -26.3079 72.1578L-26.2089 72.6479C-24.5774 72.3184 -22.9383 71.9957 -21.2917 71.6799L-21.3859 71.1888C-19.7652 70.878 -18.1374 70.5738 -16.5024 70.2763L-16.4129 70.7682C-14.792 70.4733 -13.164 70.185 -11.5291 69.9032L-11.614 69.4105C-9.97758 69.1284 -8.33423 68.853 -6.68407 68.5843L-6.60369 69.0778C-4.96237 68.8105 -3.31427 68.5498 -1.65953 68.2956L-1.73543 67.8014C-0.110278 67.5519 1.52129 67.3087 3.15914 67.0719L3.23068 67.5667C4.86708 67.3301 6.50978 67.1 8.15869 66.8762L8.09146 66.3808C9.74178 66.1568 11.3983 65.9393 13.0609 65.7283L13.1239 66.2243C14.7628 66.0163 16.4076 65.8146 18.0582 65.6191L17.9994 65.1226C19.6372 64.9287 21.2807 64.7411 22.9298 64.5596L22.9845 65.0566C24.6322 64.8754 26.2856 64.7003 27.9445 64.5316L27.8939 64.0341C29.5542 63.8652 31.2201 63.7026 32.8913 63.5463L32.9379 64.0441C34.5747 63.891 36.2168 63.744 37.864 63.603L37.8213 63.1048C39.4681 62.9639 41.1201 62.829 42.777 62.7003L42.8158 63.1988C44.4714 63.0701 46.1321 62.9475 47.7978 62.8311L47.7629 62.3323C49.4229 62.2162 51.0877 62.1063 52.7574 62.0024L52.7884 62.5014C54.4308 62.3992 56.0778 62.303 57.7294 62.2126L57.7021 61.7134C59.355 61.623 61.0124 61.5385 62.6743 61.46L62.6979 61.9594C64.3586 61.881 66.0238 61.8085 67.6934 61.742L67.6735 61.2424C69.3319 61.1764 70.9947 61.1162 72.6617 61.062L72.678 61.5617C74.3249 61.5081 75.976 61.4603 77.6312 61.4184L77.6185 60.9185C79.2749 60.8765 80.9354 60.8403 82.5999 60.81L82.609 61.3099C84.2723 61.2796 85.9396 61.2551 87.6108 61.2364L87.6053 60.7365C89.2626 60.718 90.9237 60.7053 92.5887 60.6983L92.5907 61.1983C94.24 61.1915 95.893 61.1903 97.5497 61.1948L97.551 60.6948C99.2088 60.6993 100.87 60.7095 102.535 60.7254L102.53 61.2254C104.194 61.2413 105.862 61.263 107.533 61.2904L107.541 60.7905C109.197 60.8176 110.857 60.8504 112.521 60.8889L112.509 61.3888C114.159 61.4269 115.812 61.4707 117.468 61.52L117.483 61.0202C119.14 61.0696 120.801 61.1246 122.465 61.1852L122.447 61.6849C124.109 61.7454 125.775 61.8116 127.444 61.8835L127.465 61.3839C129.121 61.4552 130.78 61.532 132.442 61.6144L132.418 62.1138C134.066 62.1955 135.718 62.2828 137.372 62.3755L137.4 61.8763C139.055 61.9691 140.714 62.0674 142.375 62.1712L142.343 62.6703C144.003 62.774 145.666 62.8833 147.331 62.9982L147.366 62.4994C149.021 62.6135 150.679 62.7332 152.34 62.8583L152.303 63.3569C153.949 63.481 155.597 63.6104 157.248 63.7453L157.289 63.2469C158.941 63.3819 160.595 63.5222 162.252 63.6681L162.208 64.1662C163.864 64.3119 165.523 64.4631 167.183 64.6197L167.23 64.1219C168.885 64.278 170.542 64.4396 172.202 64.6065L172.152 65.104C173.794 65.2692 175.438 65.4398 177.084 65.6157L177.137 65.1185C178.785 65.2945 180.434 65.4759 182.086 65.6626L182.03 66.1594C183.681 66.346 185.333 66.538 186.988 66.7354L187.047 66.2389C188.702 66.4362 190.358 66.6389 192.016 66.8469L191.953 67.343C193.59 67.5485 195.229 67.7591 196.87 67.9751L196.935 67.4794C198.577 67.6955 200.22 67.9169 201.866 68.1436L201.797 68.6389C203.442 68.8654 205.088 69.0973 206.736 69.3345L206.807 68.8396C208.456 69.0769 210.107 69.3196 211.759 69.5676L211.685 70.062C213.32 70.3073 214.956 70.5579 216.594 70.8137L216.671 70.3197C218.306 70.575 219.943 70.8356 221.581 71.1015L221.501 71.595C223.138 71.8607 224.777 72.1316 226.417 72.4078L226.5 71.9147C228.141 72.1911 229.784 72.4727 231.428 72.7596L231.342 73.2521C232.163 73.3955 232.985 73.5402 233.807 73.6862C234.63 73.8322 235.451 73.9793 236.272 74.1276L236.361 73.6355C238.003 73.9322 239.642 74.2333 241.278 74.5389L241.186 75.0304C242.821 75.3358 244.453 75.6456 246.082 75.9598L246.176 75.4689C247.806 75.7833 249.432 76.1021 251.055 76.4252L250.958 76.9156C252.583 77.2393 254.206 77.5674 255.825 77.8998L255.925 77.41C257.562 77.7461 259.196 78.0866 260.825 78.4315L260.722 78.9207C262.351 79.2653 263.976 79.6144 265.598 79.9679L265.705 79.4793C267.327 79.833 268.947 80.191 270.562 80.5533L270.453 81.0412C272.068 81.4033 273.679 81.7697 275.287 82.1404L275.399 81.6532C277.027 82.0287 278.652 82.4086 280.273 82.7928L280.157 83.2793C281.779 83.6637 283.397 84.0525 285.011 84.4456L285.129 83.9598C286.744 84.3531 288.355 84.7508 289.963 85.1527L289.841 85.6378C291.448 86.0394 293.05 86.4454 294.648 86.8556L294.773 86.3713C296.388 86.7859 298 87.2048 299.607 87.628L299.48 88.1115C301.093 88.5362 302.702 88.9651 304.307 89.3984L304.437 88.9157C306.043 89.3492 307.645 89.787 309.242 90.2291L309.109 90.711C310.705 91.1528 312.298 91.5988 313.886 92.049L314.022 91.5679C315.624 92.0222 317.222 92.4808 318.816 92.9435L318.676 93.4237C320.28 93.8892 321.878 94.3591 323.472 94.8331L323.615 94.3539C325.21 94.8282 326.801 95.3068 328.387 95.7896L328.241 96.2679C329.826 96.7504 331.407 97.2371 332.983 97.7279L333.132 97.2505C334.72 97.7454 336.304 98.2444 337.884 98.7476L337.732 99.224C339.323 99.7311 340.91 100.243 342.492 100.758L342.647 100.283C344.23 100.799 345.808 101.319 347.381 101.843L347.223 102.317C348.795 102.841 350.362 103.369 351.924 103.901L352.085 103.428C353.66 103.965 355.23 104.505 356.795 105.05L356.63 105.522C358.208 106.072 359.781 106.626 361.349 107.183L361.516 106.712C363.085 107.271 364.649 107.833 366.207 108.4L366.036 108.869C367.593 109.436 369.144 110.006 370.69 110.58L370.864 110.111C372.425 110.691 373.98 111.275 375.53 111.863L375.353 112.33C376.915 112.923 378.472 113.52 380.023 114.121L380.204 113.655C381.756 114.257 383.303 114.862 384.843 115.472L384.659 115.937C386.199 116.546 387.733 117.16 389.261 117.777L389.448 117.313C390.994 117.938 392.535 118.567 394.069 119.2L393.878 119.662C395.423 120.299 396.961 120.941 398.494 121.586L398.688 121.125C400.221 121.771 401.748 122.421 403.269 123.075L403.071 123.534C404.591 124.188 406.104 124.845 407.611 125.507L407.812 125.049C409.343 125.721 410.869 126.398 412.387 127.078L412.183 127.534C413.706 128.217 415.223 128.904 416.734 129.595L416.942 129.14C418.453 129.832 419.957 130.527 421.455 131.226L421.243 131.679C422.741 132.379 424.232 133.082 425.717 133.789L425.932 133.338C427.447 134.06 428.955 134.786 430.456 135.516L430.237 135.966C431.736 136.696 433.228 137.429 434.713 138.167L434.935 137.719C436.421 138.457 437.9 139.199 439.37 139.945L439.144 140.391C440.627 141.143 442.102 141.898 443.569 142.658L443.799 142.214C445.287 142.984 446.767 143.759 448.24 144.537L448.006 144.979C449.477 145.757 450.94 146.539 452.395 147.324L452.632 146.884C454.089 147.67 455.537 148.46 456.977 149.254L456.735 149.692C458.201 150.5 459.659 151.313 461.108 152.129L461.353 151.693C462.81 152.513 464.258 153.338 465.697 154.166L465.448 154.599C466.886 155.427 468.315 156.258 469.735 157.093L469.989 156.662C471.421 157.504 472.845 158.35 474.259 159.2L474.002 159.629C475.439 160.492 476.867 161.359 478.285 162.23L478.547 161.804C479.967 162.676 481.377 163.552 482.777 164.431L482.512 164.855C483.911 165.733 485.3 166.616 486.68 167.502L486.95 167.081C488.364 167.988 489.767 168.9 491.161 169.815L490.886 170.233C492.282 171.15 493.667 172.07 495.041 172.994L495.32 172.579C496.696 173.504 498.062 174.433 499.417 175.365L499.134 175.777C500.508 176.723 501.872 177.673 503.225 178.626L503.513 178.217C504.883 179.183 506.242 180.152 507.59 181.124L507.297 181.53C508.643 182.501 509.978 183.476 511.301 184.455L511.598 184.053C512.935 185.042 514.261 186.035 515.575 187.032L515.273 187.43C516.61 188.444 517.935 189.462 519.247 190.483L519.554 190.088C520.868 191.11 522.169 192.136 523.458 193.166L523.146 193.556C524.441 194.59 525.723 195.628 526.992 196.668L527.309 196.282C528.61 197.349 529.898 198.42 531.173 199.494L530.851 199.876C532.123 200.949 533.382 202.025 534.628 203.105L534.955 202.727C536.208 203.812 537.446 204.901 538.671 205.993L538.338 206.366C539.593 207.486 540.834 208.609 542.06 209.736L542.398 209.367C543.626 210.495 544.839 211.627 546.037 212.762L545.693 213.125C546.895 214.264 548.082 215.406 549.254 216.551L549.604 216.194C550.809 217.371 551.997 218.552 553.169 219.736L552.814 220.088C553.985 221.27 555.139 222.455 556.276 223.643L556.637 223.297C557.788 224.499 558.922 225.704 560.039 226.912L559.672 227.251C560.812 228.484 561.934 229.72 563.039 230.96L563.412 230.627C564.519 231.868 565.607 233.113 566.678 234.36L566.299 234.686C567.385 235.952 568.453 237.221 569.502 238.493L569.888 238.175C570.956 239.469 572.004 240.767 573.033 242.067L572.641 242.377C573.667 243.674 574.674 244.975 575.661 246.277L576.06 245.976C577.076 247.317 578.071 248.66 579.044 250.007L578.639 250.3C579.616 251.651 580.572 253.005 581.506 254.361L581.918 254.077C582.861 255.446 583.782 256.817 584.68 258.191L584.262 258.465C585.181 259.87 586.077 261.278 586.95 262.688L587.375 262.425C588.25 263.838 589.101 265.254 589.928 266.672L589.496 266.924C590.339 268.369 591.157 269.816 591.95 271.265L592.389 271.025C593.192 272.492 593.969 273.961 594.72 275.432L594.275 275.66C595.03 277.137 595.758 278.616 596.46 280.096L596.912 279.882C597.632 281.4 598.324 282.921 598.988 284.442L598.529 284.642C599.191 286.159 599.825 287.677 600.431 289.197L600.895 289.012C601.517 290.572 602.109 292.133 602.671 293.696L602.201 293.865C602.763 295.428 603.295 296.991 603.796 298.556L604.272 298.403C604.782 299.994 605.261 301.585 605.708 303.177L605.226 303.312C605.676 304.914 606.093 306.517 606.478 308.12L606.964 308.003C607.353 309.621 607.708 311.239 608.031 312.857L607.54 312.955C607.865 314.587 608.156 316.22 608.413 317.852L608.906 317.775C609.164 319.415 609.387 321.055 609.575 322.695L609.079 322.752C609.268 324.404 609.422 326.054 609.54 327.704L610.038 327.669C610.157 329.326 610.239 330.982 610.285 332.638L609.785 332.652C609.83 334.307 609.839 335.961 609.811 337.613L610.311 337.622C610.283 339.283 610.218 340.943 610.115 342.601L609.616 342.57C609.513 344.218 609.374 345.863 609.197 347.507L609.694 347.56Z" stroke="#E41E0A" stroke-dasharray="5 5"/>
</svg>
