<svg width="614" height="444" viewBox="0 0 614 444" fill="none" xmlns="http://www.w3.org/2000/svg">
<path d="M612.694 287.56C612.516 289.21 612.301 290.858 612.047 292.503L611.553 292.427C611.427 293.246 611.291 294.065 611.146 294.883C611 295.701 610.846 296.516 610.682 297.329L611.173 297.427C610.844 299.06 610.479 300.681 610.078 302.291L609.593 302.17C609.193 303.774 608.758 305.367 608.287 306.949L608.766 307.092C608.292 308.684 607.782 310.265 607.236 311.835L606.764 311.67C606.221 313.232 605.643 314.782 605.031 316.32L605.495 316.505C604.882 318.043 604.235 319.57 603.553 321.085L603.097 320.88C602.419 322.389 601.706 323.886 600.96 325.371L601.406 325.595C600.665 327.07 599.891 328.533 599.084 329.985L598.647 329.742C597.844 331.186 597.009 332.619 596.142 334.04L596.569 334.3C595.709 335.709 594.818 337.106 593.897 338.491L593.48 338.214C592.567 339.586 591.623 340.947 590.649 342.297L591.055 342.589C590.087 343.93 589.09 345.259 588.064 346.576L587.67 346.269C586.66 347.565 585.622 348.85 584.557 350.124L584.94 350.445C583.874 351.719 582.781 352.981 581.66 354.231L581.288 353.898C580.196 355.116 579.078 356.323 577.934 357.519L578.296 357.865C577.149 359.065 575.976 360.254 574.777 361.431L574.426 361.075C573.258 362.223 572.065 363.361 570.848 364.488L571.188 364.855C569.976 365.977 568.74 367.089 567.481 368.19L567.152 367.813C565.909 368.901 564.642 369.978 563.353 371.044L563.672 371.429C562.407 372.476 561.121 373.512 559.813 374.538L559.504 374.145C558.2 375.168 556.874 376.181 555.527 377.184L555.825 377.585C554.509 378.565 553.172 379.536 551.816 380.496L551.527 380.088C550.183 381.04 548.819 381.982 547.437 382.914L547.716 383.329C546.338 384.258 544.942 385.177 543.526 386.086L543.256 385.665C541.881 386.549 540.488 387.423 539.078 388.288L539.339 388.714C537.925 389.58 536.494 390.438 535.046 391.285L534.794 390.854C533.371 391.687 531.931 392.51 530.475 393.325L530.719 393.761C529.285 394.564 527.834 395.357 526.368 396.142L526.132 395.701C524.668 396.484 523.188 397.258 521.693 398.024L521.921 398.469C520.457 399.218 518.978 399.959 517.484 400.691L517.264 400.242C515.786 400.966 514.295 401.681 512.789 402.388L513.002 402.841C511.493 403.549 509.971 404.248 508.434 404.939L508.229 404.483C506.735 405.155 505.227 405.818 503.706 406.474L503.904 406.933C502.388 407.586 500.86 408.231 499.319 408.867L499.128 408.405C497.589 409.04 496.038 409.668 494.474 410.287L494.658 410.752C493.132 411.355 491.594 411.951 490.045 412.539L489.868 412.072C488.327 412.657 486.774 413.234 485.21 413.803L485.381 414.272C483.814 414.842 482.236 415.404 480.647 415.958L480.483 415.486C478.933 416.026 477.372 416.558 475.801 417.083L475.959 417.558C474.395 418.08 472.819 418.595 471.234 419.103L471.081 418.627C469.498 419.134 467.904 419.633 466.299 420.124L466.446 420.603C464.869 421.086 463.283 421.561 461.687 422.03L461.546 421.55C459.967 422.013 458.378 422.469 456.78 422.918L456.915 423.4C455.315 423.849 453.706 424.291 452.087 424.725L451.957 424.243C450.359 424.672 448.751 425.094 447.135 425.508L447.259 425.993C445.666 426.402 444.064 426.803 442.454 427.198L442.335 426.713C440.726 427.107 439.109 427.494 437.483 427.874L437.597 428.361C435.974 428.741 434.342 429.113 432.702 429.479L432.594 428.991C430.993 429.347 429.385 429.697 427.769 430.041L427.872 430.53C426.255 430.873 424.629 431.21 422.996 431.54L422.897 431.05C421.266 431.379 419.627 431.702 417.98 432.018L418.074 432.509C416.454 432.82 414.826 433.124 413.191 433.421L413.101 432.929C411.48 433.224 409.852 433.513 408.217 433.794L408.302 434.287C406.666 434.569 405.023 434.845 403.372 435.113L403.292 434.62C401.651 434.887 400.003 435.148 398.348 435.402L398.424 435.896C396.799 436.146 395.167 436.389 393.529 436.626L393.458 436.131C391.821 436.367 390.179 436.598 388.53 436.821L388.597 437.317C386.947 437.541 385.29 437.758 383.627 437.969L383.564 437.473C381.926 437.681 380.281 437.883 378.63 438.078L378.689 438.575C377.051 438.769 375.408 438.956 373.759 439.138L373.704 438.641C372.056 438.822 370.403 438.997 368.744 439.166L368.794 439.663C367.134 439.832 365.468 439.995 363.797 440.151L363.75 439.653C362.114 439.807 360.472 439.954 358.824 440.095L358.867 440.593C357.22 440.734 355.568 440.869 353.911 440.997L353.873 440.499C352.217 440.627 350.556 440.75 348.891 440.866L348.925 441.365C347.266 441.481 345.601 441.591 343.931 441.695L343.9 441.196C342.258 441.298 340.611 441.395 338.959 441.485L338.986 441.984C337.333 442.075 335.676 442.159 334.014 442.238L333.99 441.738C332.33 441.817 330.665 441.889 328.995 441.955L329.015 442.455C327.356 442.521 325.694 442.581 324.027 442.636L324.01 442.136C322.363 442.189 320.712 442.237 319.057 442.279L319.07 442.779C317.413 442.821 315.753 442.857 314.088 442.888L314.079 442.388C312.416 442.418 310.749 442.442 309.078 442.461L309.083 442.961C307.426 442.98 305.765 442.992 304.1 442.999L304.098 442.499C302.448 442.506 300.795 442.507 299.139 442.503L299.137 443.003C297.479 442.998 295.818 442.988 294.153 442.972L294.158 442.472C292.494 442.456 290.827 442.435 289.156 442.407L289.147 442.907C287.491 442.88 285.831 442.847 284.168 442.809L284.179 442.309C282.53 442.271 280.876 442.227 279.22 442.177L279.205 442.677C277.548 442.628 275.887 442.573 274.224 442.512L274.242 442.013C272.579 441.952 270.913 441.886 269.244 441.814L269.223 442.314C267.567 442.242 265.908 442.166 264.246 442.083L264.271 441.584C262.622 441.502 260.971 441.415 259.316 441.322L259.288 441.821C257.633 441.728 255.975 441.63 254.314 441.526L254.345 441.027C252.685 440.924 251.022 440.814 249.357 440.699L249.323 441.198C247.667 441.084 246.009 440.964 244.348 440.839L244.386 440.341C242.74 440.217 241.091 440.087 239.44 439.952L239.4 440.451C237.748 440.316 236.093 440.175 234.436 440.029L234.48 439.531C232.824 439.386 231.166 439.234 229.505 439.078L229.458 439.576C227.803 439.419 226.146 439.258 224.487 439.091L224.537 438.593C222.895 438.428 221.25 438.258 219.604 438.082L219.551 438.579C217.903 438.403 216.254 438.222 214.602 438.035L214.658 437.538C213.008 437.351 211.355 437.16 209.7 436.962L209.641 437.459C207.987 437.261 206.331 437.059 204.673 436.851L204.735 436.354C203.098 436.149 201.459 435.938 199.819 435.722L199.753 436.218C198.112 436.002 196.468 435.781 194.823 435.554L194.891 435.059C193.246 434.832 191.6 434.6 189.952 434.363L189.881 434.858C188.232 434.621 186.581 434.378 184.929 434.13L185.003 433.635C183.369 433.39 181.732 433.14 180.095 432.884L180.017 433.378C178.382 433.123 176.746 432.862 175.108 432.596L175.188 432.103C173.551 431.837 171.912 431.566 170.272 431.29L170.189 431.783C168.547 431.506 166.905 431.225 165.261 430.938L165.347 430.445C164.525 430.302 163.703 430.157 162.881 430.011C162.059 429.865 161.237 429.718 160.417 429.57L160.328 430.062C158.685 429.765 157.046 429.464 155.41 429.159L155.502 428.667C153.867 428.362 152.235 428.052 150.607 427.738L150.512 428.229C148.882 427.914 147.256 427.595 145.633 427.272L145.731 426.782C144.105 426.458 142.483 426.13 140.863 425.798L140.763 426.287C139.126 425.951 137.493 425.611 135.863 425.266L135.966 424.777C134.338 424.432 132.712 424.083 131.09 423.73L130.984 424.218C129.361 423.865 127.742 423.507 126.126 423.144L126.235 422.656C124.621 422.294 123.009 421.928 121.402 421.557L121.289 422.044C119.661 421.669 118.037 421.289 116.416 420.905L116.531 420.418C114.909 420.034 113.292 419.645 111.678 419.252L111.559 419.738C109.944 419.344 108.333 418.947 106.726 418.545L106.847 418.06C105.241 417.658 103.638 417.252 102.04 416.842L101.916 417.326C100.3 416.912 98.6885 416.493 97.0811 416.07L97.2084 415.586C95.5953 415.161 93.9863 414.732 92.3815 414.299L92.2511 414.782C90.6453 414.348 89.0436 413.91 87.4461 413.468L87.5795 412.987C85.9831 412.545 84.3908 412.099 82.8029 411.649L82.6665 412.13C81.0641 411.675 79.4661 411.217 77.8725 410.754L78.012 410.274C76.4088 409.808 74.8101 409.338 73.2159 408.864L73.0734 409.344C71.4782 408.869 69.8875 408.391 68.3014 407.908L68.447 407.43C66.8619 406.947 65.2814 406.46 63.7055 405.97L63.5568 406.447C61.968 405.952 60.3839 405.453 58.8046 404.95L58.9565 404.474C57.3648 403.966 55.7781 403.455 54.1963 402.939L54.0413 403.415C52.4584 402.899 50.8804 402.379 49.3073 401.855L49.4654 401.38C47.8934 400.856 46.3264 400.328 44.7644 399.796L44.6031 400.269C43.0282 399.733 41.4584 399.192 39.8938 398.647L40.0583 398.175C38.4801 397.626 36.9071 397.072 35.3395 396.514L35.1718 396.985C33.6032 396.427 32.0398 395.864 30.4818 395.298L30.6527 394.828C29.0957 394.262 27.5442 393.692 25.9981 393.117L25.824 393.586C24.2632 393.006 22.708 392.423 21.1584 391.835L21.3358 391.367C19.7731 390.774 18.2161 390.177 16.665 389.576L16.4843 390.042C14.932 389.441 13.3855 388.835 11.8449 388.225L12.0289 387.761C10.4893 387.151 8.95559 386.538 7.42777 385.921L7.24044 386.384C5.694 385.759 4.15364 385.13 2.61935 384.497L2.81002 384.035C1.26538 383.398 -0.273045 382.757 -1.8052 382.111L-1.99929 382.572C-3.53259 381.926 -5.05964 381.276 -6.58032 380.622L-6.38279 380.163C-7.90233 379.51 -9.41553 378.852 -10.9223 378.191L-11.1232 378.649C-12.6551 377.976 -14.1803 377.3 -15.6988 376.619L-15.4944 376.163C-17.0181 375.48 -18.5351 374.794 -20.0452 374.103L-20.2532 374.557C-21.7645 373.866 -23.2691 373.171 -24.7666 372.471L-24.5551 372.018C-26.0531 371.319 -27.5441 370.615 -29.0282 369.908L-29.2433 370.36C-30.7586 369.637 -32.2666 368.911 -33.7672 368.181L-33.5484 367.731C-35.0479 367.002 -36.5399 366.268 -38.0245 365.531L-38.2469 365.979C-39.7328 365.241 -41.2112 364.499 -42.6821 363.753L-42.4559 363.307C-43.9384 362.555 -45.4132 361.799 -46.8803 361.04L-47.1102 361.484C-48.5985 360.713 -50.0789 359.939 -51.5512 359.16L-51.3175 358.718C-52.7886 357.94 -54.2516 357.159 -55.7065 356.373L-55.944 356.813C-57.4002 356.027 -58.8483 355.237 -60.2882 354.443L-60.0468 354.005C-61.5129 353.197 -62.9705 352.385 -64.4194 351.569L-64.6648 352.004C-66.1216 351.184 -67.5696 350.36 -69.0089 349.532L-68.7595 349.098C-70.1975 348.271 -71.6267 347.44 -73.0469 346.605L-73.3003 347.036C-74.733 346.193 -76.1566 345.347 -77.5711 344.498L-77.3136 344.069C-78.7509 343.206 -80.1787 342.338 -81.597 341.467L-81.8587 341.893C-83.2784 341.021 -84.6885 340.146 -86.0891 339.266L-85.8232 338.843C-87.2224 337.964 -88.6119 337.082 -89.9917 336.196L-90.2619 336.617C-91.6756 335.709 -93.0791 334.798 -94.4723 333.882L-94.1978 333.464C-95.5932 332.548 -96.9782 331.627 -98.3528 330.703L-98.6318 331.118C-100.008 330.193 -101.374 329.265 -102.729 328.332L-102.445 327.92C-103.82 326.974 -105.184 326.025 -106.537 325.071L-106.825 325.48C-108.195 324.515 -109.554 323.546 -110.901 322.573L-110.609 322.168C-111.955 321.196 -113.289 320.221 -114.612 319.242L-114.91 319.644C-116.247 318.655 -117.573 317.662 -118.887 316.666L-118.584 316.267C-119.921 315.253 -121.246 314.236 -122.558 313.215L-122.866 313.609C-124.179 312.587 -125.481 311.561 -126.77 310.532L-126.458 310.141C-127.753 309.107 -129.035 308.07 -130.304 307.029L-130.621 307.416C-131.922 306.349 -133.21 305.278 -134.485 304.204L-134.162 303.821C-135.435 302.749 -136.694 301.672 -137.94 300.593L-138.267 300.971C-139.519 299.885 -140.758 298.796 -141.982 297.704L-141.65 297.331C-142.905 296.212 -144.146 295.088 -145.372 293.962L-145.71 294.33C-146.938 293.202 -148.15 292.071 -149.348 290.936L-149.004 290.573C-150.207 289.434 -151.394 288.292 -152.566 287.146L-152.915 287.504C-154.12 286.326 -155.309 285.146 -156.481 283.962L-156.126 283.61C-157.296 282.428 -158.45 281.243 -159.588 280.055L-159.949 280.4C-161.1 279.199 -162.233 277.994 -163.35 276.786L-162.983 276.446C-164.123 275.213 -165.246 273.977 -166.35 272.738L-166.724 273.071C-167.83 271.829 -168.919 270.585 -169.99 269.337L-169.61 269.012C-170.697 267.746 -171.765 266.477 -172.814 265.205L-173.2 265.523C-174.268 264.228 -175.316 262.931 -176.345 261.631L-175.953 261.321C-176.979 260.023 -177.986 258.723 -178.973 257.42L-179.371 257.722C-180.387 256.381 -181.382 255.037 -182.356 253.691L-181.951 253.398C-182.928 252.047 -183.884 250.693 -184.818 249.337L-185.23 249.62C-186.172 248.251 -187.093 246.88 -187.992 245.506L-187.573 245.233C-188.493 243.827 -189.389 242.42 -190.261 241.01L-190.686 241.273C-191.561 239.859 -192.412 238.443 -193.24 237.025L-192.808 236.773C-193.651 235.328 -194.469 233.881 -195.262 232.432L-195.7 232.673C-196.503 231.205 -197.281 229.736 -198.032 228.265L-197.587 228.038C-198.341 226.561 -199.07 225.082 -199.772 223.601L-200.223 223.816C-200.943 222.297 -201.635 220.777 -202.299 219.255L-201.841 219.055C-202.503 217.538 -203.137 216.02 -203.742 214.501L-204.207 214.686C-204.829 213.126 -205.421 211.564 -205.983 210.002L-205.512 209.833C-206.074 208.27 -206.606 206.706 -207.108 205.142L-207.584 205.294C-208.094 203.704 -208.572 202.113 -209.019 200.521L-208.538 200.386C-208.987 198.784 -209.405 197.181 -209.79 195.578L-210.276 195.695C-210.665 194.077 -211.02 192.459 -211.342 190.84L-210.852 190.743C-211.177 189.11 -211.468 187.478 -211.724 185.845L-212.218 185.923C-212.476 184.283 -212.699 182.642 -212.887 181.002L-212.39 180.945C-212.58 179.294 -212.734 177.643 -212.851 175.993L-213.35 176.029C-213.468 174.372 -213.551 172.715 -213.596 171.06L-213.096 171.046C-213.142 169.391 -213.151 167.737 -213.123 166.084L-213.623 166.076C-213.595 164.414 -213.529 162.754 -213.426 161.096L-212.927 161.127C-212.825 159.48 -212.686 157.834 -212.508 156.191L-213.006 156.137C-212.828 154.488 -212.612 152.84 -212.359 151.194L-211.864 151.27C-211.738 150.451 -211.602 149.633 -211.457 148.815C-211.312 147.996 -211.158 147.181 -210.994 146.369L-211.484 146.27C-211.156 144.638 -210.791 143.016 -210.39 141.406L-209.905 141.527C-209.505 139.923 -209.07 138.33 -208.599 136.748L-209.078 136.606C-208.603 135.013 -208.093 133.432 -207.548 131.863L-207.076 132.027C-206.533 130.466 -205.955 128.916 -205.342 127.378L-205.807 127.193C-205.194 125.654 -204.546 124.127 -203.865 122.612L-203.409 122.817C-202.73 121.309 -202.018 119.812 -201.271 118.327L-201.718 118.102C-200.977 116.627 -200.203 115.164 -199.396 113.713L-198.959 113.955C-198.156 112.511 -197.321 111.079 -196.454 109.658L-196.88 109.397C-196.021 107.989 -195.13 106.592 -194.208 105.207L-193.792 105.484C-192.879 104.111 -191.935 102.75 -190.961 101.401L-191.367 101.108C-190.399 99.7677 -189.402 98.4386 -188.376 97.1211L-187.981 97.4283C-186.972 96.1321 -185.934 94.8471 -184.868 93.5734L-185.252 93.2525C-184.186 91.979 -183.092 90.7169 -181.972 89.4662L-181.599 89.7999C-180.508 88.5819 -179.39 87.3747 -178.246 86.1785L-178.608 85.833C-177.46 84.6329 -176.287 83.4439 -175.089 82.2661L-174.738 82.6228C-173.569 81.4745 -172.377 80.3367 -171.16 79.2097L-171.499 78.8428C-170.287 77.7205 -169.052 76.6088 -167.793 75.5078L-167.464 75.8842C-166.22 74.7969 -164.954 73.72 -163.665 72.6536L-163.984 72.2684C-162.719 71.2219 -161.432 70.1856 -160.125 69.1596L-159.816 69.553C-158.511 68.5296 -157.185 67.5164 -155.838 66.5134L-156.137 66.1124C-154.82 65.1321 -153.484 64.1617 -152.127 63.2012L-151.838 63.6092C-150.495 62.6575 -149.131 61.7155 -147.748 60.7834L-148.028 60.3688C-146.65 59.4399 -145.253 58.5208 -143.838 57.6115L-143.568 58.0322C-142.193 57.1489 -140.8 56.2748 -139.389 55.41L-139.651 54.9837C-138.237 54.1172 -136.806 53.26 -135.358 52.4122L-135.105 52.8437C-133.682 52.0109 -132.243 51.1872 -130.787 50.3727L-131.031 49.9363C-129.596 49.1338 -128.146 48.3402 -126.679 47.5556L-126.443 47.9964C-124.98 47.2133 -123.5 46.4391 -122.005 45.6739L-122.233 45.2288C-120.768 44.4793 -119.289 43.7385 -117.795 43.0064L-117.575 43.4553C-116.098 42.7314 -114.607 42.0161 -113.101 41.3093L-113.313 40.8567C-111.805 40.1487 -110.282 39.4493 -108.746 38.7586L-108.541 39.2147C-107.046 38.5428 -105.539 37.8792 -104.017 37.2237L-104.215 36.7646C-102.7 36.1116 -101.172 35.4669 -99.6307 34.8304L-99.4399 35.2925C-97.9011 34.657 -96.3496 34.0298 -94.7855 33.4108L-94.9695 32.9458C-93.4438 32.3421 -91.9061 31.7462 -90.3567 31.1582L-90.1793 31.6257C-88.6383 31.0409 -87.0857 30.464 -85.5215 29.895L-85.6924 29.4252C-84.126 28.8554 -82.5482 28.2935 -80.959 27.7397L-80.7944 28.2118C-79.2446 27.6717 -77.6839 27.1391 -76.1125 26.6142L-76.2709 26.1399C-74.7063 25.6173 -73.131 25.1021 -71.5454 24.5946L-71.393 25.0708C-69.8094 24.564 -68.2154 24.0647 -66.611 23.573L-66.7575 23.095C-65.181 22.6118 -63.5945 22.1361 -61.9983 21.6677L-61.8575 22.1475C-60.2784 21.6842 -58.6897 21.2281 -57.0915 20.7793L-57.2267 20.2979C-55.6267 19.8486 -54.0173 19.4067 -52.3986 18.9721L-52.2689 19.455C-50.6705 19.0258 -49.063 18.6038 -47.4466 18.1891L-47.5709 17.7047C-45.9776 17.2959 -44.3757 16.8941 -42.7652 16.4994L-42.6462 16.985C-41.0375 16.5907 -39.4202 16.2034 -37.7945 15.8232L-37.9084 15.3363C-36.2853 14.9567 -34.6537 14.5842 -33.014 14.2187L-32.9052 14.7067C-31.3048 14.35 -29.6964 14.0001 -28.0803 13.6569L-28.1842 13.1678C-26.5664 12.8243 -24.941 12.4876 -23.3079 12.1578L-23.2089 12.6479C-21.5774 12.3184 -19.9383 11.9957 -18.2917 11.6799L-18.3859 11.1888C-16.7652 10.878 -15.1374 10.5738 -13.5024 10.2763L-13.4129 10.7682C-11.792 10.4733 -10.164 10.185 -8.52908 9.9032L-8.61399 9.41046C-6.97758 9.12844 -5.33423 8.85305 -3.68407 8.5843L-3.60369 9.0778C-1.96237 8.81049 -0.314271 8.54976 1.34047 8.29564L1.26457 7.80143C2.88972 7.55186 4.52129 7.30867 6.15914 7.07188L6.23068 7.56673C7.86708 7.33015 9.50978 7.09997 11.1587 6.87622L11.0915 6.38077C12.7418 6.15683 14.3983 5.93932 16.0609 5.72828L16.1239 6.22431C17.7628 6.01628 19.4076 5.81455 21.0582 5.61913L20.9994 5.12261C22.6372 4.92872 24.2807 4.74105 25.9298 4.55963L25.9845 5.05663C27.6322 4.87536 29.2856 4.70033 30.9445 4.53156L30.8939 4.03413C32.5542 3.86523 34.2201 3.70261 35.8913 3.54629L35.9379 4.04411C37.5747 3.89101 39.2168 3.74396 40.864 3.60299L40.8213 3.10481C42.4681 2.96388 44.1201 2.82902 45.777 2.70025L45.8158 3.19875C47.4714 3.07008 49.1321 2.94751 50.7978 2.83106L50.7629 2.33228C52.4229 2.21623 54.0877 2.10625 55.7574 2.00238L55.7884 2.50141C57.4308 2.39923 59.0778 2.30296 60.7294 2.21263L60.7021 1.71338C62.355 1.62297 64.0124 1.5385 65.6743 1.46L65.6979 1.95945C67.3586 1.881 69.0238 1.80851 70.6934 1.74201L70.6735 1.24241C72.3319 1.17636 73.9947 1.1162 75.6617 1.06198L75.678 1.56171C77.3249 1.50813 78.976 1.46034 80.6312 1.41837L80.6185 0.918525C82.2749 0.876519 83.9354 0.840326 85.5999 0.809975L85.609 1.30989C87.2723 1.27956 88.9396 1.25507 90.6108 1.23643L90.6053 0.736467C92.2626 0.717989 93.9237 0.705265 95.5887 0.69833L95.5907 1.19832C97.24 1.19145 98.893 1.19025 100.55 1.19476L100.551 0.694761C102.209 0.699273 103.87 0.709489 105.535 0.725428L105.53 1.2254C107.194 1.24134 108.862 1.26299 110.533 1.29039L110.541 0.79046C112.197 0.817625 113.857 0.850441 115.521 0.888915L115.509 1.38878C117.159 1.42694 118.812 1.47068 120.468 1.52002L120.483 1.02025C122.14 1.06962 123.801 1.12461 125.465 1.18521L125.447 1.68487C127.109 1.74544 128.775 1.81162 130.444 1.88345L130.465 1.38392C132.121 1.45519 133.78 1.53203 135.442 1.61443L135.418 2.11381C137.066 2.19555 138.718 2.28277 140.372 2.37551L140.4 1.87629C142.055 1.96908 143.714 2.0674 145.375 2.17123L145.343 2.67026C147.003 2.77403 148.666 2.88333 150.331 2.99819L150.366 2.49937C152.021 2.61354 153.679 2.73319 155.34 2.85834L155.303 3.35693C156.949 3.48096 158.597 3.6104 160.248 3.74526L160.289 3.24693C161.941 3.38187 163.595 3.52225 165.252 3.66808L165.208 4.16615C166.864 4.31189 168.523 4.46308 170.183 4.61972L170.23 4.12194C171.885 4.27804 173.542 4.43957 175.202 4.60654L175.152 5.10403C176.794 5.26924 178.438 5.43977 180.084 5.61567L180.137 5.1185C181.785 5.2945 183.434 5.47586 185.086 5.66259L185.03 6.15942C186.681 6.34605 188.333 6.53803 189.988 6.73541L190.047 6.23894C191.702 6.43622 193.358 6.63888 195.016 6.84694L194.953 7.34304C196.59 7.54846 198.229 7.75914 199.87 7.97511L199.935 7.47938C201.577 7.69548 203.22 7.91687 204.866 8.14356L204.797 8.63888C206.442 8.86544 208.088 9.0973 209.736 9.33448L209.807 8.83958C211.456 9.07691 213.107 9.31956 214.759 9.56755L214.685 10.062C216.32 10.3073 217.956 10.5579 219.594 10.8137L219.671 10.3197C221.306 10.575 222.943 10.8356 224.581 11.1015L224.501 11.595C226.138 11.8607 227.777 12.1316 229.417 12.4078L229.5 11.9147C231.141 12.1911 232.784 12.4727 234.428 12.7596L234.342 13.2521C235.163 13.3955 235.985 13.5402 236.807 13.6862C237.63 13.8322 238.451 13.9793 239.272 14.1276L239.361 13.6355C241.003 13.9322 242.642 14.2333 244.278 14.5389L244.186 15.0304C245.821 15.3358 247.453 15.6456 249.082 15.9598L249.176 15.4689C250.806 15.7833 252.432 16.1021 254.055 16.4252L253.958 16.9156C255.583 17.2393 257.206 17.5674 258.825 17.8998L258.925 17.41C260.562 17.7461 262.196 18.0866 263.825 18.4315L263.722 18.9207C265.351 19.2653 266.976 19.6144 268.598 19.9679L268.705 19.4793C270.327 19.833 271.947 20.191 273.562 20.5533L273.453 21.0412C275.068 21.4033 276.679 21.7697 278.287 22.1404L278.399 21.6532C280.027 22.0287 281.652 22.4086 283.273 22.7928L283.157 23.2793C284.779 23.6637 286.397 24.0525 288.011 24.4456L288.129 23.9598C289.744 24.3531 291.355 24.7508 292.963 25.1527L292.841 25.6378C294.448 26.0394 296.05 26.4454 297.648 26.8556L297.773 26.3713C299.388 26.7859 301 27.2048 302.607 27.628L302.48 28.1115C304.093 28.5362 305.702 28.9651 307.307 29.3984L307.437 28.9157C309.043 29.3492 310.645 29.787 312.242 30.2291L312.109 30.711C313.705 31.1528 315.298 31.5988 316.885 32.049L317.022 31.5679C318.624 32.0222 320.222 32.4808 321.816 32.9435L321.676 33.4237C323.28 33.8892 324.878 34.3591 326.472 34.8331L326.615 34.3539C328.21 34.8282 329.801 35.3068 331.387 35.7896L331.241 36.2679C332.826 36.7504 334.407 37.2371 335.983 37.7279L336.132 37.2505C337.72 37.7454 339.304 38.2444 340.884 38.7476L340.732 39.224C342.323 39.7311 343.91 40.2425 345.492 40.7581L345.647 40.2827C347.23 40.7986 348.808 41.3187 350.381 41.8429L350.223 42.3173C351.795 42.8412 353.362 43.3692 354.924 43.9014L355.085 43.4281C356.66 43.9646 358.23 44.5053 359.795 45.0501L359.63 45.5223C361.208 46.0718 362.781 46.6256 364.349 47.1834L364.516 46.7124C366.085 47.2706 367.649 47.833 369.207 48.3996L369.036 48.8695C370.593 49.4356 372.144 50.0058 373.69 50.5801L373.864 50.1114C375.425 50.6911 376.98 51.2749 378.53 51.8629L378.353 52.3303C379.915 52.9232 381.472 53.5202 383.023 54.1214L383.204 53.6551C384.756 54.2567 386.303 54.8623 387.843 55.472L387.659 55.937C389.199 56.5462 390.733 57.1595 392.261 57.7769L392.448 57.3133C393.994 57.9381 395.535 58.567 397.069 59.2L396.878 59.6622C398.423 60.2995 399.961 60.9408 401.494 61.5862L401.688 61.1254C403.221 61.7713 404.748 62.4212 406.269 63.0752L406.071 63.5345C407.591 64.1879 409.104 64.8453 410.611 65.5067L410.812 65.0489C412.343 65.7212 413.869 66.3977 415.387 67.0781L415.183 67.5344C416.706 68.2172 418.223 68.904 419.734 69.5948L419.942 69.1401C421.453 69.8315 422.957 70.5268 424.455 71.2261L424.243 71.6792C425.741 72.3786 427.232 73.082 428.717 73.7893L428.932 73.3379C430.447 74.0601 431.955 74.7863 433.456 75.5165L433.237 75.9661C434.736 76.6956 436.228 77.4292 437.713 78.1667L437.935 77.7189C439.421 78.457 440.9 79.199 442.37 79.9449L442.144 80.3908C443.627 81.1426 445.102 81.8983 446.569 82.6578L446.799 82.2138C448.287 82.9843 449.767 83.7589 451.24 84.5373L451.006 84.9793C452.477 85.7571 453.94 86.5387 455.395 87.3242L455.632 86.8842C457.089 87.6704 458.537 88.4605 459.977 89.2543L459.735 89.6922C461.201 90.5004 462.659 91.3126 464.108 92.1287L464.353 91.693C465.81 92.5135 467.258 93.3378 468.697 94.166L468.448 94.5994C469.886 95.4268 471.315 96.258 472.735 97.0929L472.989 96.6619C474.421 97.5041 475.845 98.3501 477.259 99.1999L477.002 99.6285C478.439 100.492 479.867 101.359 481.285 102.23L481.547 101.804C482.967 102.676 484.377 103.552 485.777 104.431L485.512 104.855C486.911 105.733 488.3 106.616 489.68 107.502L489.95 107.081C491.364 107.988 492.767 108.9 494.161 109.815L493.886 110.233C495.281 111.15 496.667 112.07 498.041 112.994L498.32 112.579C499.696 113.504 501.062 114.433 502.417 115.365L502.134 115.777C503.508 116.723 504.872 117.673 506.225 118.626L506.513 118.217C507.883 119.183 509.242 120.152 510.59 121.124L510.297 121.53C511.643 122.501 512.978 123.476 514.301 124.455L514.598 124.053C515.935 125.042 517.261 126.035 518.575 127.032L518.273 127.43C519.61 128.444 520.935 129.462 522.247 130.483L522.554 130.088C523.868 131.11 525.169 132.136 526.458 133.166L526.146 133.556C527.441 134.59 528.723 135.628 529.992 136.668L530.309 136.282C531.61 137.349 532.898 138.42 534.173 139.494L533.851 139.876C535.123 140.949 536.382 142.025 537.628 143.105L537.955 142.727C539.208 143.812 540.446 144.901 541.671 145.993L541.338 146.366C542.593 147.486 543.834 148.609 545.06 149.736L545.398 149.367C546.626 150.495 547.839 151.627 549.037 152.762L548.693 153.125C549.895 154.264 551.082 155.406 552.254 156.551L552.604 156.194C553.809 157.371 554.997 158.552 556.169 159.736L555.814 160.088C556.985 161.27 558.139 162.455 559.276 163.643L559.637 163.297C560.788 164.499 561.922 165.704 563.039 166.912L562.672 167.251C563.812 168.484 564.934 169.72 566.039 170.96L566.412 170.627C567.519 171.868 568.607 173.113 569.678 174.36L569.299 174.686C570.385 175.952 571.453 177.221 572.502 178.493L572.888 178.175C573.956 179.469 575.004 180.766 576.033 182.067L575.641 182.377C576.667 183.674 577.674 184.975 578.661 186.277L579.06 185.976C580.076 187.317 581.071 188.66 582.044 190.007L581.639 190.3C582.616 191.651 583.572 193.005 584.506 194.361L584.918 194.077C585.861 195.446 586.782 196.817 587.68 198.191L587.262 198.465C588.181 199.87 589.077 201.278 589.95 202.688L590.375 202.425C591.25 203.838 592.101 205.254 592.928 206.672L592.496 206.924C593.339 208.369 594.157 209.816 594.95 211.265L595.389 211.025C596.192 212.492 596.969 213.961 597.72 215.432L597.275 215.66C598.03 217.137 598.758 218.616 599.46 220.096L599.912 219.882C600.632 221.4 601.324 222.921 601.988 224.442L601.529 224.642C602.191 226.159 602.825 227.677 603.431 229.197L603.895 229.012C604.517 230.572 605.109 232.133 605.671 233.696L605.201 233.865C605.763 235.428 606.295 236.991 606.796 238.556L607.272 238.403C607.782 239.994 608.261 241.585 608.708 243.177L608.226 243.312C608.676 244.914 609.093 246.517 609.478 248.12L609.964 248.003C610.353 249.621 610.708 251.239 611.031 252.857L610.54 252.955C610.865 254.587 611.156 256.22 611.413 257.852L611.906 257.775C612.164 259.415 612.387 261.055 612.575 262.695L612.079 262.752C612.268 264.404 612.422 266.054 612.54 267.704L613.038 267.669C613.157 269.326 613.239 270.982 613.285 272.638L612.785 272.652C612.83 274.307 612.839 275.961 612.811 277.613L613.311 277.622C613.283 279.283 613.218 280.943 613.115 282.601L612.616 282.57C612.513 284.218 612.374 285.863 612.197 287.507L612.694 287.56Z" stroke="#E41E0A" stroke-dasharray="5 5"/>
</svg>
