<svg width="354" height="203" viewBox="0 0 354 203" fill="none" xmlns="http://www.w3.org/2000/svg">
<path d="M342.618 74.492C343.032 75.8906 343.37 77.3094 343.629 78.7477L343.207 78.8238C343.335 79.5342 343.443 80.2495 343.532 80.9694C343.621 81.6894 343.69 82.4096 343.738 83.1298L344.167 83.1009C344.265 84.559 344.282 86.0173 344.22 87.4748L343.791 87.4566C343.73 88.894 343.592 90.3309 343.377 91.766L343.801 91.8296C343.587 93.2619 343.297 94.692 342.935 96.1189L342.518 96.0132C342.166 97.399 341.744 98.7822 341.254 100.162L341.659 100.305C341.177 101.662 340.629 103.015 340.019 104.363L339.628 104.186C339.039 105.485 338.39 106.781 337.683 108.07L338.059 108.277C337.369 109.537 336.623 110.791 335.824 112.039L335.462 111.808C334.692 113.01 333.872 114.207 333.002 115.397L333.349 115.65C332.501 116.811 331.607 117.966 330.667 119.113L330.335 118.842C329.428 119.95 328.478 121.052 327.486 122.147L327.804 122.435C326.836 123.504 325.829 124.566 324.783 125.621L324.478 125.319C323.471 126.335 322.428 127.345 321.35 128.347L321.642 128.661C320.589 129.639 319.503 130.61 318.385 131.574L318.105 131.249C317.017 132.186 315.898 133.117 314.75 134.04L315.018 134.374C313.891 135.28 312.735 136.178 311.55 137.069L311.292 136.725C310.143 137.59 308.966 138.447 307.764 139.296L308.011 139.647C306.835 140.478 305.634 141.301 304.409 142.117L304.171 141.759C302.97 142.559 301.746 143.351 300.499 144.135L300.727 144.498C299.5 145.27 298.251 146.034 296.98 146.79L296.761 146.421C295.525 147.156 294.27 147.884 292.994 148.603L293.205 148.977C291.944 149.689 290.663 150.393 289.363 151.089L289.161 150.711C287.885 151.394 286.59 152.07 285.278 152.738L285.473 153.121C284.186 153.776 282.883 154.423 281.563 155.062L281.376 154.676C280.071 155.307 278.751 155.931 277.414 156.547L277.594 156.937C276.279 157.543 274.948 158.141 273.602 158.732L273.43 158.339C272.106 158.919 270.768 159.493 269.415 160.058L269.581 160.454C268.237 161.015 266.88 161.569 265.509 162.114L265.35 161.716C264.01 162.249 262.657 162.774 261.291 163.292L261.443 163.693C260.084 164.209 258.711 164.716 257.327 165.215L257.181 164.812C255.82 165.303 254.446 165.786 253.061 166.261L253.201 166.668C251.828 167.139 250.443 167.602 249.048 168.058L248.915 167.649C247.534 168.1 246.143 168.543 244.741 168.977L244.868 169.387C243.484 169.816 242.089 170.238 240.684 170.651L240.563 170.239C239.166 170.65 237.76 171.053 236.344 171.448L236.459 171.861C235.064 172.25 233.66 172.631 232.247 173.004L232.138 172.589C230.73 172.961 229.314 173.324 227.888 173.68L227.992 174.096C226.586 174.447 225.171 174.79 223.747 175.124L223.649 174.706C222.233 175.039 220.809 175.364 219.377 175.681L219.469 176.1C218.052 176.414 216.627 176.719 215.194 177.016L215.107 176.596C213.683 176.892 212.252 177.179 210.813 177.458L210.895 177.879C209.468 178.156 208.035 178.425 206.594 178.686L206.518 178.263C205.087 178.522 203.65 178.772 202.206 179.015L202.277 179.438C200.843 179.679 199.402 179.911 197.955 180.135L197.889 179.711C196.453 179.934 195.01 180.148 193.561 180.354L193.622 180.779C192.181 180.984 190.735 181.181 189.283 181.369L189.227 180.944C188.502 181.038 187.776 181.13 187.048 181.219C186.32 181.309 185.593 181.397 184.866 181.482L184.916 181.908C183.462 182.079 182.011 182.239 180.564 182.391L180.519 181.964C179.064 182.116 177.613 182.259 176.165 182.393L176.204 182.82C174.746 182.954 173.292 183.079 171.842 183.194L171.808 182.766C170.349 182.882 168.894 182.989 167.443 183.086L167.472 183.514C166.011 183.612 164.555 183.7 163.104 183.778L163.081 183.349C161.618 183.428 160.16 183.498 158.707 183.557L158.724 183.986C157.262 184.046 155.806 184.096 154.354 184.137L154.342 183.708C152.876 183.749 151.416 183.78 149.961 183.801L149.967 184.231C148.506 184.252 147.05 184.264 145.6 184.265L145.599 183.836C144.131 183.838 142.668 183.83 141.213 183.812L141.207 184.241C139.746 184.223 138.291 184.195 136.844 184.156L136.855 183.727C135.386 183.689 133.923 183.64 132.469 183.581L132.452 184.01C130.988 183.95 129.533 183.881 128.086 183.801L128.109 183.372C126.644 183.292 125.187 183.201 123.738 183.099L123.708 183.528C122.244 183.425 120.788 183.312 119.342 183.189L119.378 182.761C117.919 182.637 116.47 182.502 115.029 182.357L114.986 182.784C113.522 182.636 112.068 182.477 110.623 182.308L110.673 181.882C109.223 181.712 107.782 181.531 106.353 181.34L106.296 181.765C104.833 181.569 103.382 181.362 101.942 181.145L102.007 180.72C100.557 180.501 99.1199 180.27 97.6947 180.029L97.623 180.452C96.1742 180.206 94.738 179.949 93.3148 179.681L93.3943 179.259C91.9481 178.987 90.5154 178.703 89.0967 178.407L89.0092 178.828C87.5732 178.529 86.1515 178.218 84.7446 177.896L84.8404 177.477C83.4051 177.148 81.9852 176.807 80.5811 176.455L80.4765 176.871C79.0466 176.512 77.6331 176.14 76.2366 175.756L76.3503 175.342C74.938 174.954 73.5432 174.554 72.1663 174.142L72.0431 174.553C70.6268 174.128 69.2293 173.691 67.8513 173.241L67.9846 172.833C66.5842 172.375 65.2041 171.905 63.8449 171.422L63.701 171.826C62.3142 171.333 60.949 170.826 59.606 170.306L59.761 169.906C58.388 169.374 57.0385 168.829 55.7131 168.27L55.5463 168.666C54.1811 168.09 52.8412 167.5 51.5274 166.896L51.7068 166.506C50.368 165.89 49.0567 165.259 47.7735 164.614L47.5807 164.998C46.2618 164.335 44.9725 163.657 43.7135 162.964L43.9205 162.588C42.6311 161.878 41.3739 161.153 40.1499 160.412L39.9276 160.779C38.6567 160.01 37.4212 159.225 36.2221 158.423L36.4607 158.066C35.2327 157.245 34.0434 156.407 32.8939 155.553L32.6378 155.898C31.4474 155.013 30.2992 154.11 29.1943 153.19L29.469 152.861C28.336 151.917 27.2493 150.956 26.2101 149.977L25.9158 150.29C24.8368 149.273 23.8085 148.238 22.8323 147.184L23.1473 146.892C22.1478 145.813 21.2037 144.714 20.3165 143.597L19.9803 143.864C19.0601 142.705 18.2003 141.526 17.4028 140.327L17.7602 140.089C16.9494 138.87 16.2038 137.631 15.5253 136.372L15.1474 136.576C14.4488 135.28 13.8202 133.963 13.2639 132.626L13.6602 132.461C13.1028 131.121 12.6187 129.761 12.21 128.382L11.7984 128.504C11.384 127.105 11.0462 125.686 10.7871 124.248L11.2096 124.172C11.0816 123.461 10.9731 122.746 10.8842 122.026C10.7953 121.306 10.7267 120.586 10.6781 119.866L10.2498 119.895C10.1514 118.437 10.1341 116.978 10.196 115.521L10.6249 115.539C10.6859 114.102 10.8248 112.665 11.0398 111.23L10.6152 111.166C10.8298 109.734 11.1192 108.304 11.4818 106.877L11.8979 106.983C12.2501 105.597 12.672 104.214 13.162 102.834L12.7575 102.69C13.2396 101.333 13.7868 99.9803 14.3977 98.6325L14.7887 98.8097C15.3776 97.5103 16.0262 96.2152 16.7333 94.9253L16.3569 94.7189C17.0475 93.459 17.7932 92.2046 18.5926 90.9564L18.9541 91.1879C19.7241 89.9857 20.5444 88.789 21.4141 87.5986L21.0674 87.3454C21.9155 86.1845 22.8098 85.0298 23.7494 83.8822L24.0815 84.1542C24.9888 83.046 25.9387 81.944 26.9302 80.8491L26.612 80.5609C27.5801 79.4917 28.5876 78.4293 29.6334 77.3743L29.9383 77.6765C30.9455 76.6605 31.9886 75.6512 33.0667 74.6492L32.7745 74.3347C33.8272 73.3564 34.913 72.3852 36.0311 71.4216L36.3114 71.7468C37.3992 70.8093 38.518 69.8789 39.6668 68.956L39.398 68.6213C40.5254 67.7158 41.6816 66.8176 42.8659 65.9272L43.1239 66.2703C44.2736 65.4059 45.45 64.5488 46.6525 63.6994L46.4049 63.3488C47.5811 62.5179 48.7822 61.6945 50.0075 60.8789L50.2453 61.2362C51.4462 60.4368 52.6705 59.6449 53.9177 58.8607L53.6892 58.4973C54.9164 57.7257 56.1656 56.9617 57.4362 56.2057L57.6557 56.5746C58.8909 55.8396 60.1466 55.1121 61.4221 54.3924L61.2111 54.0185C62.4725 53.3067 63.7533 52.6027 65.0529 51.9065L65.2556 52.2849C66.5317 51.6014 67.8261 50.9255 69.1384 50.2575L68.9437 49.8749C70.2301 49.2202 71.5335 48.573 72.8537 47.9337L73.0408 48.3201C74.345 47.6885 75.6657 47.0647 77.0022 46.4487L76.8226 46.0589C78.1378 45.4528 79.4684 44.8544 80.8141 44.264L80.9866 44.6571C82.3103 44.0763 83.6485 43.5031 85.001 42.9379L84.8355 42.5419C86.179 41.9805 87.5364 41.4269 88.9074 40.8813L89.0661 41.2802C90.4062 40.747 91.7593 40.2215 93.1251 39.7039L92.973 39.3024C94.3327 38.7871 95.705 38.2797 97.0895 37.7803L97.2351 38.1841C98.5967 37.693 99.9701 37.2096 101.355 36.7342L101.216 36.3282C102.589 35.857 103.973 35.3936 105.368 34.9382L105.502 35.3463C106.882 34.8958 108.273 34.4531 109.675 34.0186L109.548 33.6085C110.933 33.1793 112.328 32.7579 113.732 32.3446L113.854 32.7564C115.25 32.3455 116.656 31.9426 118.072 31.5477L117.957 31.1342C119.352 30.7453 120.756 30.3642 122.169 29.9912L122.279 30.4063C123.686 30.0348 125.103 29.6713 126.528 29.316L126.424 28.8995C127.831 28.5488 129.246 28.206 130.669 27.8714L130.767 28.2893C132.183 27.9563 133.608 27.6314 135.04 27.3147L134.947 26.8955C136.365 26.5821 137.79 26.2766 139.222 25.9793L139.31 26.3996C140.733 26.1042 142.165 25.8169 143.603 25.5378L143.521 25.1163C144.948 24.8395 146.382 24.5707 147.822 24.3102L147.899 24.7326C149.329 24.4739 150.767 24.2234 152.21 23.9811L152.139 23.5577C153.574 23.317 155.014 23.0845 156.461 22.8603L156.527 23.2845C157.964 23.0619 159.406 22.8475 160.855 22.6414L160.795 22.2164C162.235 22.0115 163.682 21.8148 165.134 21.6265L165.189 22.0522C165.914 21.9581 166.641 21.8662 167.369 21.7763C168.097 21.6865 168.824 21.599 169.55 21.5139L169.5 21.0876C170.954 20.9172 172.405 20.7563 173.852 20.6048L173.897 21.0317C175.352 20.8794 176.804 20.7366 178.251 20.6032L178.212 20.1757C179.67 20.0414 181.124 19.9166 182.574 19.8013L182.608 20.2293C184.067 20.1132 185.522 20.0068 186.973 19.9099L186.944 19.4816C188.405 19.384 189.861 19.2961 191.312 19.2177L191.336 19.6464C192.799 19.5674 194.257 19.4981 195.71 19.4385L195.692 19.0096C197.154 18.9496 198.611 18.8994 200.062 18.8588L200.074 19.2879C201.54 19.2469 203.001 19.2158 204.455 19.1944L204.449 18.7652C205.911 18.7437 207.367 18.7321 208.816 18.7303L208.817 19.1596C210.286 19.1577 211.748 19.1659 213.204 19.184L213.209 18.7547C214.67 18.7729 216.125 18.8011 217.573 18.8392L217.561 19.2684C219.031 19.3071 220.493 19.356 221.947 19.415L221.965 18.986C223.428 19.0454 224.883 19.115 226.331 19.1947L226.307 19.6233C227.773 19.704 229.23 19.7951 230.678 19.8964L230.708 19.4682C232.173 19.5706 233.628 19.6835 235.074 19.8068L235.038 20.2345C236.497 20.3589 237.947 20.4938 239.387 20.6391L239.43 20.212C240.894 20.3598 242.349 20.5184 243.793 20.6876L243.743 21.114C245.194 21.2839 246.634 21.4647 248.064 21.6561L248.12 21.2306C249.583 21.4264 251.034 21.6333 252.474 21.8512L252.41 22.2757C253.859 22.495 255.296 22.7256 256.722 22.9671L256.793 22.5438C258.242 22.7894 259.678 23.0463 261.102 23.3144L261.022 23.7362C262.468 24.0087 263.901 24.2927 265.32 24.5882L265.407 24.168C266.843 24.4671 268.265 24.7779 269.672 25.1002L269.576 25.5187C271.011 25.8475 272.431 26.1884 273.835 26.5411L273.94 26.1248C275.37 26.4841 276.783 26.8556 278.18 27.2393L278.066 27.6532C279.478 28.0412 280.873 28.4416 282.25 28.8542L282.373 28.443C283.79 28.8674 285.187 29.3047 286.565 29.7548L286.432 30.1629C287.832 30.6202 289.212 31.0907 290.571 31.5742L290.715 31.1697C292.102 31.6629 293.467 32.1696 294.81 32.6895L294.655 33.0899C296.028 33.6214 297.378 34.1667 298.703 34.7256L298.87 34.33C300.235 34.9057 301.575 35.4959 302.889 36.1002L302.71 36.4902C304.048 37.106 305.36 37.7365 306.643 38.3813L306.836 37.9978C308.155 38.6606 309.444 39.3386 310.703 40.0316L310.496 40.4077C311.785 41.1175 313.042 41.8429 314.266 42.5835L314.489 42.2162C315.76 42.9852 316.995 43.7708 318.194 44.5726L317.956 44.9294C319.184 45.7505 320.373 46.5884 321.522 47.4427L321.779 47.0982C322.969 47.9829 324.117 48.8854 325.222 49.8053L324.947 50.1352C326.08 51.0785 327.167 52.0398 328.206 53.0187L328.501 52.7062C329.58 53.7226 330.608 54.7581 331.584 55.8122L331.269 56.1039C332.269 57.1832 333.213 58.2817 334.1 59.3989L334.436 59.132C335.356 60.2908 336.216 61.4701 337.014 62.6692L336.656 62.9069C337.467 64.1259 338.213 65.3651 338.891 66.6236L339.269 66.4199C339.968 67.7158 340.596 69.0326 341.152 70.3697L340.756 70.5347C341.314 71.8744 341.798 73.2344 342.206 74.6139L342.618 74.492Z" stroke="#E41E0A" stroke-width="0.858577" stroke-dasharray="4.29 4.29"/>
</svg>
