<svg width="302" height="206" viewBox="0 0 302 206" fill="none" xmlns="http://www.w3.org/2000/svg">
<path d="M290.269 115.487C290.253 116.906 290.18 118.327 290.046 119.748L289.619 119.708C289.553 120.41 289.472 121.113 289.377 121.816C289.281 122.519 289.171 123.217 289.047 123.912L289.47 123.988C289.219 125.393 288.91 126.781 288.546 128.153L288.131 128.042C287.769 129.407 287.351 130.754 286.878 132.084L287.283 132.227C286.807 133.566 286.277 134.886 285.693 136.187L285.302 136.011C284.727 137.294 284.1 138.559 283.422 139.805L283.799 140.01C283.123 141.253 282.398 142.477 281.624 143.682L281.263 143.45C280.505 144.629 279.7 145.791 278.849 146.933L279.193 147.19C278.351 148.322 277.464 149.435 276.534 150.528L276.207 150.25C275.299 151.318 274.35 152.368 273.36 153.398L273.67 153.695C272.693 154.713 271.678 155.711 270.625 156.691L270.333 156.377C269.306 157.332 268.243 158.27 267.145 159.189L267.42 159.518C266.34 160.422 265.227 161.308 264.081 162.175L263.822 161.833C262.706 162.678 261.558 163.506 260.38 164.316L260.624 164.67C259.464 165.467 258.275 166.248 257.058 167.01L256.83 166.646C255.641 167.391 254.425 168.119 253.183 168.83L253.396 169.203C252.171 169.904 250.921 170.587 249.647 171.254L249.448 170.873C248.201 171.526 246.93 172.162 245.636 172.781L245.821 173.169C244.551 173.776 243.259 174.368 241.946 174.943L241.774 174.55C240.487 175.113 239.181 175.661 237.854 176.192L238.014 176.591C236.703 177.116 235.373 177.625 234.025 178.118L233.878 177.715C232.553 178.199 231.21 178.668 229.85 179.121L229.986 179.529C228.648 179.974 227.293 180.405 225.922 180.82L225.798 180.409C224.451 180.816 223.089 181.209 221.712 181.586L221.825 182C220.461 182.374 219.082 182.732 217.689 183.076L217.586 182.659C216.215 182.997 214.83 183.32 213.433 183.628L213.525 184.047C212.147 184.351 210.757 184.64 209.354 184.914L209.272 184.492C207.887 184.763 206.489 185.019 205.081 185.261L205.153 185.684C203.756 185.924 202.347 186.149 200.928 186.36L200.865 185.935C199.472 186.142 198.069 186.334 196.655 186.512L196.709 186.938C195.304 187.115 193.89 187.278 192.466 187.427L192.421 187C191.014 187.146 189.597 187.279 188.172 187.398L188.208 187.826C186.8 187.943 185.384 188.046 183.959 188.135L183.932 187.707C182.521 187.795 181.101 187.87 179.674 187.93L179.692 188.359C178.276 188.419 176.853 188.466 175.423 188.498L175.413 188.069C174.001 188.101 172.583 188.119 171.158 188.124L171.16 188.553C169.74 188.558 168.314 188.549 166.882 188.526L166.889 188.097C165.477 188.075 164.059 188.039 162.635 187.989L162.62 188.418C161.204 188.369 159.782 188.306 158.355 188.23L158.378 187.801C156.963 187.726 155.543 187.637 154.119 187.534L154.088 187.962C152.677 187.861 151.261 187.746 149.841 187.617L149.879 187.19C148.467 187.062 147.052 186.921 145.632 186.767L145.586 187.194C144.177 187.041 142.766 186.874 141.35 186.695L141.404 186.269C140.698 186.179 139.991 186.086 139.283 185.99C138.575 185.894 137.868 185.795 137.164 185.692L137.102 186.117C135.69 185.912 134.285 185.695 132.887 185.467L132.957 185.043C131.547 184.813 130.145 184.57 128.751 184.316L128.674 184.739C127.271 184.483 125.876 184.216 124.489 183.937L124.573 183.516C123.173 183.234 121.781 182.941 120.397 182.636L120.305 183.055C118.909 182.748 117.522 182.428 116.144 182.098L116.244 181.68C114.859 181.348 113.483 181.004 112.116 180.648L112.008 181.064C110.622 180.703 109.246 180.331 107.879 179.948L107.995 179.534C106.623 179.149 105.261 178.753 103.909 178.345L103.785 178.756C102.416 178.343 101.057 177.918 99.7086 177.482L99.8407 177.073C98.4815 176.634 97.1332 176.183 95.7963 175.721L95.656 176.126C94.3072 175.66 92.9699 175.182 91.6444 174.693L91.793 174.291C90.4512 173.796 89.1215 173.289 87.8044 172.772L87.6474 173.172C86.315 172.648 84.9954 172.114 83.6889 171.568L83.8544 171.172C82.54 170.623 81.2391 170.062 79.9518 169.491L79.7777 169.884C78.4662 169.302 77.1689 168.709 75.8862 168.104L76.0692 167.716C74.7761 167.107 73.498 166.487 72.2352 165.856L72.0434 166.24C70.765 165.601 69.5023 164.951 68.2557 164.291L68.4567 163.912C67.192 163.242 65.944 162.56 64.7131 161.869L64.5028 162.243C63.2521 161.54 62.019 160.826 60.8039 160.102L61.0237 159.733C59.7972 159.002 58.5892 158.26 57.4001 157.507L57.1705 157.87C55.9605 157.104 54.77 156.328 53.5996 155.541L53.8391 155.184C52.6495 154.385 51.4806 153.574 50.3332 152.753L50.0834 153.102C48.916 152.267 47.7706 151.422 46.6477 150.566L46.9079 150.224C45.7716 149.358 44.6584 148.481 43.5691 147.595L43.2982 147.928C42.1865 147.023 41.0995 146.108 40.0378 145.183L40.3198 144.859C39.2383 143.917 38.1833 142.965 37.1553 142.002L36.862 142.316C35.8121 141.333 34.7903 140.341 33.7972 139.338L34.1022 139.036C33.0949 138.02 32.1174 136.993 31.1704 135.958L30.8536 136.247C29.8845 135.187 28.9472 134.118 28.0424 133.04L28.3713 132.764C27.4527 131.669 26.5679 130.565 25.7178 129.452L25.3767 129.713C24.5042 128.571 23.6678 127.42 22.8685 126.26L23.2219 126.017C22.4092 124.838 21.6352 123.65 20.9007 122.455L20.535 122.68C19.782 121.455 19.0702 120.221 18.4007 118.98L18.7785 118.776C18.1003 117.519 17.4658 116.254 16.8761 114.982L16.4866 115.163C15.8826 113.861 15.3251 112.551 14.8152 111.235L15.2155 111.08C14.7009 109.752 14.2353 108.418 13.8198 107.078L13.4098 107.206C12.9856 105.838 12.6133 104.465 12.2939 103.087L12.7121 102.99C12.3918 101.608 12.1254 100.222 11.9139 98.8317L11.4895 98.8963C11.2749 97.4865 11.1165 96.0727 11.0155 94.6562L11.4437 94.6256C11.3433 93.2182 11.3 91.8082 11.3151 90.3964L10.8859 90.3918C10.9011 88.9732 10.9747 87.5527 11.1082 86.1315L11.5356 86.1717C11.6015 85.4691 11.6822 84.7663 11.7778 84.0635C11.8734 83.3606 11.9833 82.6618 12.1074 81.9671L11.6848 81.8916C11.9357 80.4864 12.2441 79.0979 12.6083 77.7267L13.0232 77.8369C13.3856 76.4724 13.8039 75.1251 14.2765 73.7957L13.872 73.6519C14.3476 72.3137 14.8779 70.9937 15.4611 69.6923L15.8529 69.8679C16.4278 68.5849 17.0549 67.3201 17.7325 66.074L17.3554 65.8689C18.0311 64.6263 18.7567 63.4023 19.5307 62.1977L19.8919 62.4298C20.65 61.2499 21.455 60.0884 22.3055 58.9459L21.9612 58.6896C22.804 57.5577 23.691 56.4446 24.6209 55.3508L24.9479 55.6289C25.8558 54.5611 26.805 53.5117 27.7944 52.4812L27.4847 52.1839C28.4613 51.1666 29.4767 50.1679 30.5295 49.1882L30.8219 49.5025C31.8489 48.5469 32.912 47.6093 34.01 46.6903L33.7344 46.3611C34.8143 45.4572 35.9277 44.5713 37.0735 43.7038L37.3327 44.0461C38.449 43.2009 39.5965 42.3732 40.7741 41.5633L40.5309 41.2096C41.6908 40.4119 42.8797 39.6317 44.0966 38.8692L44.3245 39.233C45.5137 38.4879 46.7298 37.7598 47.972 37.0491L47.7588 36.6764C48.9835 35.9758 50.2333 35.292 51.5074 34.6255L51.7064 35.0059C52.954 34.3533 54.225 33.7172 55.5189 33.098L55.3336 32.7107C56.6037 32.1029 57.8956 31.5112 59.2085 30.9362L59.3808 31.3294C60.6672 30.766 61.974 30.2184 63.3005 29.6872L63.1408 29.2886C64.4515 28.7637 65.7812 28.2545 67.1293 27.7615L67.2767 28.1647C68.6017 27.6801 69.9445 27.2111 71.3046 26.7581L71.1689 26.3508C72.507 25.905 73.8616 25.4746 75.2322 25.0598L75.3565 25.4707C76.7034 25.063 78.0657 24.6705 79.4429 24.2933L79.3296 23.8793C80.694 23.5056 82.073 23.147 83.466 22.8037L83.5687 23.2205C84.9396 22.8826 86.3242 22.5596 87.7218 22.2516L87.6295 21.8323C89.0072 21.5287 90.3976 21.2398 91.8001 20.9656L91.8824 21.3869C93.2678 21.1161 94.6651 20.8598 96.0738 20.6182L96.0013 20.1951C97.3987 19.9555 98.8073 19.7303 100.227 19.5198L100.29 19.9444C101.683 19.7378 103.086 19.5453 104.499 19.3672L104.445 18.9413C105.85 18.7642 107.265 18.6013 108.689 18.4528L108.733 18.8797C110.141 18.7329 111.557 18.6001 112.982 18.4815L112.947 18.0537C114.355 17.9366 115.771 17.8333 117.195 17.7441L117.222 18.1726C118.634 18.0841 120.054 18.0095 121.481 17.9489L121.463 17.52C122.879 17.4599 124.302 17.4135 125.732 17.3811L125.741 17.8103C127.153 17.7783 128.572 17.7598 129.996 17.7552L129.995 17.3259C131.415 17.3212 132.84 17.3302 134.272 17.353L134.265 17.7822C135.678 17.8047 137.096 17.8406 138.519 17.8901L138.534 17.461C139.951 17.5103 141.372 17.573 142.799 17.6493L142.776 18.078C144.191 18.1536 145.611 18.2427 147.036 18.3453L147.067 17.9171C148.478 18.0188 149.894 18.1337 151.314 18.262L151.275 18.6896C152.687 18.8172 154.103 18.958 155.523 19.1123L155.569 18.6855C156.977 18.8386 158.389 19.0048 159.804 19.1844L159.75 19.6103C160.457 19.6999 161.164 19.7928 161.872 19.8891C162.58 19.9854 163.286 20.0847 163.991 20.187L164.053 19.7621C165.464 19.967 166.869 20.1839 168.267 20.4125L168.198 20.8361C169.607 21.0665 171.009 21.3089 172.404 21.563L172.481 21.1406C173.884 21.3962 175.279 21.6635 176.666 21.9425L176.581 22.3634C177.982 22.6449 179.374 22.9383 180.758 23.2433L180.85 22.824C182.245 23.1316 183.632 23.4508 185.01 23.7816L184.91 24.199C186.295 24.5315 187.671 24.8756 189.038 25.2311L189.146 24.8156C190.532 25.176 191.909 25.5482 193.276 25.9318L193.16 26.3451C194.531 26.7301 195.893 27.1266 197.245 27.5345L197.369 27.1235C198.739 27.5367 200.098 27.9614 201.446 28.3974L201.314 28.8059C202.673 29.2454 204.021 29.6965 205.358 30.1587L205.499 29.753C206.847 30.2193 208.185 30.6971 209.51 31.1859L209.362 31.5887C210.703 32.0836 212.033 32.5898 213.35 33.1072L213.507 32.7077C214.84 33.231 216.159 33.7658 217.466 34.3116L217.3 34.7077C218.615 35.2567 219.916 35.817 221.203 36.3881L221.377 35.9957C222.688 36.5776 223.986 37.1708 225.268 37.7749L225.085 38.1633C226.378 38.7723 227.657 39.3924 228.919 40.0234L229.111 39.6394C230.39 40.2781 231.652 40.9279 232.899 41.5884L232.698 41.9677C233.963 42.6378 235.211 43.3189 236.441 44.0106L236.652 43.6363C237.902 44.3392 239.136 45.053 240.351 45.7775L240.131 46.1462C241.357 46.8775 242.565 47.6196 243.754 48.3721L243.984 48.0093C245.194 48.7751 246.385 49.5516 247.555 50.3386L247.315 50.6948C248.505 51.4947 249.674 52.3052 250.821 53.126L251.071 52.7769C252.239 53.612 253.384 54.4577 254.507 55.3136L254.247 55.6551C255.383 56.5213 256.496 57.3979 257.585 58.2845L257.856 57.9515C258.968 58.8563 260.055 59.7714 261.117 60.6964L260.835 61.0201C261.916 61.9623 262.971 62.9148 263.999 63.8768L264.293 63.5634C265.342 64.546 266.364 65.5387 267.357 66.5409L267.052 66.8431C268.06 67.8598 269.037 68.8862 269.984 69.9218L270.301 69.6321C271.27 70.6918 272.207 71.7612 273.112 72.8397L272.783 73.1156C273.702 74.2105 274.587 75.3146 275.437 76.4273L275.778 76.1666C276.65 77.3086 277.487 78.4596 278.286 79.6191L277.933 79.8628C278.745 81.0417 279.519 82.2291 280.254 83.4242L280.62 83.1995C281.373 84.4248 282.084 85.6584 282.754 86.8995L282.376 87.1033C283.054 88.3606 283.689 89.6254 284.278 90.8968L284.668 90.7162C285.272 92.0185 285.83 93.3281 286.339 94.644L285.939 94.7991C286.454 96.1272 286.919 97.4614 287.335 98.8009L287.745 98.6738C288.169 100.041 288.541 101.415 288.861 102.793L288.442 102.89C288.763 104.271 289.029 105.658 289.241 107.048L289.665 106.983C289.88 108.393 290.038 109.807 290.139 111.223L289.711 111.254C289.811 112.661 289.855 114.071 289.839 115.483L290.269 115.487Z" stroke="#E41E0A" stroke-width="0.858577" stroke-dasharray="4.29 4.29"/>
</svg>
