<svg width="493" height="408" viewBox="0 0 493 408" fill="none" xmlns="http://www.w3.org/2000/svg">
<path d="M463.57 161.726C463.924 163.343 464.248 164.971 464.543 166.609L464.051 166.698C464.198 167.514 464.338 168.333 464.47 169.154C464.602 169.976 464.726 170.797 464.842 171.618L465.338 171.548C465.571 173.197 465.773 174.844 465.944 176.491L465.447 176.542C465.618 178.193 465.758 179.843 465.867 181.491L466.366 181.458C466.475 183.117 466.554 184.774 466.601 186.428L466.101 186.443C466.148 188.101 466.165 189.758 466.15 191.412L466.65 191.416C466.635 193.078 466.589 194.737 466.513 196.394L466.013 196.371C465.937 198.026 465.83 199.677 465.693 201.326L466.191 201.367C466.053 203.023 465.885 204.675 465.687 206.323L465.19 206.263C464.993 207.907 464.765 209.546 464.508 211.181L465.002 211.259C464.744 212.899 464.457 214.534 464.14 216.165L463.649 216.07C463.334 217.694 462.99 219.314 462.617 220.928L463.104 221.041C462.73 222.656 462.329 224.267 461.899 225.872L461.416 225.743C460.988 227.34 460.532 228.932 460.049 230.518L460.527 230.664C460.043 232.25 459.532 233.83 458.994 235.405L458.521 235.243C457.987 236.806 457.426 238.362 456.838 239.913L457.306 240.09C456.718 241.642 456.103 243.187 455.463 244.725L455.001 244.533C454.367 246.056 453.707 247.572 453.022 249.082L453.478 249.288C452.792 250.8 452.081 252.304 451.345 253.801L450.896 253.58C450.169 255.06 449.417 256.532 448.641 257.997L449.083 258.231C448.306 259.696 447.506 261.154 446.683 262.603L446.248 262.356C445.433 263.791 444.594 265.218 443.732 266.637L444.16 266.896C443.3 268.312 442.418 269.719 441.513 271.118L441.093 270.847C440.196 272.234 439.277 273.613 438.336 274.983L438.748 275.266C437.812 276.63 436.854 277.986 435.875 279.332L435.47 279.038C434.498 280.375 433.504 281.704 432.49 283.023L432.886 283.328C431.878 284.639 430.851 285.94 429.803 287.232L429.415 286.917C428.372 288.203 427.31 289.48 426.228 290.747L426.608 291.071C425.535 292.327 424.443 293.574 423.333 294.811L422.961 294.476C421.854 295.709 420.729 296.931 419.585 298.143L419.949 298.486C418.816 299.688 417.665 300.879 416.496 302.06L416.14 301.709C414.976 302.885 413.794 304.052 412.594 305.208L412.941 305.568C411.752 306.715 410.545 307.851 409.321 308.977L408.983 308.609C407.765 309.73 406.531 310.84 405.28 311.94L405.61 312.316C404.368 313.407 403.111 314.488 401.838 315.558L401.516 315.175C400.249 316.24 398.966 317.294 397.668 318.337L397.981 318.726C396.692 319.762 395.388 320.787 394.069 321.8L393.765 321.404C392.453 322.412 391.126 323.41 389.784 324.396L390.08 324.799C388.748 325.778 387.401 326.746 386.04 327.703L385.753 327.294C384.399 328.246 383.031 329.187 381.649 330.117L381.928 330.532C380.556 331.454 379.171 332.366 377.772 333.266L377.502 332.845C376.109 333.741 374.704 334.626 373.285 335.499L373.547 335.924C372.139 336.791 370.718 337.645 369.285 338.488L369.032 338.057C367.604 338.897 366.163 339.725 364.711 340.541L364.956 340.977C363.515 341.786 362.062 342.584 360.597 343.37L360.361 342.929C358.9 343.713 357.428 344.484 355.944 345.244L356.172 345.689C354.701 346.442 353.22 347.182 351.727 347.911L351.508 347.462C350.018 348.189 348.517 348.904 347.005 349.606L347.215 350.06C345.717 350.756 344.209 351.44 342.69 352.112L342.488 351.655C340.972 352.325 339.447 352.983 337.911 353.628L338.104 354.089C336.58 354.729 335.046 355.358 333.502 355.973L333.317 355.509C331.779 356.122 330.231 356.723 328.674 357.311L328.851 357.779C327.303 358.363 325.745 358.935 324.178 359.495L324.01 359.024C322.452 359.58 320.885 360.124 319.309 360.655L319.469 361.129C317.899 361.658 316.32 362.175 314.732 362.678L314.581 362.201C313.005 362.701 311.422 363.188 309.829 363.662L309.972 364.141C308.382 364.615 306.784 365.075 305.177 365.523L305.043 365.041C303.453 365.484 301.854 365.914 300.248 366.332L300.374 366.816C298.766 367.234 297.15 367.638 295.526 368.03L295.409 367.544C293.806 367.931 292.196 368.305 290.578 368.665L290.687 369.153C289.066 369.515 287.439 369.863 285.804 370.198L285.703 369.708C284.086 370.04 282.462 370.358 280.831 370.664L280.923 371.155C279.293 371.46 277.657 371.752 276.014 372.031L275.93 371.538C275.11 371.677 274.288 371.813 273.465 371.945C272.642 372.077 271.819 372.206 270.996 372.331L271.072 372.826C269.424 373.076 267.779 373.312 266.135 373.533L266.069 373.038C264.424 373.259 262.782 373.466 261.143 373.658L261.201 374.155C259.543 374.349 257.888 374.529 256.236 374.694L256.187 374.196C254.538 374.361 252.891 374.511 251.248 374.646L251.289 375.144C249.624 375.281 247.963 375.404 246.305 375.511L246.273 375.012C244.616 375.119 242.964 375.212 241.315 375.29L241.338 375.789C239.673 375.868 238.01 375.932 236.352 375.981L236.337 375.481C234.677 375.53 233.02 375.564 231.367 375.584L231.373 376.084C229.708 376.103 228.047 376.108 226.39 376.098L226.393 375.598C224.73 375.588 223.071 375.563 221.417 375.523L221.405 376.023C219.742 375.983 218.084 375.928 216.43 375.858L216.451 375.359C214.788 375.288 213.13 375.203 211.478 375.103L211.447 375.602C209.788 375.502 208.134 375.386 206.486 375.256L206.526 374.757C204.865 374.626 203.21 374.48 201.561 374.319L201.512 374.816C199.859 374.655 198.212 374.478 196.572 374.287L196.629 373.79C194.973 373.597 193.324 373.388 191.681 373.165L191.614 373.66C189.968 373.437 188.328 373.198 186.696 372.944L186.773 372.45C185.126 372.194 183.486 371.923 181.853 371.637L181.767 372.129C180.13 371.842 178.5 371.54 176.878 371.224L176.974 370.733C175.339 370.413 173.711 370.079 172.092 369.729L171.987 370.218C170.361 369.867 168.744 369.501 167.136 369.12L167.251 368.633C165.63 368.249 164.018 367.85 162.415 367.436L162.29 367.92C160.68 367.504 159.078 367.073 157.486 366.626L157.621 366.145C156.018 365.696 154.424 365.231 152.839 364.751L152.695 365.23C151.102 364.748 149.52 364.251 147.948 363.738L148.103 363.263C146.52 362.747 144.947 362.216 143.385 361.67L143.22 362.142C141.649 361.593 140.09 361.029 138.541 360.45L138.716 359.981C137.157 359.398 135.608 358.799 134.071 358.185L133.886 358.65C132.341 358.033 130.808 357.401 129.287 356.754L129.483 356.294C127.951 355.642 126.43 354.974 124.922 354.292L124.716 354.747C123.201 354.062 121.699 353.361 120.21 352.645L120.427 352.194C118.925 351.473 117.437 350.736 115.962 349.983L115.735 350.429C114.255 349.674 112.788 348.903 111.335 348.118L111.573 347.678C110.107 346.885 108.655 346.077 107.218 345.254L106.97 345.688C105.527 344.862 104.1 344.021 102.688 343.164L102.947 342.737C101.522 341.873 100.113 340.994 98.7198 340.1L98.4497 340.521C97.0497 339.622 95.6657 338.709 94.2982 337.78L94.5791 337.366C93.2022 336.431 91.8421 335.481 90.4991 334.516L90.2073 334.922C88.8553 333.951 87.5206 332.964 86.2036 331.963L86.5062 331.565C85.1832 330.559 83.878 329.537 82.5913 328.501L82.2777 328.891C80.98 327.846 79.7008 326.786 78.4407 325.711L78.7652 325.331C77.5023 324.254 76.2585 323.161 75.0345 322.055L74.6991 322.426C73.4625 321.307 72.2457 320.174 71.0494 319.026L71.3956 318.666C70.1995 317.518 69.0239 316.356 67.8692 315.179L67.5123 315.529C66.3441 314.338 65.1972 313.133 64.0721 311.913L64.4397 311.574C63.3159 310.355 62.214 309.122 61.1344 307.875L60.7563 308.202C59.6659 306.942 58.598 305.667 57.5533 304.379L57.9417 304.064C56.8976 302.776 55.8766 301.473 54.8793 300.157L54.4807 300.459C53.4761 299.132 52.4953 297.792 51.539 296.437L51.9474 296.149C50.991 294.794 50.0591 293.426 49.1522 292.043L48.7341 292.318C47.8224 290.928 46.9359 289.525 46.075 288.108L46.5023 287.848C45.6417 286.432 44.8069 285.001 43.9982 283.558L43.562 283.802C42.75 282.353 41.9644 280.89 41.2056 279.414L41.6503 279.185C40.8933 277.713 40.1632 276.228 39.4604 274.729L39.0077 274.942C38.3026 273.439 37.6248 271.923 36.975 270.394L37.4351 270.198C36.7879 268.676 36.1685 267.141 35.5772 265.594L35.1102 265.772C34.5182 264.223 33.9545 262.662 33.4194 261.088L33.8928 260.927C33.3602 259.361 32.8561 257.783 32.3811 256.194L31.902 256.337C31.4281 254.751 30.9829 253.153 30.5669 251.544L31.051 251.419C30.6376 249.819 30.2532 248.209 29.8983 246.587L29.4099 246.694C29.0559 245.077 28.7313 243.449 28.4362 241.811L28.9283 241.722C28.7814 240.906 28.6418 240.087 28.5097 239.266C28.3776 238.444 28.2534 237.623 28.137 236.802L27.642 236.872C27.4084 235.223 27.2063 233.576 27.0354 231.929L27.5327 231.878C27.3613 230.227 27.2214 228.577 27.1125 226.929L26.6136 226.961C26.5041 225.303 26.4259 223.646 26.3786 221.992L26.8784 221.977C26.8311 220.319 26.815 218.662 26.8297 217.008L26.3297 217.004C26.3445 215.342 26.3903 213.682 26.4667 212.026L26.9661 212.049C27.0425 210.394 27.1494 208.743 27.2867 207.094L26.7884 207.053C26.9262 205.397 27.0945 203.745 27.2928 202.097L27.7892 202.156C27.9868 200.513 28.2144 198.874 28.4715 197.239L27.9776 197.161C28.2354 195.521 28.5228 193.886 28.8393 192.255L29.3302 192.35C29.6455 190.726 29.9899 189.106 30.3629 187.491L29.8758 187.379C30.249 185.763 30.6508 184.153 31.0808 182.547L31.5638 182.677C31.9916 181.08 32.4474 179.488 32.9309 177.902L32.4526 177.756C32.9361 176.17 33.4471 174.59 33.9853 173.015L34.4584 173.177C34.9927 171.614 35.5538 170.057 36.1414 168.507L35.6739 168.33C36.2618 166.778 36.8762 165.233 37.5166 163.695L37.9782 163.887C38.6123 162.364 39.272 160.848 39.9571 159.338L39.5018 159.132C40.1876 157.62 40.8987 156.116 41.6347 154.619L42.0834 154.84C42.8109 153.36 43.5628 151.888 44.3387 150.423L43.8969 150.189C44.673 148.724 45.4731 147.266 46.2968 145.817L46.7315 146.064C47.5469 144.629 48.3855 143.202 49.247 141.783L48.8196 141.524C49.6792 140.108 50.5615 138.701 51.4662 137.301L51.8861 137.573C52.7831 136.186 53.7023 134.807 54.6432 133.437L54.231 133.154C55.1676 131.79 56.1257 130.434 57.1049 129.088L57.5093 129.382C58.482 128.044 59.4756 126.716 60.49 125.396L60.0936 125.092C61.101 123.781 62.1288 122.48 63.1765 121.188L63.5649 121.502C64.6075 120.217 65.6699 118.94 66.752 117.673L66.3718 117.348C67.4444 116.093 68.5362 114.846 69.6468 113.609L70.0188 113.943C71.1253 112.711 72.2504 111.489 73.3941 110.277L73.0304 109.934C74.1636 108.732 75.3149 107.541 76.4839 106.36L76.8393 106.711C78.0037 105.535 79.1858 104.368 80.3853 103.212L80.0383 102.852C81.2279 101.705 82.4346 100.569 83.6581 99.4428L83.9967 99.8107C85.2145 98.6899 86.4489 97.5796 87.6998 96.4799L87.3697 96.1044C88.6111 95.013 89.8686 93.9322 91.1419 92.8621L91.4636 93.2449C92.7305 92.1803 94.0132 91.1263 95.3113 90.0833L94.9982 89.6936C96.287 88.6581 97.5911 87.6333 98.9101 86.6197L99.2147 87.0161C100.527 86.0077 101.854 85.0103 103.196 84.0241L102.899 83.6212C104.232 82.6419 105.578 81.6737 106.939 80.7167L107.227 81.1257C108.581 80.1736 109.949 79.2326 111.33 78.3032L111.051 77.8883C112.423 76.9655 113.809 76.054 115.207 75.154L115.478 75.5745C116.87 74.6786 118.276 73.7941 119.694 72.9214L119.432 72.4955C120.84 71.6293 122.261 70.7747 123.694 69.9318L123.948 70.3628C125.376 69.523 126.816 68.695 128.269 67.8789L128.024 67.443C129.465 66.6336 130.918 65.8359 132.382 65.0501L132.618 65.4907C134.079 64.7071 135.551 63.9355 137.035 63.176L136.808 62.7309C138.278 61.9782 139.76 61.2375 141.253 60.509L141.472 60.9583C142.962 60.2311 144.463 59.5161 145.975 58.8134L145.764 58.36C147.262 57.6638 148.771 56.9797 150.29 56.3079L150.492 56.7652C152.007 56.095 153.533 55.4372 155.069 54.7918L154.875 54.3309C156.399 53.6904 157.933 53.0623 159.477 52.4467L159.662 52.9112C161.2 52.298 162.748 51.6972 164.305 51.1091L164.129 50.6413C165.677 50.0566 167.235 49.4844 168.801 48.9249L168.969 49.3958C170.527 48.8394 172.094 48.2956 173.67 47.7646L173.511 47.2908C175.081 46.7617 176.66 46.2454 178.247 45.7419L178.399 46.2185C179.974 45.7189 181.558 45.2319 183.15 44.7578L183.008 44.2786C184.598 43.8052 186.196 43.3447 187.802 42.8971L187.937 43.3787C189.527 42.9357 191.125 42.5054 192.731 42.0881L192.606 41.6042C194.214 41.1863 195.83 40.7815 197.453 40.3898L197.571 40.8759C199.174 40.4892 200.784 40.1153 202.402 39.7545L202.293 39.2665C203.913 38.9051 205.541 38.5568 207.176 38.2217L207.276 38.7115C208.893 38.38 210.517 38.0616 212.148 37.7562L212.056 37.2648C213.686 36.9597 215.323 36.6678 216.966 36.3891L217.049 36.8821C217.869 36.743 218.691 36.6072 219.514 36.4748C220.338 36.3424 221.161 36.2137 221.983 36.0886L221.908 35.5943C223.555 35.3437 225.201 35.1079 226.844 34.8866L226.911 35.3822C228.555 35.1607 230.197 34.9539 231.837 34.7616L231.779 34.265C233.436 34.0707 235.091 33.8911 236.743 33.7262L236.793 34.2237C238.442 34.0591 240.088 33.9092 241.732 33.7739L241.691 33.2755C243.355 33.1384 245.017 33.0162 246.675 32.9088L246.707 33.4077C248.363 33.3004 250.016 33.2079 251.665 33.13L251.641 32.6305C253.307 32.5518 254.969 32.488 256.627 32.439L256.642 32.9388C258.303 32.8897 259.96 32.8555 261.612 32.836L261.606 32.3361C263.272 32.3164 264.933 32.3117 266.59 32.3218L266.587 32.8218C268.25 32.8319 269.908 32.8569 271.562 32.8968L271.574 32.3969C273.237 32.437 274.896 32.492 276.549 32.5618L276.528 33.0613C278.191 33.1316 279.849 33.2168 281.502 33.3169L281.532 32.8178C283.191 32.9183 284.845 33.0337 286.493 33.164L286.454 33.6624C288.115 33.7937 289.77 33.94 291.419 34.1013L291.467 33.6037C293.12 33.7653 294.767 33.9419 296.408 34.1334L296.35 34.63C298.006 34.8232 299.656 35.0316 301.298 35.2549L301.366 34.7595C303.012 34.9833 304.651 35.2221 306.283 35.4757L306.207 35.9698C307.854 36.2257 309.494 36.4969 311.126 36.783L311.213 36.2905C312.85 36.5774 314.479 36.8794 316.101 37.1963L316.006 37.687C317.641 38.0065 319.268 38.3412 320.887 38.6909L320.993 38.2022C322.618 38.5532 324.235 38.9193 325.844 39.3003L325.729 39.7869C327.349 40.1708 328.961 40.57 330.564 40.9841L330.69 40.5C332.3 40.9161 333.901 41.3473 335.493 41.7934L335.358 42.2749C336.962 42.7243 338.556 43.1889 340.14 43.6685L340.285 43.19C341.877 43.672 343.459 44.1692 345.031 44.6814L344.877 45.1568C346.46 45.6727 348.033 46.2038 349.595 46.7499L349.76 46.2779C351.33 46.8269 352.89 47.3911 354.438 47.9703L354.263 48.4386C355.823 49.022 357.371 49.6207 358.908 50.2344L359.093 49.7701C360.638 50.3869 362.171 51.019 363.692 51.6661L363.496 52.1262C365.029 52.7782 366.549 53.4456 368.057 54.128L368.263 53.6725C369.778 54.3581 371.28 55.0589 372.769 55.7748L372.553 56.2254C374.054 56.9472 375.542 57.6843 377.017 58.4365L377.244 57.9911C378.725 58.7464 380.191 59.5168 381.644 60.3021L381.406 60.742C382.872 61.5346 384.324 62.3426 385.761 63.1656L386.01 62.7317C387.452 63.5579 388.88 64.3992 390.292 65.2555L390.033 65.6831C391.457 66.5468 392.866 67.4259 394.26 68.32L394.53 67.8992C395.93 68.7976 397.314 69.7113 398.681 70.6398L398.4 71.0535C399.777 71.9884 401.137 72.9385 402.48 73.9035L402.772 73.4974C404.124 74.4689 405.459 75.4555 406.776 76.4571L406.473 76.8551C407.796 77.8612 409.101 78.8824 410.388 79.9185L410.702 79.529C412 80.5739 413.279 81.6339 414.539 82.7087L414.214 83.0891C415.477 84.1663 416.721 85.2584 417.945 86.3652L418.28 85.9943C419.517 87.1125 420.734 88.2456 421.93 89.3935L421.584 89.7542C422.78 90.9019 423.956 92.0643 425.11 93.2411L425.467 92.8909C426.635 94.0816 427.782 95.2871 428.907 96.5071L428.54 96.8461C429.664 98.0647 430.765 99.2978 431.845 100.545L432.223 100.218C433.314 101.478 434.381 102.752 435.426 104.041L435.038 104.356C436.082 105.644 437.103 106.947 438.1 108.263L438.499 107.961C439.503 109.288 440.484 110.628 441.441 111.983L441.032 112.271C441.988 113.626 442.92 114.994 443.827 116.376L444.245 116.102C445.157 117.492 446.044 118.895 446.904 120.312L446.477 120.572C447.338 121.988 448.173 123.418 448.981 124.862L449.417 124.618C450.229 126.067 451.015 127.53 451.774 129.006L451.329 129.234C452.086 130.707 452.816 132.192 453.519 133.69L453.972 133.478C454.677 134.981 455.355 136.497 456.005 138.026L455.544 138.222C456.192 139.744 456.811 141.279 457.402 142.826L457.869 142.648C458.461 144.197 459.025 145.758 459.56 147.332L459.087 147.492C459.619 149.059 460.123 150.637 460.598 152.226L461.077 152.083C461.551 153.669 461.997 155.267 462.413 156.876L461.928 157.001C462.342 158.601 462.726 160.211 463.081 161.833L463.57 161.726Z" stroke="#E41E0A" stroke-dasharray="5 5"/>
</svg>
