<svg width="1280" height="978" viewBox="0 0 1280 978" fill="none" xmlns="http://www.w3.org/2000/svg">
<path d="M-605.664 21.3452C-838.308 398.083 -530.797 828.259 405.886 910.005C1342.57 991.804 2251.12 548.144 2164.56 -50.2645C2143.94 -192.947 2071.28 -288.15 1970.28 -349.807C1647.7 -547.043 1035.45 -401.733 900.51 -363.819C723.361 -314.052 515.803 -218.741 515.803 -218.741C515.803 -218.741 -328.701 -427.297 -605.664 21.3452Z" fill="#FFEFE1"/>
<path d="M1421.53 495.697C1422.11 497.286 1422.63 498.886 1423.09 500.495L1422.6 500.559C1422.83 501.359 1423.05 502.16 1423.25 502.965C1423.45 503.769 1423.64 504.574 1423.81 505.379L1424.31 505.348C1424.66 506.969 1424.95 508.59 1425.18 510.212L1424.67 510.209C1424.9 511.815 1425.07 513.421 1425.19 515.027L1425.7 515.064C1425.81 516.675 1425.87 518.286 1425.87 519.897L1425.36 519.828C1425.36 521.415 1425.31 523.003 1425.2 524.59L1425.72 524.689C1425.61 526.262 1425.45 527.834 1425.24 529.405L1424.73 529.276C1424.52 530.826 1424.26 532.375 1423.95 533.923L1424.45 534.079C1424.15 535.591 1423.8 537.103 1423.4 538.613L1422.9 538.433C1422.5 539.935 1422.06 541.436 1421.57 542.936L1422.06 543.139C1421.59 544.578 1421.07 546.016 1420.52 547.453L1420.03 547.229C1419.48 548.659 1418.88 550.087 1418.24 551.515L1418.72 551.757C1418.1 553.14 1417.44 554.521 1416.74 555.901L1416.28 555.641C1415.59 556.993 1414.87 558.343 1414.12 559.691L1414.58 559.966C1413.83 561.301 1413.04 562.635 1412.22 563.966L1411.77 563.677C1410.98 564.949 1410.16 566.22 1409.31 567.488L1409.76 567.79C1408.9 569.062 1408.02 570.333 1407.1 571.601L1406.66 571.288C1405.78 572.507 1404.87 573.724 1403.93 574.939L1404.35 575.263C1403.43 576.458 1402.47 577.651 1401.49 578.842L1401.07 578.508C1400.09 579.696 1399.08 580.882 1398.04 582.065L1398.46 582.407C1397.47 583.534 1396.46 584.658 1395.42 585.781L1395.01 585.431C1393.98 586.546 1392.93 587.659 1391.85 588.77L1392.24 589.127C1391.16 590.238 1390.06 591.347 1388.93 592.454L1388.54 592.09C1387.47 593.138 1386.38 594.183 1385.26 595.227L1385.65 595.597C1384.53 596.643 1383.4 597.687 1382.24 598.728L1381.86 598.352C1380.7 599.391 1379.53 600.428 1378.33 601.463L1378.7 601.844C1377.56 602.829 1376.4 603.811 1375.22 604.791L1374.85 604.405C1373.68 605.383 1372.48 606.359 1371.27 607.332L1371.63 607.723C1370.41 608.698 1369.18 609.67 1367.92 610.64L1367.57 610.245C1366.36 611.178 1365.14 612.108 1363.9 613.036L1364.25 613.435C1363.02 614.354 1361.78 615.27 1360.52 616.184L1360.17 615.782C1358.92 616.694 1357.64 617.605 1356.35 618.513L1356.69 618.919C1355.42 619.812 1354.13 620.703 1352.83 621.591L1352.49 621.182C1351.23 622.044 1349.95 622.904 1348.66 623.761L1348.99 624.174C1347.7 625.032 1346.39 625.888 1345.07 626.742L1344.74 626.327C1343.42 627.18 1342.08 628.03 1340.73 628.878L1341.05 629.297C1339.75 630.114 1338.43 630.93 1337.1 631.743L1336.78 631.322C1335.47 632.129 1334.13 632.934 1332.79 633.736L1333.1 634.159C1331.76 634.962 1330.4 635.763 1329.02 636.562L1328.71 636.136C1327.35 636.929 1325.97 637.72 1324.59 638.508L1324.89 638.936C1323.55 639.697 1322.2 640.456 1320.83 641.213L1320.53 640.783C1319.17 641.539 1317.79 642.293 1316.41 643.044L1316.71 643.476C1315.32 644.228 1313.92 644.978 1312.51 645.725L1312.21 645.292C1310.82 646.03 1309.41 646.767 1308 647.501L1308.29 647.937C1306.91 648.651 1305.52 649.363 1304.12 650.073L1303.83 649.635C1302.44 650.344 1301.03 651.051 1299.61 651.756L1299.9 652.195C1298.48 652.9 1297.05 653.603 1295.61 654.303L1295.32 653.863C1293.9 654.556 1292.46 655.247 1291.01 655.936L1291.29 656.378C1289.89 657.049 1288.47 657.717 1287.04 658.383L1286.77 657.94C1285.34 658.605 1283.91 659.269 1282.46 659.93L1282.74 660.375C1281.29 661.036 1279.84 661.696 1278.37 662.353L1278.1 661.907C1276.64 662.561 1275.17 663.214 1273.7 663.864L1273.97 664.312C1272.53 664.942 1271.09 665.57 1269.65 666.195L1269.38 665.747C1267.93 666.372 1266.48 666.995 1265.01 667.616L1265.27 668.066C1263.81 668.687 1262.33 669.306 1260.85 669.923L1260.59 669.472C1259.11 670.089 1257.62 670.703 1256.12 671.315L1256.38 671.767C1254.92 672.364 1253.45 672.959 1251.97 673.552L1251.72 673.099C1250.25 673.687 1248.78 674.272 1247.3 674.856L1247.55 675.31C1246.06 675.894 1244.58 676.475 1243.08 677.055L1242.83 676.599C1241.33 677.178 1239.83 677.755 1238.32 678.33L1238.56 678.786C1237.07 679.356 1235.56 679.923 1234.05 680.488L1233.8 680.031C1232.32 680.584 1230.83 681.134 1229.34 681.683L1229.58 682.141C1228.09 682.69 1226.58 683.236 1225.08 683.781L1224.84 683.322C1223.33 683.866 1221.81 684.407 1220.29 684.947L1220.53 685.407C1219 685.947 1217.48 686.484 1215.94 687.02L1215.7 686.559C1214.2 687.084 1212.69 687.606 1211.17 688.126L1211.4 688.588C1209.89 689.104 1208.38 689.617 1206.86 690.129L1206.63 689.667C1205.12 690.178 1203.59 690.687 1202.06 691.194L1202.29 691.657C1200.76 692.164 1199.22 692.669 1197.68 693.172L1197.45 692.708C1195.91 693.21 1194.36 693.711 1192.8 694.209L1193.03 694.673C1191.51 695.158 1189.99 695.642 1188.46 696.123L1188.24 695.658C1186.71 696.138 1185.18 696.617 1183.64 697.093L1183.86 697.558C1182.32 698.035 1180.78 698.509 1179.23 698.981L1179.01 698.514C1177.46 698.986 1175.91 699.456 1174.35 699.923L1174.56 700.39C1173 700.856 1171.44 701.32 1169.87 701.782L1169.66 701.315C1168.13 701.766 1166.59 702.215 1165.05 702.662L1165.26 703.13C1163.71 703.577 1162.16 704.022 1160.61 704.465L1160.4 703.997C1159.73 704.187 1159.06 704.378 1158.39 704.567C1157.5 704.818 1156.61 705.068 1155.72 705.318L1155.93 705.787C1154.36 706.225 1152.79 706.662 1151.22 707.096L1151.01 706.626C1149.44 707.059 1147.87 707.489 1146.28 707.918L1146.49 708.388C1144.94 708.807 1143.39 709.225 1141.83 709.64L1141.63 709.169C1140.07 709.584 1138.5 709.997 1136.94 710.408L1137.14 710.879C1135.57 711.29 1133.99 711.699 1132.42 712.105L1132.22 711.634C1131.55 711.805 1130.89 711.976 1130.22 712.146C1129.31 712.38 1128.39 712.613 1127.47 712.846L1127.67 713.318C1126.08 713.72 1124.49 714.12 1122.89 714.518L1122.7 714.045C1121.14 714.434 1119.57 714.821 1118 715.205L1118.19 715.678C1116.62 716.063 1115.04 716.446 1113.46 716.826L1113.27 716.352C1111.69 716.732 1110.11 717.11 1108.52 717.486L1108.71 717.96C1107.12 718.336 1105.53 718.71 1103.93 719.081L1103.74 718.607C1102.15 718.978 1100.55 719.347 1098.94 719.714L1099.12 720.189C1097.54 720.551 1095.96 720.91 1094.37 721.267L1094.18 720.791C1092.6 721.147 1091.02 721.5 1089.43 721.85L1089.61 722.326C1088.02 722.677 1086.43 723.026 1084.83 723.372L1084.65 722.896C1083.05 723.243 1081.45 723.587 1079.84 723.929L1080.02 724.405C1078.41 724.747 1076.8 725.087 1075.19 725.425L1075.01 724.948C1073.41 725.283 1071.81 725.616 1070.2 725.946L1070.38 726.423C1068.78 726.75 1067.19 727.075 1065.59 727.397L1065.42 726.92C1063.82 727.243 1062.22 727.563 1060.61 727.881L1060.78 728.359C1059.18 728.677 1057.57 728.993 1055.95 729.307L1055.78 728.829C1054.17 729.142 1052.55 729.454 1050.93 729.763L1051.1 730.242C1049.48 730.551 1047.85 730.858 1046.23 731.163L1046.06 730.684C1044.46 730.984 1042.86 731.281 1041.25 731.576L1041.42 732.055C1039.81 732.35 1038.2 732.643 1036.59 732.934L1036.42 732.455C1034.81 732.745 1033.19 733.034 1031.57 733.32L1031.73 733.8C1030.11 734.086 1028.49 734.37 1026.86 734.652L1026.7 734.172C1025.08 734.454 1023.45 734.734 1021.81 735.011L1021.97 735.491C1020.35 735.766 1018.73 736.039 1017.1 736.31L1016.94 735.83C1015.33 736.098 1013.71 736.365 1012.09 736.629L1012.25 737.109C1010.63 737.373 1009.01 737.635 1007.38 737.895L1007.23 737.414C1005.6 737.674 1003.97 737.931 1002.34 738.186L1002.49 738.668C1000.86 738.923 999.223 739.176 997.585 739.427L997.435 738.945C996.789 739.044 996.144 739.142 995.498 739.24C994.503 739.391 993.508 739.541 992.511 739.691L992.66 740.172C991.037 740.415 989.41 740.656 987.781 740.895L987.634 740.413C986.009 740.651 984.38 740.887 982.749 741.121L982.895 741.603C981.263 741.836 979.629 742.068 977.992 742.297L977.848 741.815C976.211 742.044 974.572 742.271 972.929 742.496L973.072 742.978C971.429 743.203 969.783 743.425 968.135 743.646L967.994 743.163C966.349 743.383 964.702 743.6 963.052 743.815L963.191 744.298C961.56 744.511 959.926 744.721 958.29 744.93L958.152 744.447C956.516 744.655 954.878 744.861 953.237 745.065L953.373 745.548C951.731 745.752 950.087 745.953 948.44 746.152L948.305 745.669C946.659 745.868 945.01 746.065 943.359 746.26L943.492 746.744C941.84 746.938 940.185 747.131 938.528 747.321L938.396 746.837C936.747 747.026 935.096 747.213 933.442 747.398L933.572 747.882C931.931 748.066 930.288 748.247 928.642 748.425L928.513 747.941C926.868 748.12 925.22 748.296 923.57 748.471L923.698 748.955C922.047 749.129 920.394 749.301 918.739 749.471L918.613 748.986C916.958 749.156 915.301 749.324 913.641 749.489L913.766 749.973C912.105 750.139 910.443 750.301 908.778 750.462L908.656 749.977C907.824 750.057 906.991 750.137 906.158 750.216C905.324 750.295 904.491 750.374 903.658 750.452L903.779 750.937C902.113 751.092 900.449 751.245 898.785 751.396L898.665 750.911C897.002 751.061 895.34 751.209 893.679 751.354L893.797 751.839C892.135 751.984 890.475 752.127 888.816 752.267L888.699 751.781C887.041 751.921 885.383 752.059 883.727 752.193L883.842 752.679C882.185 752.814 880.529 752.946 878.875 753.075L878.761 752.59C877.094 752.72 875.428 752.848 873.763 752.974L873.875 753.459C872.201 753.585 870.529 753.709 868.859 753.829L868.748 753.344C867.078 753.464 865.409 753.582 863.742 753.698L863.851 754.184C862.183 754.299 860.516 754.412 858.851 754.522L858.744 754.036C857.079 754.146 855.416 754.253 853.754 754.358L853.86 754.845C852.197 754.949 850.537 755.052 848.877 755.151L848.773 754.665C847.094 754.766 845.417 754.864 843.741 754.96L843.844 755.446C842.164 755.542 840.486 755.635 838.809 755.725L838.708 755.239C838.01 755.276 837.313 755.314 836.616 755.35C835.638 755.402 834.661 755.452 833.684 755.502L833.784 755.989C832.11 756.074 830.438 756.156 828.768 756.236L828.67 755.749C827.001 755.829 825.333 755.906 823.666 755.98L823.763 756.467C822.092 756.542 820.423 756.614 818.756 756.683L818.661 756.196C816.973 756.266 815.287 756.334 813.602 756.399L813.695 756.885C812.01 756.95 810.326 757.012 808.645 757.072L808.553 756.585C806.872 756.644 805.193 756.701 803.515 756.755L803.605 757.242C801.927 757.296 800.251 757.347 798.577 757.396L798.489 756.909C796.815 756.957 795.144 757.003 793.474 757.046L793.561 757.533C791.876 757.577 790.193 757.618 788.513 757.656L788.428 757.169C786.734 757.208 785.043 757.243 783.354 757.276L783.437 757.763C781.748 757.796 780.06 757.826 778.375 757.854L778.293 757.367C776.608 757.394 774.926 757.419 773.245 757.441L773.325 757.928C771.644 757.95 769.965 757.97 768.288 757.986L768.21 757.499C766.534 757.515 764.86 757.529 763.188 757.54L763.265 758.028C761.563 758.039 759.863 758.047 758.166 758.053L758.091 757.566C756.394 757.572 754.7 757.575 753.008 757.575L753.081 758.062C751.388 758.062 749.698 758.059 748.01 758.054L747.939 757.567C746.252 757.561 744.567 757.553 742.885 757.542L742.955 758.029C741.272 758.018 739.591 758.004 737.914 757.988L737.846 757.5C736.151 757.484 734.458 757.464 732.768 757.442L732.834 757.929C731.129 757.906 729.427 757.881 727.728 757.853L727.663 757.365C725.965 757.337 724.269 757.306 722.575 757.272L722.638 757.759C720.944 757.725 719.253 757.688 717.564 757.649L717.504 757.162C715.816 757.122 714.131 757.079 712.449 757.034L712.508 757.521C710.817 757.476 709.129 757.427 707.444 757.376L707.387 756.889C705.676 756.837 703.968 756.782 702.264 756.724L702.318 757.211C700.613 757.153 698.911 757.092 697.211 757.029L697.158 756.542C695.459 756.478 693.764 756.411 692.071 756.342L692.122 756.829C690.429 756.759 688.739 756.687 687.052 756.611L687.003 756.125C685.317 756.049 683.633 755.971 681.953 755.89L682.001 756.377C680.283 756.294 678.569 756.208 676.858 756.119L676.813 755.632C675.102 755.543 673.396 755.452 671.692 755.357L671.736 755.843C670.032 755.748 668.331 755.65 666.634 755.549L666.593 755.063C664.897 754.962 663.204 754.859 661.515 754.752L661.554 755.238C659.864 755.131 658.178 755.021 656.495 754.909L656.458 754.423C654.74 754.308 653.026 754.189 651.315 754.068L651.35 754.554C649.635 754.432 647.924 754.308 646.217 754.18L646.184 753.694C644.477 753.567 642.775 753.436 641.076 753.302L641.107 753.788C639.407 753.654 637.712 753.517 636.02 753.377L635.991 752.891C634.301 752.752 632.614 752.609 630.931 752.463L630.957 752.948C629.235 752.798 627.517 752.646 625.803 752.49L625.779 752.005C624.062 751.849 622.349 751.69 620.64 751.527L620.662 752.012C618.953 751.849 617.248 751.684 615.548 751.515L615.528 751.03C613.829 750.862 612.134 750.69 610.443 750.515L610.46 750.999C608.767 750.824 607.078 750.645 605.394 750.464L605.379 749.98C603.651 749.793 601.929 749.604 600.211 749.411L600.223 749.895C598.505 749.702 596.791 749.506 595.082 749.306L595.072 748.823C593.364 748.623 591.661 748.42 589.963 748.215L589.97 748.698C588.271 748.492 586.577 748.282 584.888 748.07L584.883 747.587C583.18 747.373 581.482 747.155 579.789 746.934L579.792 747.417C578.064 747.191 576.342 746.962 574.625 746.73L574.625 746.248C572.909 746.016 571.198 745.78 569.493 745.541L569.491 746.023C567.785 745.784 566.084 745.541 564.39 745.295L564.395 744.814C562.701 744.568 561.013 744.319 559.33 744.066L559.322 744.548C557.602 744.289 555.887 744.028 554.179 743.763L554.19 743.282C552.467 743.014 550.75 742.744 549.039 742.469L549.025 742.949C547.314 742.675 545.608 742.396 543.909 742.115L543.925 741.635C542.227 741.353 540.535 741.068 538.849 740.779L538.829 741.259C537.129 740.968 535.435 740.673 533.748 740.375L533.771 739.896C532.042 739.591 530.32 739.281 528.605 738.968L528.579 739.447C526.863 739.133 525.154 738.817 523.452 738.496L523.48 738.018C521.779 737.698 520.085 737.374 518.398 737.046L518.366 737.523C516.678 737.195 514.996 736.864 513.322 736.528L513.358 736.052C511.63 735.706 509.91 735.356 508.198 735.003L508.16 735.478C506.441 735.123 504.731 734.764 503.028 734.402L503.07 733.927C501.369 733.564 499.675 733.198 497.989 732.827L497.944 733.302C496.257 732.931 494.578 732.557 492.907 732.178L492.956 731.705C491.239 731.317 489.531 730.924 487.831 730.527L487.778 731C486.06 730.599 484.352 730.194 482.652 729.785L482.709 729.314C481.011 728.905 479.321 728.492 477.64 728.075L477.579 728.546C475.897 728.129 474.224 727.708 472.56 727.283L472.625 726.813C470.914 726.376 469.212 725.934 467.52 725.488L467.451 725.957C465.739 725.506 464.037 725.05 462.345 724.591L462.418 724.123C460.728 723.664 459.047 723.2 457.376 722.732L457.299 723.198C455.626 722.73 453.965 722.257 452.313 721.78L452.395 721.315C450.684 720.821 448.984 720.323 447.295 719.819L447.208 720.283C445.507 719.776 443.818 719.265 442.14 718.749L442.232 718.287C440.555 717.771 438.89 717.251 437.237 716.727L437.14 717.187C435.473 716.658 433.818 716.125 432.174 715.587L432.277 715.128C430.572 714.57 428.88 714.007 427.201 713.439L427.093 713.896C425.412 713.327 423.743 712.754 422.088 712.176L422.202 711.721C420.548 711.143 418.908 710.56 417.281 709.973L417.161 710.426C415.484 709.82 413.821 709.209 412.171 708.594L412.297 708.143C410.619 707.517 408.957 706.885 407.308 706.248L407.176 706.696C405.526 706.059 403.891 705.416 402.27 704.767L402.409 704.322C400.771 703.667 399.149 703.007 397.543 702.341L397.397 702.784C395.725 702.091 394.071 701.393 392.433 700.689L392.586 700.25C390.95 699.547 389.331 698.838 387.73 698.124L387.569 698.561C385.964 697.845 384.376 697.123 382.805 696.396L382.973 695.964C381.322 695.2 379.69 694.429 378.077 693.653L377.9 694.081C376.285 693.304 374.689 692.519 373.112 691.729L373.298 691.305C371.724 690.516 370.17 689.722 368.636 688.921L368.441 689.34C366.822 688.495 365.224 687.643 363.648 686.784L363.853 686.369C362.278 685.511 360.725 684.645 359.195 683.773L358.98 684.182C357.44 683.304 355.923 682.42 354.428 681.529L354.654 681.126C353.084 680.19 351.54 679.247 350.022 678.297L349.785 678.692C348.263 677.739 346.767 676.779 345.298 675.812L345.546 675.424C344.052 674.44 342.585 673.449 341.145 672.45L340.884 672.83C339.385 671.791 337.917 670.743 336.479 669.688L336.753 669.319C335.32 668.267 333.916 667.208 332.543 666.14L332.254 666.5C330.817 665.383 329.413 664.257 328.042 663.123L328.346 662.776C326.962 661.631 325.613 660.477 324.299 659.316L323.98 659.65C322.638 658.464 321.332 657.269 320.063 656.065L320.398 655.746C319.089 654.504 317.818 653.252 316.588 651.992L316.236 652.295C315 651.029 313.803 649.753 312.647 648.469L313.016 648.184C311.811 646.845 310.65 645.496 309.534 644.138L309.148 644.402C308.026 643.036 306.948 641.66 305.917 640.275L306.321 640.033C305.264 638.614 304.256 637.186 303.297 635.747L302.875 635.964C301.902 634.505 300.978 633.036 300.105 631.557L300.544 631.367C299.663 629.874 298.833 628.37 298.056 626.856L297.601 627.017C296.812 625.481 296.077 623.934 295.396 622.377L295.865 622.247C295.186 620.694 294.561 619.131 293.991 617.558L293.508 617.655C292.933 616.066 292.412 614.466 291.949 612.857L292.442 612.793C292.212 611.993 291.996 611.191 291.793 610.387C291.591 609.583 291.404 608.778 291.231 607.973L290.729 608.004C290.381 606.383 290.092 604.762 289.861 603.14L290.368 603.143C290.139 601.537 289.968 599.931 289.853 598.325L289.342 598.288C289.227 596.677 289.169 595.066 289.167 593.455L289.679 593.524C289.677 591.937 289.73 590.349 289.837 588.762L289.326 588.663C289.432 587.09 289.591 585.518 289.803 583.947L290.312 584.075C290.52 582.526 290.78 580.977 291.091 579.428L290.587 579.273C290.89 577.761 291.242 576.249 291.642 574.739L292.14 574.919C292.537 573.417 292.981 571.916 293.473 570.416L292.982 570.213C293.453 568.774 293.968 567.336 294.525 565.899L295.009 566.123C295.563 564.693 296.16 563.264 296.799 561.837L296.323 561.595C296.942 560.212 297.6 558.831 298.297 557.451L298.765 557.71C299.448 556.359 300.168 555.009 300.925 553.661L300.465 553.386C301.215 552.051 302.002 550.717 302.824 549.386L303.275 549.675C304.061 548.403 304.879 547.132 305.729 545.864L305.286 545.562C306.139 544.29 307.025 543.019 307.943 541.75L308.379 542.064C309.261 540.845 310.174 539.628 311.116 538.412L310.688 538.089C311.614 536.894 312.569 535.701 313.553 534.51L313.973 534.843C314.953 533.656 315.962 532.47 316.999 531.287L316.587 530.945C317.574 529.818 318.586 528.694 319.624 527.571L320.029 527.921C321.06 526.806 322.116 525.693 323.196 524.582L322.797 524.225C323.878 523.114 324.983 522.005 326.112 520.898L326.504 521.262C327.573 520.214 328.665 519.168 329.778 518.125L329.392 517.755C330.508 516.709 331.644 515.665 332.803 514.624L333.182 515C334.338 513.961 335.516 512.924 336.715 511.889L336.342 511.507C337.483 510.523 338.643 509.541 339.822 508.56L340.19 508.947C341.366 507.969 342.561 506.993 343.776 506.02L343.414 505.629C344.63 504.654 345.865 503.682 347.119 502.711L347.475 503.107C348.68 502.174 349.902 501.244 351.142 500.316L350.791 499.917C352.018 498.998 353.262 498.082 354.522 497.168L354.868 497.57C356.126 496.658 357.402 495.747 358.694 494.839L358.353 494.432C359.623 493.539 360.909 492.649 362.211 491.76L362.547 492.17C363.81 491.308 365.088 490.448 366.381 489.591L366.049 489.178C367.343 488.32 368.652 487.464 369.976 486.61L370.303 487.025C371.625 486.172 372.962 485.322 374.313 484.474L373.99 484.055C375.293 483.238 376.609 482.422 377.939 481.609L378.257 482.03C379.576 481.223 380.909 480.418 382.254 479.616L381.939 479.193C383.286 478.39 384.645 477.589 386.018 476.79L386.329 477.216C387.692 476.423 389.068 475.632 390.457 474.844L390.15 474.416C391.491 473.655 392.843 472.896 394.207 472.139L394.511 472.569C395.873 471.813 397.248 471.059 398.635 470.308L398.335 469.876C399.723 469.124 401.122 468.374 402.533 467.626L402.828 468.06C404.223 467.321 405.628 466.585 407.045 465.851L406.753 465.415C408.131 464.701 409.519 463.989 410.918 463.279L411.207 463.717C412.605 463.008 414.013 462.301 415.432 461.596L415.146 461.157C416.566 460.452 417.996 459.749 419.436 459.049L419.719 459.489C421.145 458.796 422.581 458.105 424.027 457.416L423.748 456.974C425.155 456.303 426.572 455.635 427.999 454.969L428.275 455.412C429.7 454.747 431.135 454.083 432.58 453.422L432.306 452.977C433.752 452.315 435.206 451.656 436.67 450.999L436.94 451.445C438.399 450.791 439.867 450.138 441.344 449.488L441.077 449.04C442.508 448.41 443.948 447.782 445.397 447.156L445.661 447.605C447.109 446.98 448.565 446.357 450.03 445.736L449.768 445.286C451.234 444.664 452.708 444.045 454.19 443.429L454.449 443.88C455.931 443.263 457.421 442.649 458.919 442.037L458.662 441.585C460.125 440.988 461.595 440.393 463.073 439.8L463.326 440.253C464.792 439.665 466.265 439.08 467.746 438.496L467.495 438.042C468.977 437.458 470.467 436.877 471.964 436.297L472.213 436.753C473.709 436.174 475.213 435.597 476.724 435.022L476.478 434.566C477.977 433.996 479.483 433.429 480.996 432.864L481.24 433.321C482.72 432.768 484.207 432.218 485.702 431.669L485.46 431.211C486.955 430.662 488.458 430.116 489.967 429.571L490.206 430.03C491.714 429.486 493.229 428.944 494.751 428.405L494.514 427.945C496.037 427.405 497.567 426.867 499.103 426.332L499.338 426.793C500.843 426.268 502.355 425.746 503.874 425.226L503.642 424.764C505.148 424.248 506.66 423.735 508.179 423.223L508.408 423.685C509.926 423.174 511.451 422.665 512.981 422.158L512.754 421.695C514.285 421.188 515.822 420.683 517.366 420.18L517.592 420.644C519.135 420.141 520.684 419.641 522.24 419.143L522.016 418.679C523.533 418.193 525.056 417.71 526.584 417.229L526.805 417.694C528.331 417.213 529.863 416.735 531.4 416.259L531.181 415.793C532.72 415.317 534.264 414.843 535.813 414.371L536.03 414.837C537.579 414.366 539.134 413.896 540.695 413.429L540.48 412.962C542.037 412.496 543.6 412.032 545.169 411.57L545.382 412.037C546.915 411.586 548.453 411.137 549.996 410.69L549.785 410.222C551.329 409.775 552.879 409.33 554.433 408.887L554.642 409.355C556.196 408.913 557.755 408.472 559.32 408.034L559.113 407.565C560.678 407.126 562.248 406.69 563.823 406.256L564.028 406.726C565.6 406.293 567.176 405.863 568.757 405.434L568.554 404.964C570.103 404.544 571.657 404.127 573.216 403.712L573.417 404.183C574.975 403.768 576.538 403.355 578.105 402.944L577.906 402.473C579.474 402.062 581.048 401.653 582.626 401.247L582.823 401.718C584.4 401.312 585.983 400.908 587.569 400.506L587.374 400.034C588.961 399.632 590.553 399.232 592.15 398.834L592.344 399.307C593.906 398.918 595.472 398.531 597.043 398.147L596.851 397.674C598.423 397.289 599.998 396.906 601.578 396.526L601.769 397C603.348 396.619 604.932 396.241 606.52 395.866L606.332 395.392C607.921 395.016 609.514 394.642 611.112 394.271L611.298 394.745C612.895 394.374 614.497 394.004 616.102 393.638L615.917 393.163C617.499 392.801 619.084 392.442 620.674 392.085L620.857 392.56C622.438 392.205 624.024 391.852 625.613 391.501L625.432 391.026C627.022 390.675 628.617 390.326 630.215 389.98L630.394 390.456C631.992 390.109 633.594 389.765 635.2 389.423L635.022 388.947C636.628 388.604 638.238 388.264 639.852 387.927L640.029 388.404C641.629 388.069 643.233 387.736 644.841 387.406L644.667 386.929C646.258 386.602 647.853 386.277 649.452 385.954L649.625 386.432C651.224 386.109 652.826 385.789 654.432 385.471L654.26 384.993C655.867 384.675 657.477 384.359 659.091 384.045L659.26 384.523C660.873 384.209 662.49 383.898 664.111 383.589L663.943 383.11C665.564 382.801 667.188 382.494 668.817 382.189L668.983 382.668C670.582 382.368 672.185 382.071 673.791 381.776L673.626 381.297C675.233 381.002 676.843 380.709 678.457 380.418L678.62 380.897C680.233 380.607 681.849 380.318 683.469 380.032L683.308 379.552C684.928 379.266 686.552 378.982 688.179 378.7L688.339 379.18C689.965 378.898 691.595 378.618 693.228 378.341L693.07 377.861C694.691 377.585 696.315 377.312 697.943 377.042L698.1 377.522C699.713 377.253 701.329 376.987 702.948 376.723L702.793 376.243C704.413 375.978 706.037 375.716 707.663 375.457L707.816 375.938C709.442 375.678 711.071 375.421 712.702 375.165L712.551 374.684C714.183 374.429 715.819 374.176 717.457 373.925L717.607 374.407C719.245 374.156 720.886 373.907 722.531 373.661L722.382 373.18C724.005 372.937 725.632 372.696 727.261 372.457L727.408 372.939C729.033 372.701 730.661 372.465 732.292 372.231L732.147 371.749C733.778 371.515 735.413 371.284 737.05 371.055L737.194 371.537C738.831 371.308 740.47 371.081 742.113 370.856L741.97 370.374C743.613 370.149 745.259 369.926 746.907 369.706L747.048 370.189C748.693 369.969 750.34 369.752 751.99 369.537L751.851 369.054C753.482 368.841 755.116 368.63 756.752 368.422L756.89 368.905C758.526 368.697 760.164 368.491 761.805 368.287L761.669 367.804C763.311 367.6 764.955 367.399 766.602 367.199L766.736 367.683C768.383 367.484 770.032 367.287 771.683 367.092L771.55 366.608C773.202 366.414 774.857 366.221 776.514 366.031L776.646 366.515C778.295 366.325 779.946 366.138 781.6 365.954L781.47 365.47C783.111 365.286 784.754 365.105 786.4 364.926L786.528 365.411C788.174 365.232 789.821 365.055 791.471 364.881L791.344 364.397C792.995 364.223 794.648 364.051 796.303 363.881L796.429 364.365C798.084 364.196 799.741 364.028 801.4 363.863L801.276 363.378C802.936 363.213 804.599 363.05 806.264 362.89L806.386 363.375C807.218 363.294 808.051 363.215 808.884 363.136C809.718 363.057 810.551 362.978 811.383 362.9L811.262 362.415C812.928 362.26 814.593 362.107 816.257 361.956L816.377 362.441C818.04 362.291 819.702 362.143 821.363 361.998L821.245 361.513C822.906 361.368 824.567 361.225 826.226 361.085L826.342 361.571C828.001 361.431 829.659 361.293 831.315 361.159L831.2 360.673C832.857 360.538 834.512 360.406 836.167 360.277L836.28 360.762C837.948 360.632 839.614 360.504 841.279 360.378L841.167 359.892C842.841 359.767 844.513 359.643 846.183 359.522L846.294 360.008C847.964 359.888 849.633 359.77 851.3 359.654L851.191 359.168C852.859 359.053 854.526 358.94 856.191 358.83L856.298 359.316C857.963 359.206 859.626 359.098 861.288 358.994L861.182 358.507C862.844 358.402 864.505 358.3 866.165 358.2L866.269 358.687C867.948 358.586 869.625 358.488 871.301 358.392L871.198 357.906C872.878 357.81 874.556 357.717 876.233 357.627L876.334 358.113C878.01 358.023 879.685 357.935 881.358 357.85L881.258 357.363C882.932 357.278 884.603 357.196 886.274 357.116L886.371 357.603C888.041 357.523 889.709 357.446 891.375 357.372L891.279 356.885C892.95 356.81 894.619 356.738 896.286 356.669L896.38 357.156C898.069 357.085 899.755 357.018 901.44 356.953L901.347 356.466C903.032 356.402 904.716 356.34 906.397 356.28L906.489 356.767C908.17 356.708 909.849 356.651 911.526 356.597L911.437 356.11C913.115 356.056 914.791 356.005 916.465 355.956L916.553 356.443C918.227 356.395 919.898 356.349 921.568 356.305L921.481 355.818C923.166 355.775 924.849 355.734 926.529 355.696L926.614 356.183C928.307 356.144 929.999 356.109 931.688 356.076L931.604 355.589C933.294 355.556 934.982 355.525 936.667 355.498L936.749 355.985C938.434 355.958 940.116 355.933 941.797 355.911L941.717 355.424C943.398 355.402 945.077 355.382 946.754 355.366L946.832 355.853C948.508 355.836 950.182 355.823 951.854 355.811L951.777 355.324C953.479 355.313 955.179 355.304 956.876 355.299L956.951 355.786C958.647 355.78 960.342 355.777 962.034 355.777L961.961 355.29C963.653 355.29 965.344 355.293 967.031 355.298L967.103 355.785C968.79 355.791 970.475 355.799 972.157 355.81L972.087 355.323C973.77 355.334 975.45 355.348 977.128 355.364L977.196 355.851C978.891 355.868 980.584 355.888 982.274 355.91L982.208 355.423C983.913 355.446 985.615 355.471 987.314 355.499L987.378 355.986C989.077 356.015 990.773 356.046 992.467 356.08L992.404 355.593C994.098 355.627 995.789 355.664 997.478 355.703L997.538 356.19C999.226 356.23 1000.91 356.272 1002.59 356.318L1002.53 355.831C1004.22 355.876 1005.91 355.925 1007.6 355.976L1007.65 356.463C1009.37 356.515 1011.07 356.57 1012.78 356.628L1012.72 356.141C1014.43 356.199 1016.13 356.26 1017.83 356.323L1017.88 356.81C1019.58 356.874 1021.28 356.94 1022.97 357.01L1022.92 356.523C1024.61 356.593 1026.3 356.665 1027.99 356.741L1028.04 357.227C1029.73 357.303 1031.41 357.381 1033.09 357.462L1033.04 356.975C1034.76 357.058 1036.47 357.144 1038.18 357.233L1038.23 357.719C1039.94 357.808 1041.65 357.9 1043.35 357.995L1043.31 357.509C1045.01 357.604 1046.71 357.702 1048.41 357.802L1048.45 358.289C1050.15 358.389 1051.84 358.493 1053.53 358.6L1053.49 358.114C1055.18 358.221 1056.86 358.331 1058.55 358.443L1058.58 358.929C1060.3 359.044 1062.02 359.163 1063.73 359.284L1063.69 358.798C1065.41 358.919 1067.12 359.044 1068.82 359.172L1068.86 359.658C1070.56 359.785 1072.27 359.916 1073.97 360.05L1073.94 359.564C1075.63 359.698 1077.33 359.835 1079.02 359.975L1079.05 360.46C1080.74 360.6 1082.43 360.743 1084.11 360.889L1084.08 360.404C1085.81 360.554 1087.53 360.706 1089.24 360.862L1089.26 361.347C1090.98 361.503 1092.69 361.662 1094.4 361.825L1094.38 361.34C1096.09 361.502 1097.79 361.668 1099.49 361.837L1099.51 362.321C1101.21 362.49 1102.91 362.662 1104.6 362.837L1104.58 362.353C1106.27 362.528 1107.96 362.707 1109.65 362.888L1109.66 363.372C1111.39 363.559 1113.11 363.748 1114.83 363.941L1114.82 363.457C1116.54 363.65 1118.25 363.846 1119.96 364.046L1119.97 364.529C1121.68 364.729 1123.38 364.931 1125.08 365.137L1125.07 364.654C1126.77 364.86 1128.46 365.069 1130.15 365.282L1130.16 365.765C1131.86 365.979 1133.56 366.197 1135.25 366.418L1135.25 365.935C1136.98 366.161 1138.7 366.39 1140.42 366.622L1140.42 367.104C1142.13 367.336 1143.84 367.572 1145.55 367.811L1145.55 367.329C1147.26 367.568 1148.96 367.811 1150.65 368.057L1150.65 368.538C1152.34 368.784 1154.03 369.033 1155.71 369.285L1155.72 368.804C1157.44 369.062 1159.15 369.324 1160.86 369.589L1160.85 370.07C1162.58 370.337 1164.29 370.608 1166 370.883L1166.02 370.403C1167.73 370.677 1169.43 370.956 1171.13 371.237L1171.12 371.717C1172.82 371.999 1174.51 372.284 1176.19 372.572L1176.21 372.093C1177.91 372.384 1179.61 372.679 1181.29 372.977L1181.27 373.456C1183 373.761 1184.72 374.071 1186.44 374.384L1186.46 373.905C1188.18 374.218 1189.89 374.535 1191.59 374.856L1191.56 375.334C1193.26 375.654 1194.96 375.978 1196.64 376.306L1196.68 375.829C1198.36 376.157 1200.05 376.488 1201.72 376.823L1201.68 377.3C1203.41 377.646 1205.13 377.996 1206.84 378.349L1206.88 377.874C1208.6 378.229 1210.31 378.588 1212.01 378.95L1211.97 379.425C1213.67 379.788 1215.37 380.154 1217.05 380.524L1217.1 380.05C1218.79 380.421 1220.46 380.795 1222.14 381.173L1222.09 381.647C1223.8 382.035 1225.51 382.428 1227.21 382.825L1227.26 382.352C1228.98 382.753 1230.69 383.158 1232.39 383.567L1232.33 384.038C1234.03 384.447 1235.72 384.86 1237.4 385.276L1237.46 384.806C1239.14 385.223 1240.82 385.644 1242.48 386.069L1242.42 386.539C1244.13 386.976 1245.83 387.418 1247.52 387.864L1247.59 387.395C1249.3 387.846 1251 388.302 1252.7 388.761L1252.62 389.229C1254.31 389.688 1255.99 390.152 1257.67 390.62L1257.74 390.154C1259.42 390.622 1261.08 391.095 1262.73 391.572L1262.65 392.036C1264.36 392.531 1266.06 393.029 1267.75 393.532L1267.83 393.069C1269.53 393.576 1271.22 394.087 1272.9 394.603L1272.81 395.065C1274.49 395.58 1276.15 396.1 1277.81 396.625L1277.9 396.165C1279.57 396.693 1281.22 397.227 1282.87 397.765L1282.77 398.224C1284.47 398.782 1286.16 399.345 1287.84 399.913L1287.95 399.456C1289.63 400.024 1291.3 400.598 1292.95 401.176L1292.84 401.631C1294.49 402.209 1296.13 402.792 1297.76 403.379L1297.88 402.926C1299.56 403.532 1301.22 404.143 1302.87 404.758L1302.75 405.209C1304.42 405.835 1306.09 406.467 1307.73 407.104L1307.87 406.656C1309.52 407.293 1311.15 407.936 1312.77 408.585L1312.63 409.03C1314.27 409.685 1315.89 410.345 1317.5 411.011L1317.64 410.568C1319.32 411.261 1320.97 411.959 1322.61 412.663L1322.46 413.102C1324.09 413.805 1325.71 414.513 1327.31 415.227L1327.47 414.791C1329.08 415.507 1330.67 416.228 1332.24 416.956L1332.07 417.388C1333.72 418.152 1335.35 418.923 1336.96 419.699L1337.14 419.271C1338.76 420.048 1340.35 420.832 1341.93 421.623L1341.74 422.047C1343.32 422.836 1344.87 423.63 1346.41 424.431L1346.6 424.011C1348.22 424.857 1349.82 425.709 1351.39 426.568L1351.19 426.983C1352.76 427.841 1354.32 428.707 1355.85 429.579L1356.06 429.17C1357.6 430.048 1359.12 430.932 1360.61 431.823L1360.39 432.226C1361.96 433.162 1363.5 434.105 1365.02 435.055L1365.26 434.66C1366.78 435.613 1368.27 436.573 1369.74 437.54L1369.5 437.928C1370.99 438.912 1372.46 439.903 1373.9 440.902L1374.16 440.522C1375.66 441.561 1377.12 442.608 1378.56 443.663L1378.29 444.033C1379.72 445.085 1381.13 446.144 1382.5 447.212L1382.79 446.852C1384.22 447.969 1385.63 449.095 1387 450.229L1386.7 450.576C1388.08 451.721 1389.43 452.875 1390.74 454.036L1391.06 453.702C1392.4 454.888 1393.71 456.083 1394.98 457.287L1394.64 457.606C1395.95 458.848 1397.22 460.1 1398.45 461.36L1398.81 461.057C1400.04 462.323 1401.24 463.599 1402.39 464.883L1402.03 465.168C1403.23 466.507 1404.39 467.856 1405.51 469.214L1405.89 468.95C1407.02 470.316 1408.09 471.692 1409.13 473.077L1408.72 473.319C1409.78 474.737 1410.79 476.166 1411.75 477.605L1412.17 477.388C1413.14 478.847 1414.06 480.316 1414.94 481.795L1414.5 481.985C1415.38 483.478 1416.21 484.982 1416.99 486.495L1417.44 486.335C1418.23 487.871 1418.97 489.418 1419.65 490.975L1419.18 491.105C1419.86 492.658 1420.48 494.221 1421.05 495.794L1421.53 495.697Z" stroke="#E41E0A" stroke-dasharray="5 5"/>
<path d="M1491.18 329.588C1492.35 330.828 1493.51 332.075 1494.64 333.33L1494.16 333.448C1494.73 334.073 1495.29 334.701 1495.84 335.33C1496.4 335.959 1496.95 336.589 1497.49 337.219L1497.98 337.112C1499.07 338.377 1500.14 339.646 1501.18 340.917L1500.68 341.014C1501.72 342.282 1502.73 343.553 1503.72 344.827L1504.23 344.741C1505.22 346.018 1506.19 347.299 1507.14 348.583L1506.62 348.659C1507.56 349.941 1508.48 351.227 1509.38 352.515L1509.9 352.45C1510.8 353.743 1511.68 355.038 1512.53 356.337L1511.99 356.392C1512.84 357.687 1513.67 358.984 1514.47 360.285L1515.01 360.24C1515.81 361.544 1516.59 362.85 1517.34 364.159L1516.8 364.193C1517.54 365.49 1518.27 366.791 1518.97 368.094L1519.52 368.07C1520.22 369.377 1520.9 370.686 1521.56 371.997L1521 372.01C1521.66 373.318 1522.29 374.628 1522.9 375.941L1523.46 375.938C1524.07 377.248 1524.65 378.561 1525.21 379.876L1524.65 379.869C1525.2 381.169 1525.73 382.47 1526.24 383.774L1526.81 383.79C1527.32 385.097 1527.81 386.406 1528.27 387.717L1527.7 387.69C1528.17 388.998 1528.61 390.308 1529.03 391.619L1529.61 391.655C1530.02 392.957 1530.42 394.26 1530.79 395.565L1530.21 395.52C1530.58 396.81 1530.93 398.101 1531.26 399.393L1531.84 399.447C1532.16 400.743 1532.47 402.04 1532.75 403.339L1532.17 403.276C1532.46 404.572 1532.72 405.87 1532.96 407.169L1533.54 407.24C1533.78 408.522 1534 409.805 1534.2 411.089L1533.61 411.01C1533.81 412.279 1533.99 413.551 1534.14 414.823L1534.73 414.91C1534.88 416.185 1535.02 417.462 1535.14 418.739L1534.55 418.644C1534.67 419.919 1534.76 421.195 1534.84 422.472L1535.43 422.575C1535.5 423.831 1535.56 425.088 1535.6 426.346L1535.01 426.236C1535.05 427.479 1535.07 428.723 1535.07 429.968L1535.66 430.085C1535.66 431.333 1535.64 432.581 1535.6 433.83L1535.01 433.706C1534.98 434.952 1534.92 436.2 1534.85 437.449L1535.44 437.58C1535.37 438.809 1535.28 440.038 1535.17 441.269L1534.58 441.131C1534.48 442.342 1534.36 443.554 1534.22 444.766L1534.8 444.91C1534.66 446.125 1534.51 447.34 1534.33 448.556L1533.75 448.406C1533.57 449.619 1533.38 450.834 1533.18 452.049L1533.76 452.204C1533.56 453.408 1533.34 454.611 1533.1 455.816L1532.51 455.654C1532.28 456.83 1532.03 458.007 1531.77 459.183L1532.35 459.35C1532.09 460.529 1531.81 461.708 1531.51 462.887L1530.93 462.715C1530.63 463.892 1530.32 465.07 1530 466.248L1530.58 466.425C1530.25 467.605 1529.91 468.785 1529.55 469.965L1528.97 469.783C1528.62 470.923 1528.26 472.063 1527.89 473.204L1528.47 473.39C1528.09 474.531 1527.7 475.672 1527.3 476.813L1526.72 476.622C1526.32 477.761 1525.9 478.901 1525.47 480.041L1526.05 480.237C1525.61 481.378 1525.17 482.519 1524.71 483.66L1524.13 483.46C1523.68 484.582 1523.21 485.704 1522.73 486.826L1523.3 487.03C1522.83 488.133 1522.34 489.235 1521.85 490.338L1521.28 490.129C1520.78 491.23 1520.27 492.331 1519.74 493.432L1520.31 493.644C1519.78 494.746 1519.25 495.848 1518.69 496.95L1518.13 496.733C1517.58 497.834 1517.01 498.934 1516.44 500.034L1517 500.254C1516.44 501.326 1515.86 502.398 1515.28 503.47L1514.71 503.246C1514.13 504.309 1513.54 505.371 1512.93 506.433L1513.49 506.66C1512.88 507.723 1512.26 508.786 1511.63 509.849L1511.07 509.618C1510.44 510.68 1509.8 511.741 1509.15 512.801L1509.7 513.035C1509.05 514.097 1508.38 515.158 1507.7 516.219L1507.15 515.982C1506.49 517.009 1505.82 518.035 1505.14 519.061L1505.69 519.301C1505.01 520.326 1504.32 521.351 1503.62 522.375L1503.07 522.132C1502.37 523.155 1501.66 524.178 1500.93 525.2L1501.48 525.446C1500.76 526.469 1500.02 527.491 1499.28 528.513L1498.73 528.265C1497.99 529.286 1497.23 530.307 1496.46 531.327L1497.01 531.578C1496.26 532.568 1495.51 533.557 1494.74 534.546L1494.2 534.292C1493.43 535.278 1492.66 536.264 1491.88 537.249L1492.42 537.505C1491.63 538.491 1490.84 539.476 1490.03 540.461L1489.5 540.201C1488.69 541.185 1487.88 542.168 1487.05 543.15L1487.59 543.412C1486.76 544.395 1485.93 545.378 1485.08 546.36L1484.55 546.095C1483.72 547.053 1482.89 548.009 1482.05 548.965L1482.58 549.232C1481.74 550.182 1480.89 551.131 1480.03 552.079L1479.51 551.81C1478.65 552.758 1477.78 553.705 1476.91 554.651L1477.43 554.922C1476.56 555.869 1475.67 556.815 1474.78 557.76L1474.25 557.487C1473.36 558.432 1472.46 559.376 1471.54 560.319L1472.07 560.594C1471.16 561.525 1470.25 562.455 1469.33 563.385L1468.81 563.108C1467.91 564.021 1467 564.933 1466.08 565.845L1466.6 566.124C1465.68 567.036 1464.74 567.948 1463.81 568.858L1463.29 568.577C1462.35 569.487 1461.4 570.396 1460.45 571.304L1460.96 571.587C1460.01 572.495 1459.04 573.403 1458.07 574.31L1457.56 574.025C1457.1 574.451 1456.64 574.876 1456.18 575.301C1455.66 575.781 1455.14 576.262 1454.61 576.741L1455.12 577.028C1454.16 577.909 1453.19 578.788 1452.21 579.667L1451.7 579.379C1450.72 580.255 1449.73 581.131 1448.74 582.006L1449.25 582.296C1448.25 583.171 1447.25 584.046 1446.24 584.919L1445.73 584.627C1444.72 585.5 1443.71 586.372 1442.68 587.243L1443.18 587.537C1442.16 588.408 1441.12 589.279 1440.08 590.148L1439.58 589.853C1438.54 590.715 1437.5 591.576 1436.45 592.437L1436.95 592.734C1435.92 593.577 1434.89 594.42 1433.84 595.261L1433.34 594.963C1432.3 595.804 1431.25 596.644 1430.19 597.483L1430.69 597.783C1429.63 598.623 1428.56 599.461 1427.48 600.299L1426.99 599.997C1425.92 600.834 1424.84 601.67 1423.75 602.505L1424.24 602.808C1423.15 603.643 1422.05 604.477 1420.95 605.311L1420.46 605.006C1419.37 605.829 1418.27 606.651 1417.17 607.471L1417.66 607.777C1416.57 608.586 1415.47 609.394 1414.37 610.201L1413.88 609.894C1412.78 610.701 1411.67 611.506 1410.55 612.31L1411.04 612.619C1409.92 613.424 1408.8 614.227 1407.67 615.03L1407.18 614.72C1406.05 615.522 1404.92 616.323 1403.77 617.123L1404.25 617.434C1403.11 618.234 1401.96 619.034 1400.8 619.832L1400.32 619.519C1399.18 620.307 1398.03 621.094 1396.87 621.88L1397.35 622.193C1396.2 622.969 1395.05 623.744 1393.9 624.517L1393.42 624.202C1392.27 624.975 1391.11 625.747 1389.94 626.518L1390.41 626.834C1389.24 627.605 1388.07 628.375 1386.89 629.144L1386.42 628.826C1385.23 629.595 1384.05 630.362 1382.85 631.128L1383.32 631.446C1382.13 632.213 1380.93 632.978 1379.72 633.742L1379.25 633.422C1378.06 634.179 1376.85 634.935 1375.64 635.69L1376.11 636.011C1374.92 636.754 1373.72 637.496 1372.52 638.237L1372.06 637.916C1370.85 638.656 1369.64 639.395 1368.43 640.134L1368.89 640.456C1367.68 641.195 1366.46 641.932 1365.23 642.668L1364.77 642.344C1363.54 643.08 1362.31 643.814 1361.07 644.547L1361.53 644.872C1360.29 645.606 1359.05 646.338 1357.8 647.069L1357.34 646.743C1356.09 647.472 1354.83 648.201 1353.57 648.928L1354.03 649.255C1352.8 649.967 1351.56 650.677 1350.31 651.387L1349.86 651.058C1348.61 651.768 1347.36 652.475 1346.1 653.182L1346.56 653.511C1345.3 654.218 1344.04 654.923 1342.77 655.628L1342.32 655.298C1341.05 656.001 1339.77 656.704 1338.5 657.405L1338.94 657.736C1337.66 658.438 1336.38 659.138 1335.09 659.837L1334.64 659.505C1333.35 660.204 1332.05 660.901 1330.75 661.597L1331.2 661.93C1329.91 662.617 1328.62 663.303 1327.33 663.987L1326.89 663.653C1325.6 664.332 1324.31 665.009 1323.02 665.685L1323.46 666.019C1322.16 666.695 1320.86 667.37 1319.56 668.044L1319.11 667.708C1317.81 668.381 1316.5 669.053 1315.18 669.724L1315.62 670.06C1314.3 670.731 1312.98 671.4 1311.65 672.068L1311.22 671.731C1309.89 672.399 1308.56 673.065 1307.22 673.73L1307.66 674.068C1306.32 674.733 1304.98 675.396 1303.63 676.057L1303.2 675.718C1302.66 675.984 1302.11 676.25 1301.57 676.516C1300.79 676.898 1300.01 677.28 1299.22 677.661L1299.66 678C1298.32 678.647 1296.99 679.292 1295.65 679.935L1295.22 679.595C1294.49 679.942 1293.77 680.289 1293.04 680.636C1292.42 680.931 1291.8 681.226 1291.18 681.521L1291.61 681.862C1290.26 682.503 1288.9 683.142 1287.54 683.78L1287.11 683.438C1286.7 683.634 1286.28 683.83 1285.86 684.025C1284.92 684.466 1283.97 684.907 1283.02 685.347L1283.44 685.69C1282.07 686.325 1280.7 686.959 1279.32 687.591L1278.89 687.247C1277.52 687.875 1276.15 688.501 1274.77 689.126L1275.19 689.47C1273.83 690.088 1272.46 690.704 1271.09 691.318L1270.66 690.973C1269.29 691.588 1267.92 692.2 1266.53 692.812L1266.95 693.158C1265.57 693.769 1264.18 694.38 1262.79 694.989L1262.37 694.642C1260.98 695.251 1259.59 695.858 1258.19 696.463L1258.6 696.811C1257.2 697.417 1255.79 698.021 1254.38 698.624L1253.97 698.276C1252.56 698.879 1251.15 699.48 1249.73 700.08L1250.14 700.428C1248.73 701.023 1247.32 701.615 1245.91 702.207L1245.5 701.857C1244.83 702.137 1244.16 702.417 1243.48 702.697C1242.75 703.002 1242.01 703.307 1241.28 703.611L1241.69 703.961C1240.27 704.545 1238.86 705.126 1237.44 705.707L1237.03 705.356C1235.61 705.936 1234.18 706.515 1232.76 707.092L1233.16 707.444C1231.73 708.021 1230.3 708.597 1228.86 709.171L1228.46 708.819C1227.02 709.394 1225.58 709.966 1224.13 710.537L1224.53 710.89C1223.09 711.461 1221.63 712.031 1220.18 712.6L1219.78 712.246C1218.34 712.809 1216.89 713.37 1215.44 713.929L1215.84 714.283C1214.4 714.839 1212.96 715.393 1211.51 715.946L1211.11 715.591C1209.67 716.144 1208.22 716.695 1206.76 717.244L1207.16 717.599C1205.7 718.149 1204.24 718.697 1202.78 719.244L1202.38 718.888C1200.92 719.434 1199.45 719.979 1197.98 720.523L1198.37 720.879C1196.9 721.422 1195.42 721.964 1193.94 722.505L1193.55 722.148C1192.07 722.688 1190.58 723.227 1189.1 723.764L1189.49 724.121C1188.01 724.654 1186.53 725.185 1185.04 725.715L1184.65 725.357C1183.18 725.882 1181.71 726.406 1180.22 726.929L1180.61 727.287C1179.13 727.81 1177.65 728.331 1176.16 728.85L1175.77 728.491C1174.28 729.01 1172.79 729.528 1171.29 730.044L1171.68 730.403C1170.18 730.92 1168.68 731.434 1167.18 731.947L1166.79 731.587C1165.29 732.1 1163.78 732.611 1162.27 733.121L1162.65 733.482C1161.14 733.991 1159.62 734.5 1158.1 735.006L1157.72 734.645C1156.21 735.149 1154.69 735.652 1153.18 736.152L1153.55 736.514C1152.05 737.01 1150.54 737.504 1149.03 737.997L1148.65 737.635C1148.04 737.835 1147.42 738.035 1146.8 738.235C1145.91 738.527 1145.01 738.817 1144.1 739.108L1144.48 739.47C1142.96 739.96 1141.44 740.448 1139.91 740.934L1139.54 740.571C1138.01 741.057 1136.48 741.541 1134.95 742.024L1135.32 742.388C1133.78 742.871 1132.24 743.353 1130.7 743.832L1130.33 743.468C1128.79 743.948 1127.25 744.425 1125.7 744.902L1126.07 745.267C1124.52 745.743 1122.96 746.218 1121.41 746.691L1121.04 746.326C1119.51 746.792 1117.97 747.257 1116.43 747.72L1116.79 748.086C1115.25 748.549 1113.71 749.01 1112.16 749.47L1111.8 749.104C1110.25 749.564 1108.7 750.022 1107.14 750.479L1107.5 750.846C1105.95 751.302 1104.39 751.757 1102.83 752.211L1102.47 751.843C1100.9 752.297 1099.34 752.748 1097.77 753.198L1098.13 753.566C1096.56 754.016 1094.99 754.464 1093.41 754.911L1093.05 754.543C1091.48 754.99 1089.9 755.434 1088.31 755.878L1088.67 756.246C1087.1 756.686 1085.52 757.124 1083.95 757.56L1083.59 757.191C1082.02 757.625 1080.45 758.058 1078.88 758.488L1079.23 758.858C1077.65 759.289 1076.07 759.718 1074.49 760.145L1074.14 759.775C1072.56 760.203 1070.97 760.628 1069.38 761.052L1069.73 761.422C1068.14 761.846 1066.55 762.269 1064.96 762.69L1064.61 762.319C1063.01 762.739 1061.42 763.158 1059.81 763.575L1060.16 763.946C1058.56 764.364 1056.95 764.779 1055.34 765.193L1055 764.821C1053.39 765.235 1051.78 765.646 1050.17 766.056L1050.51 766.428C1048.92 766.833 1047.32 767.236 1045.72 767.638L1045.38 767.266C1043.77 767.668 1042.17 768.068 1040.56 768.466L1040.9 768.839C1039.29 769.237 1037.68 769.634 1036.07 770.029L1035.73 769.656C1035.34 769.75 1034.96 769.844 1034.57 769.939C1033.34 770.238 1032.11 770.537 1030.88 770.835L1031.22 771.208C1029.6 771.6 1027.97 771.99 1026.35 772.378L1026.01 772.004C1024.38 772.392 1022.75 772.778 1021.12 773.162L1021.46 773.537C1019.82 773.921 1018.19 774.304 1016.55 774.685L1016.21 774.31C1015.83 774.399 1015.45 774.488 1015.07 774.576C1014.63 774.678 1014.19 774.779 1013.75 774.88C1012.93 775.07 1012.11 775.259 1011.29 775.447L1011.62 775.822C1009.98 776.199 1008.34 776.573 1006.69 776.946L1006.36 776.57C1005.28 776.814 1004.2 777.058 1003.12 777.3C1002.56 777.427 1002 777.553 1001.43 777.679L1001.76 778.055C1000.11 778.422 998.467 778.787 996.821 779.15L996.496 778.774C995.769 778.934 995.042 779.094 994.315 779.253C993.396 779.455 992.477 779.655 991.558 779.855L991.882 780.231C990.235 780.589 988.588 780.945 986.94 781.298L986.618 780.922C984.97 781.275 983.323 781.626 981.675 781.974L981.995 782.351C980.347 782.7 978.698 783.046 977.048 783.39L976.73 783.013C975.062 783.361 973.394 783.706 971.726 784.049L972.043 784.427C970.372 784.77 968.7 785.112 967.029 785.45L966.713 785.072C965.042 785.411 963.37 785.747 961.699 786.081L962.013 786.459C960.34 786.793 958.668 787.125 956.995 787.454L956.682 787.075C955.01 787.404 953.337 787.731 951.664 788.055L951.975 788.434C950.301 788.759 948.628 789.081 946.954 789.4L946.645 789.021C944.971 789.34 943.298 789.657 941.624 789.972L941.931 790.352C940.248 790.668 938.564 790.982 936.88 791.294L936.575 790.914C934.878 791.228 933.181 791.54 931.483 791.849L931.787 792.229C930.09 792.539 928.391 792.846 926.693 793.15L926.391 792.769C924.693 793.074 922.996 793.376 921.298 793.675L921.598 794.056C919.9 794.356 918.202 794.653 916.503 794.948L916.204 794.566C914.506 794.861 912.808 795.153 911.11 795.443L911.407 795.824C909.708 796.114 908.009 796.402 906.31 796.687L906.015 796.305C904.316 796.59 902.618 796.872 900.919 797.152L901.213 797.534C899.49 797.818 897.767 798.1 896.044 798.379L895.752 797.996C894.029 798.276 892.306 798.552 890.583 798.826L890.873 799.209C889.15 799.483 887.427 799.755 885.703 800.024L885.415 799.641C883.692 799.91 881.97 800.177 880.247 800.441L880.534 800.824C878.81 801.088 877.087 801.35 875.364 801.609L875.08 801.226C873.357 801.485 871.635 801.741 869.913 801.996L870.196 802.379C868.473 802.634 866.75 802.885 865.028 803.135L864.747 802.751C863.007 803.003 861.267 803.252 859.527 803.499L859.807 803.883C858.058 804.131 856.31 804.376 854.562 804.619L854.285 804.235C852.537 804.478 850.79 804.718 849.043 804.956L849.319 805.341C847.571 805.578 845.824 805.814 844.077 806.047L843.803 805.661C842.057 805.894 840.311 806.124 838.565 806.352L838.837 806.737C837.09 806.965 835.344 807.19 833.598 807.413L833.328 807.027C831.583 807.25 829.838 807.47 828.093 807.687L828.362 808.073C826.603 808.292 824.844 808.509 823.085 808.723L822.819 808.337C821.047 808.553 819.275 808.766 817.504 808.977L817.768 809.363C815.996 809.574 814.225 809.782 812.454 809.987L812.191 809.601C810.421 809.806 808.651 810.009 806.881 810.209L807.142 810.596C805.372 810.796 803.602 810.994 801.833 811.189L801.574 810.802C799.806 810.997 798.038 811.189 796.27 811.379L796.527 811.766C794.759 811.956 792.992 812.143 791.225 812.328L790.97 811.94C789.191 812.126 787.412 812.31 785.634 812.49L785.887 812.878C784.091 813.06 782.295 813.24 780.5 813.417L780.249 813.03C778.455 813.207 776.661 813.381 774.868 813.553L775.117 813.941C773.323 814.113 771.53 814.282 769.738 814.448L769.491 814.06C768.588 814.144 767.684 814.227 766.781 814.31C765.893 814.391 765.006 814.472 764.118 814.551L764.363 814.94C762.572 815.101 760.782 815.259 758.993 815.415L758.75 815.027C756.961 815.182 755.173 815.335 753.386 815.486L753.627 815.875C751.824 816.026 750.022 816.175 748.22 816.322L747.982 815.933C746.163 816.081 744.346 816.226 742.529 816.368L742.766 816.757C740.949 816.899 739.133 817.039 737.317 817.175L737.083 816.786C735.268 816.923 733.454 817.057 731.642 817.188L731.874 817.577C730.06 817.709 728.248 817.837 726.436 817.963L726.206 817.574C724.395 817.699 722.585 817.822 720.777 817.943L721.005 818.332C719.195 818.452 717.387 818.57 715.579 818.685L715.353 818.295C713.524 818.411 711.696 818.525 709.869 818.635L710.093 819.025C708.253 819.137 706.413 819.245 704.575 819.351L704.354 818.961C702.516 819.067 700.68 819.17 698.845 819.27L699.064 819.66C697.229 819.76 695.394 819.857 693.561 819.952L693.344 819.561C691.511 819.656 689.679 819.747 687.849 819.836L688.064 820.226C686.233 820.315 684.403 820.401 682.575 820.484L682.363 820.094C680.535 820.177 678.709 820.257 676.883 820.335L677.094 820.725C675.233 820.804 673.374 820.88 671.516 820.953L671.308 820.563C669.448 820.636 667.59 820.706 665.733 820.774L665.938 821.164C664.08 821.232 662.224 821.296 660.369 821.358L660.166 820.967C658.312 821.028 656.46 821.087 654.609 821.143L654.81 821.534C652.958 821.589 651.108 821.642 649.259 821.692L649.061 821.301C647.213 821.351 645.366 821.398 643.522 821.442L643.717 821.833C641.857 821.877 639.999 821.919 638.142 821.957L637.948 821.566C636.067 821.605 634.187 821.641 632.309 821.674L632.499 822.065C630.62 822.098 628.743 822.128 626.868 822.155L626.679 821.764C624.805 821.791 622.932 821.815 621.061 821.835L621.247 822.227C619.375 822.248 617.505 822.265 615.636 822.28L615.453 821.889C613.586 821.904 611.72 821.916 609.856 821.924L610.037 822.316C608.173 822.324 606.31 822.33 604.449 822.333L604.271 821.942C602.371 821.945 600.473 821.944 598.577 821.941L598.753 822.332C596.853 822.329 594.956 822.322 593.06 822.312L592.888 821.921C590.993 821.911 589.101 821.899 587.211 821.882L587.381 822.274C585.49 822.258 583.601 822.239 581.714 822.216L581.547 821.825C579.661 821.803 577.777 821.777 575.896 821.749L576.06 822.14C574.178 822.112 572.298 822.08 570.42 822.045L570.258 821.654C568.351 821.619 566.446 821.58 564.544 821.539L564.703 821.93C562.784 821.888 560.868 821.842 558.954 821.793L558.798 821.402C556.885 821.354 554.975 821.302 553.067 821.247L553.22 821.638C551.311 821.583 549.405 821.524 547.501 821.463L547.35 821.072C545.447 821.01 543.547 820.945 541.649 820.877L541.797 821.268C539.898 821.2 538.002 821.128 536.108 821.053L535.964 820.663C534.046 820.587 532.131 820.508 530.218 820.426L530.359 820.816C528.423 820.733 526.489 820.646 524.558 820.556L524.42 820.166C522.49 820.076 520.563 819.982 518.639 819.885L518.774 820.275C516.849 820.178 514.927 820.078 513.008 819.974L512.876 819.584C510.958 819.481 509.043 819.373 507.131 819.263L507.259 819.653C505.346 819.542 503.436 819.428 501.529 819.311L501.403 818.921C499.469 818.803 497.538 818.68 495.61 818.554L495.732 818.944C493.78 818.816 491.831 818.685 489.886 818.55L489.767 818.161C487.823 818.027 485.882 817.889 483.944 817.747L484.059 818.136C482.12 817.994 480.185 817.849 478.253 817.7L478.141 817.311C476.21 817.163 474.282 817.01 472.358 816.854L472.467 817.243C470.541 817.087 468.62 816.928 466.702 816.765L466.597 816.376C464.641 816.21 462.688 816.04 460.739 815.867L460.84 816.255C458.875 816.08 456.914 815.901 454.957 815.718L454.859 815.331C452.903 815.148 450.951 814.962 449.002 814.773L449.096 815.16C447.147 814.97 445.201 814.776 443.259 814.579L443.169 814.192C441.229 813.995 439.292 813.794 437.359 813.589L437.445 813.976C435.508 813.771 433.575 813.562 431.646 813.349L431.563 812.963C429.582 812.745 427.605 812.523 425.632 812.297L425.71 812.682C423.736 812.456 421.766 812.226 419.801 811.991L419.727 811.606C417.763 811.372 415.803 811.135 413.848 810.893L413.918 811.277C411.962 811.035 410.01 810.79 408.062 810.54L407.996 810.156C406.05 809.906 404.109 809.653 402.172 809.395L402.234 809.779C400.262 809.517 398.295 809.251 396.333 808.981L396.275 808.598C394.288 808.325 392.306 808.047 390.33 807.765L390.382 808.148C388.404 807.866 386.431 807.58 384.462 807.29L384.414 806.908C382.447 806.618 380.485 806.324 378.529 806.026L378.573 806.407C376.614 806.109 374.662 805.806 372.714 805.5L372.675 805.119C370.715 804.811 368.76 804.498 366.81 804.182L366.845 804.561C364.845 804.236 362.851 803.907 360.864 803.573L360.834 803.195C358.848 802.861 356.867 802.524 354.892 802.182L354.917 802.559C352.94 802.217 350.97 801.871 349.005 801.52L348.985 801.143C347.022 800.792 345.065 800.437 343.114 800.078L343.128 800.454C341.171 800.093 339.221 799.729 337.276 799.36L337.267 798.985C335.263 798.605 333.266 798.22 331.275 797.831L331.279 798.205C329.286 797.815 327.3 797.421 325.32 797.022L325.322 796.649C323.344 796.25 321.373 795.847 319.409 795.439L319.401 795.811C317.435 795.403 315.475 794.99 313.522 794.573L313.535 794.203C311.581 793.785 309.633 793.363 307.692 792.936L307.673 793.306C305.667 792.865 303.669 792.419 301.678 791.968L301.703 791.6C299.714 791.15 297.733 790.695 295.758 790.235L295.727 790.601C293.751 790.141 291.783 789.676 289.822 789.206L289.859 788.841C287.9 788.371 285.949 787.896 284.005 787.417L283.961 787.781C282.001 787.297 280.048 786.809 278.103 786.316L278.153 785.954C276.158 785.448 274.171 784.937 272.192 784.42L272.136 784.78C270.155 784.263 268.182 783.741 266.218 783.214L266.282 782.856C264.32 782.329 262.367 781.797 260.422 781.26L260.352 781.617C258.405 781.079 256.467 780.537 254.537 779.989L254.615 779.634C252.651 779.077 250.696 778.514 248.75 777.946L248.665 778.298C246.686 777.721 244.717 777.137 242.757 776.548L242.85 776.198C240.892 775.61 238.944 775.017 237.006 774.418L236.906 774.766C234.965 774.166 233.034 773.561 231.112 772.95L231.22 772.605C229.3 771.995 227.389 771.379 225.488 770.758L225.372 771.101C223.404 770.457 221.447 769.808 219.5 769.154L219.624 768.814C217.68 768.16 215.746 767.5 213.824 766.835L213.691 767.172C211.766 766.506 209.851 765.833 207.947 765.155L208.089 764.821C206.188 764.144 204.298 763.462 202.419 762.773L202.269 763.104C200.345 762.399 198.433 761.688 196.532 760.971L196.691 760.644C194.772 759.92 192.865 759.19 190.97 758.454L190.801 758.778C188.903 758.041 187.017 757.297 185.143 756.547L185.321 756.227C183.45 755.479 181.591 754.724 179.745 753.964L179.558 754.28C177.682 753.508 175.819 752.729 173.969 751.944L174.166 751.631C172.286 750.834 170.42 750.029 168.567 749.219L168.36 749.527C166.504 748.715 164.661 747.896 162.832 747.071L163.049 746.768C161.223 745.944 159.41 745.114 157.612 744.278L157.384 744.577C155.564 743.731 153.757 742.878 151.965 742.018L152.203 741.724C150.38 740.85 148.572 739.969 146.779 739.081L146.53 739.37C144.733 738.48 142.951 737.584 141.184 736.681L141.444 736.398C139.68 735.496 137.932 734.588 136.199 733.674L135.928 733.951C134.175 733.026 132.437 732.094 130.715 731.154L130.997 730.883C129.251 729.931 127.521 728.972 125.808 728.006L125.515 728.271C123.798 727.303 122.097 726.328 120.413 725.346L120.718 725.087C119.037 724.107 117.373 723.12 115.726 722.126L115.41 722.378C113.742 721.372 112.091 720.358 110.457 719.337L110.785 719.093C109.139 718.064 107.51 717.029 105.9 715.986L105.56 716.223C103.945 715.177 102.348 714.125 100.768 713.064L101.12 712.835C99.5447 711.778 97.9873 710.713 96.4478 709.641L96.0846 709.863C94.5264 708.778 92.9866 707.686 91.4655 706.586L91.8405 706.373C90.3171 705.272 88.8125 704.163 87.3268 703.047L86.9401 703.252C85.4506 702.133 83.98 701.007 82.5285 699.873L82.9267 699.677C81.479 698.547 80.0505 697.409 78.6413 696.264L78.2318 696.45C76.8107 695.295 75.4092 694.133 74.0275 692.963L74.4482 692.786C73.0698 691.619 71.7111 690.445 70.3724 689.263L69.9406 689.431C68.5983 688.246 67.2759 687.054 65.9736 685.854L66.4161 685.696C65.1182 684.501 63.8404 683.298 62.5828 682.088L62.1298 682.236C60.8714 681.025 59.6332 679.806 58.4154 678.581L58.8786 678.443C57.6642 677.22 56.4702 675.991 55.2967 674.754L54.8237 674.882C53.647 673.642 52.4909 672.394 51.3557 671.14L51.8383 671.022C51.2722 670.396 50.7113 669.769 50.1557 669.139C49.6003 668.511 49.0511 667.881 48.5079 667.25L48.0162 667.358C46.9262 666.092 45.8607 664.824 44.8194 663.553L45.3199 663.456C44.2815 662.188 43.2673 660.917 42.2773 659.642L41.7685 659.729C40.7757 658.451 39.8072 657.171 38.8628 655.887L39.3796 655.811C38.4358 654.529 37.5162 653.243 36.6206 651.954L36.0962 652.02C35.1976 650.727 34.3232 649.431 33.4728 648.133L34.0042 648.078C33.1561 646.783 32.332 645.486 31.5317 644.185L30.9936 644.229C30.1914 642.926 29.4131 641.62 28.6586 640.311L29.203 640.277C28.4549 638.979 27.7302 637.679 27.0289 636.376L26.4788 636.399C25.7757 635.093 25.096 633.784 24.4397 632.473L24.9952 632.46C24.3406 631.152 23.7093 629.841 23.1013 628.529L22.5409 628.532C21.9337 627.221 21.3497 625.908 20.7886 624.593L21.3534 624.6C20.7991 623.301 20.2672 622 19.7578 620.696L19.189 620.679C18.6783 619.373 18.19 618.064 17.7242 616.753L18.2966 616.779C17.8318 615.472 17.3894 614.162 16.9692 612.85L16.3937 612.815C15.9766 611.513 15.5814 610.209 15.208 608.904L15.7864 608.949C15.4176 607.66 15.07 606.369 14.7436 605.076L14.1629 605.023C13.8357 603.727 13.5299 602.43 13.2451 601.131L13.828 601.194C13.5439 599.898 13.2808 598.6 13.0388 597.301L12.4543 597.23C12.2155 595.948 11.9971 594.665 11.7991 593.38L12.3851 593.46C12.1894 592.19 12.0135 590.919 11.8575 589.647L11.2704 589.559C11.1141 588.284 10.9776 587.008 10.8609 585.73L11.4489 585.826C11.3324 584.551 11.2357 583.275 11.1586 581.998L10.5701 581.895C10.4944 580.639 10.4376 579.381 10.3997 578.123L10.9885 578.234C10.9511 576.991 10.9322 575.747 10.9316 574.502L10.3427 574.384C10.3421 573.137 10.3601 571.889 10.3963 570.64L10.9852 570.764C11.0214 569.517 11.076 568.27 11.1488 567.021L10.5602 566.89C10.6319 565.661 10.7212 564.431 10.8281 563.201L11.4162 563.339C11.5215 562.128 11.6438 560.916 11.7832 559.703L11.1957 559.559C11.3353 558.345 11.4919 557.13 11.6655 555.914L12.2522 556.064C12.4255 554.85 12.6158 553.636 12.8229 552.421L12.2372 552.265C12.4423 551.062 12.664 549.858 12.9022 548.654L13.4869 548.816C13.7195 547.64 13.9678 546.463 14.2318 545.286L13.6482 545.12C13.9126 543.941 14.1926 542.762 14.4883 541.583L15.0707 541.755C15.3659 540.577 15.6768 539.4 16.0033 538.222L15.4223 538.044C15.7492 536.864 16.0917 535.684 16.4497 534.504L17.0292 534.686C17.3749 533.547 17.7352 532.406 18.1099 531.266L17.5319 531.079C17.9067 529.938 18.296 528.797 18.6997 527.656L19.2762 527.848C19.6793 526.708 20.0968 525.569 20.5287 524.429L19.9538 524.233C20.3862 523.092 20.8329 521.951 21.2939 520.809L21.867 521.01C22.3202 519.888 22.7872 518.766 23.268 517.644L22.6967 517.439C23.1691 516.337 23.6548 515.234 24.1537 514.132L24.7233 514.341C25.2216 513.24 25.7331 512.139 26.2578 511.038L25.69 510.826C26.2153 509.724 26.7538 508.622 27.3054 507.52L27.8712 507.736C28.4222 506.636 28.9862 505.536 29.5633 504.436L28.9994 504.216C29.5619 503.143 30.1368 502.071 30.7241 501L31.2861 501.223C31.8684 500.161 32.4628 499.099 33.0693 498.037L32.5091 497.809C33.1163 496.746 33.7355 495.683 34.3669 494.621L34.9251 494.852C35.5557 493.79 36.1985 492.729 36.8532 491.668L36.297 491.435C36.9525 490.373 37.6199 489.312 38.2993 488.251L38.8535 488.488C39.5111 487.461 40.1798 486.435 40.8598 485.409L40.3076 485.169C40.987 484.144 41.6776 483.119 42.3793 482.095L42.9295 482.338C43.6305 481.315 44.3426 480.292 45.0658 479.27L44.5176 479.024C45.2415 478.001 45.9765 476.978 46.7225 475.956L47.2686 476.205C48.014 475.184 48.7703 474.163 49.5377 473.143L48.9936 472.892C49.7384 471.902 50.4934 470.912 51.2588 469.923L51.8009 470.178C52.5642 469.192 53.3377 468.206 54.1215 467.221L53.5815 466.964C54.3659 465.979 55.1606 464.993 55.9655 464.009L56.5035 464.268C57.3077 463.285 58.1221 462.302 58.9466 461.319L58.4107 461.057C59.2359 460.074 60.0713 459.092 60.9168 458.11L61.4507 458.374C62.2751 457.417 63.1092 456.46 63.9529 455.504L63.421 455.238C64.2593 454.288 65.1071 453.339 65.9643 452.391L66.4942 452.659C67.3507 451.712 68.2167 450.765 69.092 449.819L68.5642 449.548C69.4402 448.601 70.3256 447.655 71.2204 446.709L71.7462 446.983C72.6404 446.038 73.5439 445.094 74.4567 444.151L73.9329 443.876C74.8343 442.945 75.7449 442.014 76.6645 441.085L77.1863 441.362C78.0896 440.449 79.0016 439.536 79.9224 438.625L79.4026 438.346C80.324 437.434 81.2541 436.522 82.193 435.612L82.7108 435.893C83.649 434.983 84.5958 434.074 85.5514 433.166L85.0355 432.883C85.9917 431.974 86.9566 431.066 87.9301 430.159L88.4439 430.444C89.4167 429.538 90.3982 428.633 91.3882 427.728L90.8764 427.442C91.8403 426.561 92.8124 425.681 93.7925 424.802L94.3024 425.091C95.2802 424.214 96.2661 423.339 97.26 422.464L96.7521 422.174C97.7467 421.298 98.7493 420.424 99.76 419.55L100.266 419.842C101.276 418.97 102.294 418.098 103.32 417.227L102.816 416.933C103.843 416.061 104.878 415.191 105.92 414.321L106.422 414.617C107.456 413.754 108.498 412.893 109.548 412.033L109.048 411.736C110.077 410.892 111.114 410.05 112.158 409.208L112.657 409.507C113.7 408.666 114.752 407.826 115.81 406.986L115.314 406.686C116.373 405.847 117.44 405.008 118.514 404.171L119.009 404.472C120.082 403.635 121.163 402.8 122.252 401.965L121.759 401.662C122.848 400.826 123.945 399.992 125.049 399.159L125.539 399.463C126.629 398.641 127.727 397.819 128.831 396.998L128.342 396.693C129.432 395.884 130.528 395.075 131.631 394.268L132.118 394.576C133.22 393.769 134.329 392.964 135.446 392.159L134.961 391.851C136.078 391.046 137.201 390.242 138.332 389.44L138.815 389.75C139.946 388.947 141.083 388.146 142.227 387.347L141.745 387.036C142.89 386.235 144.041 385.436 145.2 384.638L145.679 384.951C146.823 384.163 147.974 383.376 149.131 382.59L148.653 382.276C149.796 381.501 150.945 380.726 152.101 379.952L152.577 380.267C153.732 379.494 154.893 378.722 156.061 377.952L155.587 377.636C156.755 376.865 157.93 376.095 159.112 375.326L159.584 375.643C160.765 374.875 161.952 374.108 163.146 373.342L162.675 373.023C163.87 372.257 165.07 371.492 166.277 370.728L166.746 371.048C167.943 370.29 169.146 369.534 170.355 368.779L169.888 368.459C171.079 367.715 172.276 366.973 173.479 366.232L173.944 366.554C175.146 365.814 176.354 365.074 177.569 364.336L177.106 364.013C178.321 363.275 179.542 362.538 180.769 361.802L181.23 362.126C182.457 361.39 183.689 360.656 184.928 359.922L184.468 359.597C185.707 358.864 186.952 358.132 188.203 357.401L188.661 357.727C189.91 356.997 191.164 356.269 192.425 355.542L191.969 355.215C193.203 354.503 194.443 353.792 195.689 353.083L196.144 353.411C197.389 352.702 198.64 351.994 199.897 351.288L199.444 350.959C200.701 350.252 201.964 349.546 203.232 348.842L203.683 349.172C204.951 348.468 206.225 347.766 207.504 347.064L207.055 346.733C208.334 346.032 209.62 345.331 210.91 344.632L211.358 344.964C212.648 344.266 213.944 343.568 215.246 342.872L214.8 342.54C216.084 341.853 217.374 341.167 218.67 340.483L219.114 340.817C220.398 340.138 221.688 339.461 222.983 338.785L222.541 338.45C223.836 337.774 225.137 337.099 226.444 336.426L226.884 336.761C228.19 336.088 229.501 335.416 230.817 334.746L230.378 334.41C231.695 333.739 233.017 333.069 234.344 332.401L234.782 332.739C236.109 332.071 237.441 331.404 238.778 330.74L238.342 330.401C239.678 329.737 241.019 329.074 242.365 328.413L242.8 328.752C244.12 328.103 245.445 327.455 246.776 326.809L246.344 326.469C247.675 325.823 249.011 325.178 250.352 324.534L250.782 324.875C252.123 324.232 253.468 323.59 254.819 322.949L254.39 322.608C255.74 321.967 257.096 321.327 258.457 320.689L258.885 321.032C260.245 320.394 261.61 319.757 262.98 319.123L262.554 318.78C263.925 318.145 265.301 317.511 266.681 316.879L267.105 317.222C268.475 316.595 269.851 315.968 271.231 315.344L270.808 314.999C272.172 314.382 273.54 313.766 274.913 313.151L275.334 313.496C276.707 312.882 278.084 312.269 279.466 311.658L279.047 311.312C280.429 310.7 281.816 310.09 283.208 309.481L283.626 309.828C285.017 309.219 286.413 308.612 287.813 308.006L287.398 307.659C288.799 307.053 290.204 306.449 291.615 305.846L292.029 306.194C293.439 305.591 294.853 304.99 296.272 304.39L295.86 304.041C297.266 303.447 298.676 302.854 300.091 302.263L300.502 302.612C301.904 302.026 303.311 301.442 304.723 300.859L304.313 300.509C305.725 299.925 307.141 299.343 308.562 298.763L308.97 299.114C310.39 298.533 311.814 297.955 313.243 297.377L312.837 297.026C314.267 296.449 315.7 295.873 317.139 295.298L317.543 295.65C318.981 295.076 320.423 294.503 321.869 293.932L321.466 293.58C322.913 293.008 324.364 292.438 325.82 291.87L326.221 292.223C327.662 291.661 329.107 291.1 330.556 290.54L330.157 290.186C331.596 289.631 333.04 289.076 334.487 288.524L334.885 288.878C336.333 288.326 337.784 287.775 339.239 287.225L338.843 286.87C340.299 286.321 341.759 285.773 343.223 285.226L343.618 285.582C345.082 285.035 346.55 284.49 348.022 283.947L347.628 283.591C349.101 283.047 350.578 282.505 352.059 281.965L352.45 282.322C353.93 281.782 355.415 281.243 356.903 280.706L356.513 280.349C357.99 279.816 359.471 279.284 360.956 278.755L361.345 279.113C362.817 278.587 364.294 278.063 365.774 277.541L365.387 277.182C366.869 276.66 368.353 276.139 369.842 275.62L370.228 275.979C371.716 275.46 373.208 274.942 374.705 274.426L374.321 274.066C375.818 273.55 377.318 273.036 378.823 272.522L379.205 272.883C380.709 272.37 382.217 271.859 383.729 271.349L383.348 270.988C384.86 270.478 386.376 269.97 387.896 269.463L388.276 269.825C389.788 269.321 391.304 268.818 392.824 268.317L392.447 267.955C393.951 267.459 395.46 266.965 396.972 266.473L397.348 266.835C398.86 266.342 400.375 265.851 401.894 265.362L401.52 264.999C403.04 264.51 404.563 264.022 406.09 263.536L406.463 263.899C407.989 263.413 409.52 262.928 411.053 262.446L410.682 262.082C412.217 261.599 413.755 261.117 415.297 260.637L415.666 261.002C417.208 260.522 418.753 260.044 420.301 259.568L419.933 259.203C421.482 258.727 423.035 258.252 424.591 257.779L424.957 258.144C426.491 257.678 428.029 257.213 429.57 256.75L429.205 256.384C430.746 255.921 432.291 255.459 433.84 254.999L434.203 255.365C435.751 254.906 437.303 254.447 438.858 253.991L438.496 253.624C440.052 253.167 441.611 252.712 443.173 252.259L443.533 252.626C445.096 252.173 446.661 251.721 448.23 251.271L447.871 250.904C449.441 250.454 451.014 250.005 452.591 249.559L452.948 249.927C454.524 249.48 456.103 249.035 457.686 248.592L457.331 248.224C458.901 247.784 460.475 247.346 462.053 246.909L462.407 247.278C463.975 246.844 465.547 246.412 467.122 245.981L466.77 245.612C468.346 245.181 469.925 244.752 471.508 244.325L471.858 244.694C473.44 244.267 475.026 243.841 476.614 243.418L476.265 243.047C477.854 242.623 479.447 242.201 481.042 241.78L481.39 242.151C482.985 241.73 484.584 241.312 486.186 240.894L485.84 240.523C487.442 240.106 489.048 239.691 490.657 239.277L491.001 239.648C492.607 239.235 494.217 238.824 495.83 238.414L495.487 238.042C497.082 237.637 498.681 237.233 500.283 236.831L500.624 237.204C502.225 236.802 503.829 236.402 505.437 236.004L505.097 235.631C506.705 235.233 508.316 234.836 509.93 234.441L510.269 234.814C511.882 234.419 513.499 234.026 515.119 233.635L514.783 233.261C516.403 232.87 518.027 232.48 519.654 232.092L519.989 232.466C521.615 232.078 523.245 231.692 524.877 231.307L524.544 230.933C526.177 230.549 527.813 230.166 529.453 229.785L529.784 230.159C530.604 229.969 531.424 229.779 532.245 229.589C533.066 229.4 533.886 229.211 534.707 229.023L534.377 228.648C536.02 228.271 537.663 227.896 539.308 227.524L539.636 227.9C541.28 227.527 542.924 227.158 544.568 226.79L544.241 226.415C545.886 226.047 547.532 225.682 549.178 225.319L549.503 225.695C551.149 225.333 552.795 224.973 554.441 224.615L554.117 224.238C555.764 223.88 557.411 223.525 559.059 223.171L559.381 223.548C561.029 223.195 562.676 222.844 564.324 222.495L564.004 222.118C565.652 221.77 567.301 221.423 568.951 221.079L569.27 221.457C570.937 221.109 572.605 220.764 574.274 220.421L573.956 220.043C575.627 219.699 577.299 219.358 578.97 219.019L579.286 219.397C580.957 219.059 582.629 218.723 584.3 218.389L583.987 218.01C585.659 217.676 587.332 217.345 589.004 217.016L589.317 217.394C590.989 217.065 592.662 216.739 594.335 216.415L594.024 216.035C595.698 215.711 597.371 215.389 599.045 215.069L599.354 215.449C601.028 215.129 602.702 214.812 604.375 214.498L604.068 214.118C605.751 213.801 607.435 213.487 609.119 213.176L609.424 213.556C611.121 213.241 612.818 212.93 614.516 212.621L614.212 212.24C615.91 211.931 617.608 211.624 619.306 211.32L619.608 211.7C621.306 211.396 623.003 211.094 624.701 210.794L624.401 210.414C626.099 210.114 627.798 209.817 629.496 209.522L629.795 209.903C631.493 209.609 633.191 209.317 634.89 209.027L634.593 208.645C636.291 208.355 637.99 208.068 639.689 207.783L639.985 208.165C641.683 207.88 643.381 207.598 645.08 207.318L644.786 206.936C646.509 206.651 648.232 206.37 649.955 206.091L650.247 206.473C651.97 206.194 653.693 205.918 655.416 205.644L655.126 205.261C656.849 204.987 658.572 204.715 660.296 204.446L660.584 204.829C662.307 204.56 664.03 204.293 665.752 204.029L665.466 203.646C667.189 203.382 668.912 203.12 670.635 202.861L670.92 203.244C672.642 202.985 674.364 202.728 676.086 202.474L675.803 202.09C677.526 201.836 679.249 201.584 680.971 201.335L681.252 201.719C682.992 201.467 684.732 201.218 686.472 200.971L686.192 200.587C687.941 200.339 689.689 200.093 691.437 199.85L691.715 200.235C693.462 199.992 695.209 199.752 696.956 199.514L696.68 199.129C698.428 198.891 700.175 198.656 701.922 198.423L702.196 198.808C703.942 198.576 705.689 198.345 707.434 198.118L707.162 197.732C708.909 197.505 710.655 197.28 712.401 197.057L712.671 197.443C714.416 197.22 716.161 197 717.906 196.783L717.637 196.397C719.397 196.177 721.155 195.961 722.914 195.747L723.18 196.133C724.952 195.917 726.724 195.704 728.495 195.493L728.231 195.107C730.003 194.896 731.774 194.688 733.545 194.483L733.808 194.869C735.578 194.664 737.348 194.461 739.118 194.261L738.857 193.874C740.627 193.674 742.397 193.476 744.166 193.281L744.425 193.668C746.193 193.473 747.961 193.281 749.729 193.091L749.472 192.704C751.24 192.514 753.008 192.327 754.774 192.142L755.029 192.529C756.808 192.343 758.587 192.16 760.365 191.979L760.112 191.592C761.908 191.409 763.704 191.23 765.499 191.052L765.75 191.44C767.544 191.263 769.338 191.089 771.131 190.917L770.882 190.529C772.676 190.357 774.469 190.188 776.261 190.021L776.508 190.41C778.3 190.243 780.091 190.079 781.881 189.918L781.636 189.53C783.427 189.369 785.217 189.21 787.006 189.055L787.249 189.443C789.038 189.287 790.826 189.134 792.613 188.984L792.372 188.595C794.175 188.443 795.978 188.294 797.779 188.148L798.018 188.537C799.836 188.389 801.653 188.244 803.47 188.102L803.233 187.713C805.05 187.571 806.867 187.431 808.682 187.294L808.916 187.683C810.731 187.547 812.545 187.413 814.357 187.282L814.125 186.892C815.939 186.761 817.751 186.632 819.563 186.507L819.793 186.896C821.604 186.77 823.414 186.647 825.223 186.527L824.994 186.137C826.804 186.017 828.613 185.9 830.42 185.785L830.646 186.175C832.475 186.058 834.303 185.945 836.13 185.834L835.906 185.444C837.746 185.333 839.586 185.224 841.424 185.119L841.645 185.509C843.483 185.403 845.319 185.3 847.154 185.2L846.935 184.81C848.771 184.71 850.605 184.613 852.439 184.518L852.656 184.908C854.488 184.814 856.32 184.722 858.15 184.634L857.935 184.243C859.766 184.154 861.596 184.069 863.424 183.985L863.637 184.376C865.464 184.293 867.291 184.212 869.116 184.135L868.905 183.744C870.766 183.665 872.626 183.589 874.484 183.516L874.691 183.907C876.551 183.834 878.41 183.763 880.266 183.696L880.061 183.305C881.919 183.238 883.775 183.173 885.63 183.112L885.833 183.503C887.687 183.441 889.539 183.383 891.39 183.327L891.19 182.936C893.041 182.88 894.892 182.827 896.74 182.778L896.939 183.169C898.786 183.119 900.633 183.072 902.478 183.028L902.282 182.637C904.142 182.592 906 182.551 907.857 182.512L908.051 182.904C909.932 182.865 911.812 182.829 913.691 182.796L913.5 182.404C915.379 182.371 917.256 182.342 919.131 182.315L919.32 182.706C921.194 182.679 923.067 182.655 924.938 182.634L924.753 182.243C926.624 182.222 928.495 182.204 930.363 182.189L930.546 182.581C932.413 182.566 934.279 182.554 936.143 182.545L935.962 182.154C937.826 182.145 939.689 182.139 941.55 182.137L941.728 182.528C943.628 182.525 945.526 182.525 947.422 182.529L947.246 182.138C949.146 182.141 951.043 182.148 952.939 182.157L953.111 182.549C955.006 182.558 956.898 182.571 958.788 182.587L958.618 182.196C960.509 182.212 962.398 182.231 964.285 182.253L964.452 182.645C966.338 182.667 968.222 182.692 970.103 182.721L969.939 182.329C971.821 182.358 973.701 182.39 975.579 182.424L975.741 182.816C977.648 182.851 979.553 182.889 981.455 182.931L981.296 182.54C983.215 182.582 985.131 182.628 987.045 182.676L987.201 183.067C989.114 183.116 991.024 183.168 992.932 183.223L992.779 182.832C994.688 182.887 996.595 182.945 998.498 183.007L998.649 183.398C1000.55 183.46 1002.45 183.525 1004.35 183.593L1004.2 183.202C1006.1 183.27 1008 183.342 1009.89 183.416L1010.04 183.807C1011.95 183.883 1013.87 183.962 1015.78 184.044L1015.64 183.653C1017.58 183.737 1019.51 183.823 1021.44 183.914L1021.58 184.304C1023.51 184.394 1025.44 184.488 1027.36 184.585L1027.22 184.194C1029.15 184.291 1031.07 184.392 1032.99 184.495L1033.12 184.885C1035.04 184.989 1036.96 185.096 1038.87 185.207L1038.74 184.817C1040.65 184.927 1042.56 185.041 1044.47 185.158L1044.6 185.548C1046.53 185.667 1048.46 185.79 1050.39 185.916L1050.27 185.526C1052.22 185.653 1054.17 185.785 1056.11 185.919L1056.23 186.308C1058.18 186.443 1060.12 186.581 1062.06 186.723L1061.94 186.334C1063.88 186.475 1065.81 186.621 1067.75 186.77L1067.86 187.158C1069.79 187.307 1071.72 187.459 1073.64 187.615L1073.53 187.227C1075.46 187.383 1077.38 187.542 1079.3 187.705L1079.4 188.093C1081.36 188.259 1083.31 188.429 1085.26 188.603L1085.16 188.215C1087.12 188.39 1089.08 188.569 1091.04 188.751L1091.14 189.139C1093.1 189.321 1095.05 189.507 1097 189.697L1096.9 189.31C1098.85 189.5 1100.8 189.693 1102.74 189.891L1102.83 190.278C1104.77 190.475 1106.71 190.676 1108.64 190.88L1108.55 190.494C1110.49 190.699 1112.42 190.908 1114.35 191.12L1114.44 191.506C1116.42 191.725 1118.39 191.947 1120.37 192.173L1120.29 191.788C1122.26 192.014 1124.23 192.244 1126.2 192.478L1126.27 192.863C1128.24 193.097 1130.2 193.335 1132.15 193.577L1132.08 193.192C1134.04 193.434 1135.99 193.68 1137.94 193.93L1138 194.314C1139.95 194.563 1141.89 194.817 1143.83 195.074L1143.77 194.691C1145.74 194.953 1147.7 195.219 1149.67 195.489L1149.72 195.872C1151.71 196.145 1153.69 196.423 1155.67 196.704L1155.62 196.322C1157.6 196.604 1159.57 196.89 1161.54 197.18L1161.59 197.562C1163.55 197.852 1165.51 198.146 1167.47 198.444L1167.43 198.063C1169.38 198.361 1171.34 198.663 1173.29 198.97L1173.32 199.35C1175.28 199.659 1177.24 199.971 1179.19 200.288L1179.15 199.909C1181.15 200.234 1183.15 200.563 1185.14 200.896L1185.17 201.275C1187.15 201.608 1189.13 201.946 1191.11 202.288L1191.08 201.91C1193.06 202.252 1195.03 202.599 1196.99 202.95L1197.01 203.327C1198.98 203.678 1200.93 204.033 1202.89 204.392L1202.87 204.016C1204.83 204.376 1206.78 204.741 1208.72 205.11L1208.73 205.485C1210.74 205.865 1212.73 206.25 1214.72 206.639L1214.72 206.265C1216.71 206.655 1218.7 207.049 1220.68 207.448L1220.68 207.821C1222.65 208.219 1224.63 208.623 1226.59 209.03L1226.6 208.658C1228.56 209.067 1230.52 209.479 1232.48 209.896L1232.46 210.267C1234.42 210.685 1236.37 211.107 1238.31 211.533L1238.33 211.164C1240.33 211.605 1242.33 212.051 1244.32 212.502L1244.3 212.87C1246.29 213.32 1248.27 213.775 1250.24 214.235L1250.27 213.868C1252.25 214.329 1254.22 214.794 1256.18 215.264L1256.14 215.629C1258.1 216.099 1260.05 216.573 1261.99 217.053L1262.04 216.689C1264 217.172 1265.95 217.661 1267.9 218.154L1267.85 218.516C1269.84 219.022 1271.83 219.533 1273.81 220.049L1273.86 219.689C1275.84 220.206 1277.82 220.728 1279.78 221.256L1279.72 221.614C1281.68 222.141 1283.63 222.672 1285.58 223.209L1285.65 222.853C1287.59 223.39 1289.53 223.933 1291.46 224.481L1291.38 224.835C1293.35 225.393 1295.3 225.956 1297.25 226.524L1297.33 226.171C1299.31 226.749 1301.28 227.332 1303.24 227.921L1303.15 228.271C1305.11 228.859 1307.05 229.453 1308.99 230.052L1309.09 229.704C1311.03 230.304 1312.97 230.909 1314.89 231.519L1314.78 231.865C1316.7 232.475 1318.61 233.091 1320.51 233.712L1320.63 233.369C1322.59 234.012 1324.55 234.661 1326.5 235.316L1326.38 235.656C1328.32 236.31 1330.25 236.97 1332.18 237.635L1332.31 237.298C1334.23 237.964 1336.15 238.636 1338.05 239.314L1337.91 239.648C1339.81 240.325 1341.7 241.008 1343.58 241.696L1343.73 241.365C1345.65 242.07 1347.57 242.781 1349.47 243.498L1349.31 243.826C1351.23 244.55 1353.13 245.28 1355.03 246.016L1355.2 245.692C1357.1 246.429 1358.98 247.173 1360.86 247.922L1360.68 248.243C1362.55 248.991 1364.41 249.745 1366.25 250.506L1366.44 250.189C1368.32 250.962 1370.18 251.741 1372.03 252.526L1371.83 252.838C1373.71 253.636 1375.58 254.44 1377.43 255.251L1377.64 254.943C1379.5 255.755 1381.34 256.573 1383.17 257.398L1382.95 257.702C1384.78 258.525 1386.59 259.355 1388.39 260.191L1388.61 259.893C1390.44 260.739 1392.24 261.592 1394.03 262.452L1393.8 262.746C1395.62 263.62 1397.43 264.501 1399.22 265.389L1399.47 265.1C1401.27 265.989 1403.05 266.886 1404.82 267.789L1404.56 268.072C1406.32 268.973 1408.07 269.881 1409.8 270.796L1410.07 270.518C1411.82 271.444 1413.56 272.376 1415.28 273.315L1415 273.587C1416.75 274.539 1418.48 275.497 1420.19 276.463L1420.48 276.198C1422.2 277.166 1423.9 278.142 1425.59 279.124L1425.28 279.382C1426.96 280.362 1428.63 281.349 1430.27 282.343L1430.59 282.092C1432.26 283.098 1433.91 284.112 1435.54 285.132L1435.21 285.377C1436.86 286.405 1438.49 287.441 1440.1 288.484L1440.44 288.247C1442.05 289.292 1443.65 290.345 1445.23 291.405L1444.88 291.634C1446.45 292.692 1448.01 293.756 1449.55 294.828L1449.91 294.607C1451.47 295.692 1453.01 296.784 1454.53 297.884L1454.16 298.097C1455.68 299.198 1457.19 300.306 1458.67 301.422L1459.06 301.218C1460.55 302.337 1462.02 303.463 1463.47 304.597L1463.07 304.792C1464.52 305.923 1465.95 307.061 1467.36 308.206L1467.77 308.019C1469.19 309.174 1470.59 310.337 1471.97 311.506L1471.55 311.684C1472.93 312.85 1474.29 314.025 1475.63 315.206L1476.06 315.039C1477.4 316.223 1478.72 317.416 1480.03 318.615L1479.58 318.773C1480.88 319.969 1482.16 321.172 1483.42 322.382L1483.87 322.234C1485.13 323.445 1486.37 324.663 1487.58 325.889L1487.12 326.027C1488.33 327.249 1489.53 328.479 1490.7 329.716L1491.18 329.588Z" stroke="#E41E0A" stroke-dasharray="5 5"/>
</svg>
