<svg width="159" height="16" viewBox="0 0 159 16" fill="none" xmlns="http://www.w3.org/2000/svg">
<path d="M11.3871 7.46359C12.0318 8.0018 12.4812 8.53072 12.7461 9.04727C13.0109 9.56692 13.1398 10.1608 13.1398 10.8475C13.1398 12.094 12.6067 13.1519 11.537 14.0148C11.2791 14.2314 11.0317 14.4046 10.7913 14.5407C10.5474 14.6737 10.2686 14.7788 9.98987 14.8562C9.71111 14.9335 9.36267 14.9892 9.01422 15.017C8.63093 15.0479 8.2128 15.0603 7.69013 15.0603H3.50879C2.91643 15.0603 2.46346 15.0139 2.14986 14.9211C1.83625 14.8283 1.52265 14.6118 1.2439 14.3334C1.08361 14.1788 0.94772 13.9994 0.836217 13.8076C0.724715 13.6158 0.648057 13.4364 0.592306 13.2508C0.578368 13.158 0.567915 13.0405 0.557461 12.8889C0.547008 12.7436 0.540039 12.4435 0.540039 11.9919V3.27241C0.547008 2.56099 0.818795 1.97948 1.31359 1.54025C1.83625 1.08866 2.47042 0.859766 3.26488 0.859766H5.51583C5.94791 0.859766 6.31029 0.869045 6.60647 0.875231C6.88522 0.875231 7.12913 0.887604 7.37305 0.906163C7.58211 0.918535 7.75634 0.937094 7.93056 0.955653C8.10478 0.977305 8.24416 1.00205 8.41838 1.02989C9.50901 1.27115 10.4045 1.77842 11.1014 2.55171C11.7635 3.32499 12.1119 4.23437 12.1119 5.28294C12.1119 5.69432 12.0527 6.05003 11.9481 6.34697C11.8436 6.64391 11.6415 7.01509 11.3558 7.45431L11.3871 7.46359ZM5.78065 6.35316H6.40785C6.77024 6.35316 7.0246 6.30676 7.17443 6.22943C7.31381 6.14901 7.3835 6.01292 7.3835 5.81186C7.3835 5.61081 7.30336 5.47162 7.14656 5.38501C6.98627 5.2984 6.72842 5.26129 6.35559 5.26129H5.79807V6.34388L5.78065 6.35316ZM5.78065 10.6835H6.6657C7.12913 10.6835 7.43228 10.6464 7.58908 10.5691C7.74588 10.4918 7.81209 10.3433 7.81209 10.1361C7.81209 9.91954 7.72149 9.76488 7.53333 9.67209C7.34517 9.57929 7.06641 9.54218 6.64828 9.54218H5.81201V10.6959L5.78065 10.6835ZM58.3958 2.00422C58.6049 1.63305 58.9185 1.33301 59.3367 1.09794C59.7548 0.872138 60.2078 0.748413 60.7095 0.748413C61.0231 0.748413 61.3576 0.810276 61.6956 0.918535C62.0336 1.03298 62.3124 1.18764 62.5319 1.3825C62.7619 1.58665 62.9326 1.79698 63.0546 2.02587C63.18 2.25477 63.2776 2.56099 63.3577 2.94453L65.1696 12.0878C65.2045 12.2425 65.2289 12.3879 65.2393 12.5147C65.2498 12.6415 65.2742 12.7621 65.2742 12.8858C65.2742 13.2137 65.2045 13.5138 65.0651 13.789C64.9327 14.0674 64.7515 14.3087 64.518 14.5005C64.2881 14.7046 64.0128 14.8654 63.6957 14.9861C63.3786 15.1067 63.0406 15.1593 62.6852 15.1593C62.0162 15.1593 61.4413 14.9954 60.9604 14.6706C60.4726 14.3427 60.1938 13.9097 60.0684 13.3715L59.4621 10.7114L58.4342 13.2168C57.9115 14.5097 57.0056 15.1562 55.7302 15.1562C55.0682 15.1562 54.5281 15.0015 54.0926 14.6984C53.664 14.3891 53.312 13.9035 53.0403 13.2446L51.9949 10.7083L51.5628 12.9663C51.4339 13.6468 51.1343 14.1788 50.6639 14.5747C50.176 14.9582 49.5906 15.1531 48.9216 15.1531C48.1202 15.1531 47.493 14.9149 47.0052 14.4417C46.493 13.9653 46.2386 13.3529 46.2386 12.6013C46.2386 12.4961 46.2491 12.4002 46.256 12.3105C46.256 12.2177 46.2769 12.1249 46.2909 12.0198L48.1307 2.95691C48.2596 2.27642 48.5488 1.73512 49.0018 1.34848C49.4617 0.955653 50.0332 0.760786 50.7196 0.760786C51.2771 0.760786 51.7998 0.903069 52.2876 1.18454C52.7754 1.46293 53.1343 1.84957 53.3608 2.329L55.7302 7.03056L58.3924 1.98876" fill="black"/>
<path d="M71.9016 15.4138C71.0549 15.4138 70.2639 15.321 69.5322 15.1354C68.7935 14.956 68.1523 14.7024 67.6088 14.3745C67.0652 14.0466 66.6436 13.6631 66.3404 13.23C66.0617 12.8032 65.8875 12.333 65.8875 11.8196C65.8875 11.5226 65.9571 11.2442 66.0965 10.9906C66.215 10.7339 66.3753 10.5112 66.5983 10.3194C66.8073 10.1276 67.0687 9.97914 67.3649 9.8616C67.661 9.74716 67.9781 9.69148 68.3057 9.69148C68.6193 9.69148 68.9329 9.74406 69.2325 9.85232C69.5252 9.95749 69.8388 10.1307 70.1733 10.372L70.8702 10.8421C71.0444 10.9535 71.1908 11.0432 71.3023 11.1081C71.4068 11.17 71.5114 11.2102 71.581 11.2226C71.6647 11.2381 71.7553 11.2442 71.8493 11.2442C72.0584 11.2442 72.2326 11.1886 72.3372 11.0741C72.4661 10.9628 72.5288 10.8112 72.5288 10.6287C72.5288 10.3874 72.3894 10.1895 72.1107 10.0317C72.0758 10.0194 72.041 10.0008 72.0061 9.97914L71.8319 9.90491L71.5532 9.78118L71.0653 9.59559L70.4033 9.39454C70.1942 9.33268 69.9852 9.27081 69.7587 9.19348C67.438 8.46969 66.2742 7.12108 66.2742 5.15075C66.2742 4.4517 66.4136 3.8207 66.7063 3.25465C66.999 2.6886 67.3962 2.20298 67.9084 1.7885C68.4206 1.37402 69.0304 1.05543 69.7552 0.829626C70.4869 0.600733 71.2883 0.48938 72.1525 0.48938C72.8703 0.48938 73.5463 0.569802 74.163 0.736831C74.7902 0.891488 75.3303 1.11419 75.7937 1.39258C76.2607 1.67096 76.623 1.99265 76.8879 2.36692C77.1492 2.7381 77.2781 3.14948 77.2781 3.58871C77.2781 4.15475 77.076 4.61873 76.6927 4.98062C76.3094 5.34252 75.8146 5.52502 75.2084 5.52502C74.8355 5.52502 74.494 5.46315 74.1735 5.33943C73.8599 5.22189 73.4766 5.01465 73.0236 4.7208C72.7553 4.51975 72.5358 4.38674 72.379 4.31869C72.2152 4.24446 72.0654 4.20734 71.926 4.20734C71.7518 4.20734 71.5985 4.25683 71.473 4.362C71.358 4.47026 71.2988 4.60326 71.2988 4.75792C71.2988 4.97444 71.4033 5.14147 71.6124 5.26829C71.8354 5.39201 72.257 5.54667 72.8807 5.73226C73.5672 5.91785 74.2153 6.13437 74.8216 6.41275C75.4279 6.67257 75.9157 6.94477 76.285 7.22934C76.7798 7.60052 77.1701 8.07377 77.4593 8.66146C77.7381 9.24916 77.8844 9.88635 77.8844 10.5668C77.8844 11.204 77.752 11.8196 77.4907 12.4073C77.2224 12.995 76.853 13.5115 76.3756 13.9538C75.8286 14.4364 75.1909 14.789 74.4662 15.0272C73.7344 15.2653 72.8807 15.3829 71.8877 15.3829L71.9016 15.4138ZM81.3898 5.19096C80.9229 5.19096 80.5361 5.14456 80.2225 5.0363C79.9089 4.94351 79.6406 4.78885 79.4001 4.57233C78.9123 4.10836 78.6684 3.58252 78.6684 3.02576C78.6684 2.61128 78.8008 2.22154 79.0622 1.85036C79.3305 1.47919 79.6545 1.22245 80.0378 1.0647C80.1772 1.01521 80.3096 0.97191 80.4211 0.940979C80.5256 0.910047 80.6859 0.894582 80.8741 0.879116C81.0692 0.866743 81.3201 0.848184 81.6302 0.848184C81.9438 0.841998 82.3619 0.835812 82.8846 0.835812H89.5399C89.6444 0.835812 89.7315 0.845091 89.7838 0.851278L89.9929 0.882209C90.6305 0.944072 91.1427 1.18224 91.5504 1.57817C91.9581 1.97409 92.1497 2.45353 92.1497 3.00101C92.1497 3.31961 92.0661 3.61964 91.9163 3.92277C91.7595 4.21971 91.5469 4.47953 91.2752 4.68678C90.857 5.02702 90.1776 5.19096 89.2368 5.19096H88.0695V12.2743C88.0695 12.6949 88.0346 13.0475 87.9789 13.3105C87.9231 13.5734 87.7942 13.8363 87.62 14.0745C87.3761 14.4147 87.0799 14.6776 86.7036 14.8632C86.3203 15.0426 85.9021 15.1354 85.4492 15.1354C84.9962 15.1354 84.578 15.0519 84.2052 14.8818C83.8324 14.7147 83.5083 14.4735 83.2644 14.1611C83.0902 13.9198 82.9717 13.6724 82.916 13.4187C82.8463 13.162 82.8114 12.7908 82.8114 12.3052V5.22189H81.3967L81.3898 5.19096ZM96.0245 13.1867C95.676 13.8858 95.2997 14.3869 94.8746 14.69C94.4565 14.9993 93.9198 15.1478 93.2822 15.1478C92.9094 15.1478 92.5679 15.0859 92.2473 14.9684C91.9233 14.8447 91.655 14.6807 91.411 14.4673C91.1846 14.2508 90.9929 14.0033 90.864 13.7249C90.7246 13.4373 90.6619 13.1372 90.6619 12.8063C90.6619 12.4258 90.7664 12.0021 90.9929 11.5907L96.0105 2.15658C96.2266 1.72354 96.5541 1.37711 96.9862 1.12657C97.4182 0.879116 97.8921 0.75539 98.4252 0.75539C98.9688 0.75539 99.4532 0.879116 99.8887 1.12657C100.317 1.38948 100.655 1.73901 100.892 2.1937L105.92 11.733C106.129 12.0794 106.234 12.4567 106.234 12.8527C106.234 13.1805 106.164 13.4806 106.011 13.759C105.872 14.0373 105.68 14.2848 105.439 14.4951C105.196 14.7117 104.917 14.8787 104.603 14.9993C104.29 15.1199 103.941 15.1787 103.568 15.1787C102.955 15.1787 102.453 15.0364 102.042 14.7457C101.631 14.4549 101.251 13.9415 100.882 13.2238H96.0035L96.0245 13.1867ZM118.907 11.368C119.081 11.6092 119.21 11.8629 119.29 12.1227C119.37 12.3918 119.409 12.6423 119.409 12.8836C119.409 13.2084 119.339 13.5115 119.217 13.7868C119.078 14.0652 118.869 14.3064 118.632 14.5106C118.388 14.7147 118.109 14.8818 117.795 15.0055C117.471 15.1292 117.133 15.1787 116.76 15.1787C115.795 15.1787 115.07 14.8168 114.572 14.0961L112.394 10.8792V12.8156C112.394 13.1558 112.325 13.4651 112.192 13.7528C112.053 14.0312 111.861 14.2786 111.635 14.4951C111.398 14.7117 111.126 14.8756 110.816 14.99C110.502 15.1138 110.168 15.1756 109.798 15.1756C109.408 15.1756 109.025 15.1014 108.649 14.9529C108.29 14.7983 107.987 14.6034 107.743 14.3343C107.325 13.8703 107.115 13.2022 107.115 12.3361V3.56706C107.115 3.0536 107.185 2.63911 107.314 2.31743C107.44 1.99883 107.663 1.72045 107.976 1.48228C108.279 1.23483 108.593 1.07398 108.917 0.987376C109.248 0.903861 109.732 0.86365 110.373 0.86365H112.579C113.234 0.86365 113.729 0.879116 114.091 0.916234C114.44 0.947165 114.795 1.00284 115.144 1.07089C115.76 1.23173 116.328 1.46372 116.841 1.77613C117.363 2.11637 117.799 2.48755 118.165 2.92059C118.534 3.35363 118.82 3.83307 119.029 4.3589C119.238 4.88474 119.342 5.42913 119.342 5.99827C119.342 6.67876 119.203 7.29739 118.949 7.85415C118.68 8.41092 118.252 8.99862 117.638 9.61724L118.893 11.3803L118.907 11.368ZM123.109 5.22498C122.646 5.22498 122.259 5.17859 121.945 5.07032C121.632 4.97753 121.36 4.82287 121.119 4.60635C120.597 4.14238 120.353 3.61655 120.353 3.05978C120.353 2.6453 120.475 2.25556 120.736 1.88439C121.001 1.51321 121.329 1.25648 121.712 1.09873C121.851 1.0678 121.991 1.00593 122.095 0.975003C122.207 0.944072 122.356 0.944072 122.548 0.91314C122.743 0.91314 123.001 0.882209 123.304 0.882209H131.249C131.353 0.882209 131.437 0.882209 131.493 0.897675L131.702 0.928606C132.336 1.00593 132.852 1.23792 133.256 1.64003C133.65 2.04214 133.848 2.50611 133.848 3.06288C133.848 3.37219 133.771 3.6815 133.618 3.97845C133.465 4.27539 133.263 4.53521 132.991 4.74245C132.573 5.0827 131.9 5.25901 130.956 5.25901H129.782V12.3114C129.782 12.732 129.747 13.0847 129.677 13.3476C129.608 13.6167 129.493 13.8734 129.318 14.1116C129.074 14.4518 128.761 14.7147 128.388 14.9003C128.015 15.0859 127.597 15.1787 127.134 15.1787C126.681 15.1787 126.273 15.0952 125.897 14.9251C125.527 14.755 125.21 14.5137 124.956 14.2013C124.782 13.96 124.66 13.7126 124.593 13.4589C124.524 13.2022 124.496 12.831 124.496 12.3454V5.23117H123.102L123.109 5.22498ZM142.214 10.6751C142.789 10.6751 143.232 10.7153 143.538 10.7926C143.852 10.8731 144.148 11.0092 144.42 11.2071C144.977 11.6494 145.256 12.2031 145.256 12.8681C145.256 13.196 145.187 13.5115 145.03 13.8146C144.88 14.124 144.671 14.3714 144.403 14.5879C144.263 14.6807 144.138 14.7735 144.002 14.8354C143.862 14.8972 143.723 14.9591 143.559 14.99C143.399 15.021 143.211 15.0519 142.995 15.0674C142.786 15.0797 142.524 15.089 142.221 15.089H138.11C137.503 15.089 137.071 15.0735 136.82 15.0457C136.563 15.0148 136.322 14.9715 136.099 14.9003C135.242 14.591 134.74 14.0188 134.58 13.1991L134.531 12.995L134.496 12.7475L134.486 12.3825V4.05577C134.486 3.75883 134.486 3.51757 134.496 3.33198L134.531 2.87419C134.556 2.75047 134.58 2.65149 134.611 2.56488L134.723 2.26794C134.841 1.98955 135.012 1.76066 135.245 1.55651C135.479 1.35237 135.733 1.20699 136.002 1.09254C136.148 1.03068 136.28 0.993562 136.385 0.968817C136.5 0.937886 136.629 0.916234 136.786 0.906954C136.942 0.897675 137.134 0.876023 137.357 0.876023C137.583 0.86365 137.89 0.857464 138.273 0.857464H142.35C142.57 0.857464 142.744 0.866743 142.873 0.879116L143.186 0.940979L143.448 0.990469C144.005 1.11419 144.458 1.36165 144.782 1.73282C145.106 2.104 145.27 2.53704 145.27 3.03194C145.27 3.37219 145.2 3.69697 145.051 4.0001C144.901 4.30323 144.678 4.55686 144.406 4.75173C144.169 4.93732 143.897 5.06105 143.594 5.14765C143.281 5.22808 142.883 5.26519 142.389 5.26519H139.74V6.255H141.831C142.493 6.255 143.009 6.40966 143.392 6.71897C143.775 7.02828 143.967 7.43039 143.967 7.9253C143.967 8.48206 143.737 8.93057 143.27 9.27081C143.061 9.40382 142.852 9.5028 142.608 9.5492C142.385 9.59869 142.061 9.62343 141.643 9.62343H139.751V10.6906H142.176L142.214 10.6751ZM157.821 11.3711C157.995 11.6185 158.124 11.866 158.204 12.1351C158.285 12.4011 158.326 12.6516 158.326 12.8929C158.326 13.2208 158.257 13.5239 158.117 13.7992C157.985 14.0776 157.804 14.3188 157.56 14.523C157.316 14.7395 157.037 14.8941 156.724 15.0179C156.4 15.1416 156.062 15.2035 155.689 15.2035C154.727 15.2035 153.999 14.8323 153.504 14.1209L151.323 10.904V12.8341C151.323 13.1744 151.253 13.4837 151.114 13.7744C150.981 14.0528 150.8 14.3003 150.563 14.5168C150.326 14.7333 150.051 14.888 149.737 15.0117C149.424 15.1354 149.086 15.1973 148.72 15.1973C148.323 15.1973 147.939 15.1169 147.57 14.9684C147.204 14.8137 146.901 14.6096 146.664 14.3405C146.246 13.8765 146.037 13.2084 146.037 12.3423V3.56706C146.037 3.0536 146.106 2.63911 146.232 2.31743C146.364 1.99883 146.58 1.72045 146.908 1.48228C147.221 1.23483 147.535 1.07398 147.859 0.987376C148.19 0.903861 148.674 0.86365 149.312 0.86365H151.507C152.169 0.86365 152.671 0.879116 153.023 0.916234C153.372 0.947165 153.73 1.00284 154.082 1.07089C154.71 1.23173 155.267 1.46372 155.772 1.77613C156.285 2.11637 156.724 2.48755 157.096 2.92059C157.459 3.35363 157.748 3.83307 157.954 4.3589C158.163 4.88474 158.267 5.42913 158.267 5.99827C158.267 6.67876 158.142 7.29739 157.877 7.85415C157.612 8.41092 157.18 8.99862 156.567 9.61724L157.811 11.3803" fill="#0087F7"/>
<path fill-rule="evenodd" clip-rule="evenodd" d="M29.5062 7.04339H28.8337C28.75 6.52374 28.5897 6.02266 28.3807 5.54941L28.9661 5.24009C29.0985 5.17823 29.1507 5.02357 29.0811 4.93078L28.2866 3.69353C28.2413 3.58527 28.0775 3.55434 27.9382 3.63167L27.3458 3.92551C26.9974 3.54197 26.5792 3.17079 26.1262 2.86148L26.4677 2.33565C26.5374 2.21192 26.5095 2.07273 26.3911 2.01087L25.0112 1.31491C24.8927 1.25305 24.7325 1.30254 24.6628 1.41699L24.3143 1.94282C23.7847 1.75723 23.2237 1.61804 22.6418 1.54071V0.943739C22.6418 0.807642 22.5268 0.696289 22.3909 0.696289H20.809C20.6696 0.696289 20.5651 0.807642 20.5651 0.943739V1.54999C19.9727 1.62423 19.4152 1.76032 18.8821 1.9521L18.5336 1.42627C18.4639 1.30873 18.3246 1.26233 18.1852 1.3211L16.8228 2.02633C16.7043 2.0882 16.6729 2.22739 16.7461 2.34493L17.0876 2.87076C16.6346 3.19244 16.2165 3.55743 15.8576 3.96572L15.2652 3.6626C15.1398 3.5698 14.976 3.60074 14.9098 3.72446L14.1432 4.93078C14.0735 5.02357 14.1293 5.17823 14.2617 5.24009L14.8471 5.54941C14.638 6.01338 14.4847 6.50828 14.3941 7.03411H13.6972C13.5474 7.03411 13.4185 7.1269 13.4185 7.25063V8.65491C13.4185 8.77863 13.5474 8.87143 13.6972 8.87143H14.3732C14.4568 9.39726 14.6101 9.89216 14.8262 10.3685L14.2443 10.6778C14.1049 10.7397 14.0561 10.8758 14.1258 10.9871L14.9168 12.1996C14.9865 12.3017 15.1502 12.3326 15.2792 12.2615L15.8611 11.9676C16.2269 12.3759 16.6416 12.7409 17.098 13.0657L16.7635 13.5792C16.6938 13.7029 16.7008 13.8359 16.8332 13.8978L18.1922 14.5999C18.3071 14.6618 18.4709 14.6123 18.5406 14.4978L18.8716 13.9813C19.4013 14.1761 19.9657 14.3122 20.5546 14.3834V14.9711C20.5546 15.1134 20.6661 15.2185 20.7985 15.2185H22.3979C22.5373 15.2185 22.6418 15.1134 22.6418 14.9711V14.3834C23.2342 14.3153 23.8021 14.1761 24.3387 13.9813L24.6697 14.4978C24.7464 14.6092 24.9032 14.6525 25.0182 14.5968L26.3911 13.8854C26.513 13.8235 26.5444 13.6781 26.4677 13.5606L26.1367 13.0564C26.5897 12.7378 27.0078 12.3698 27.3702 11.9615L27.9521 12.2646C28.0845 12.3357 28.2483 12.3048 28.3145 12.2027L29.1089 10.984C29.1786 10.882 29.1264 10.7366 28.9939 10.6747L28.412 10.3778C28.6281 9.91381 28.7814 9.40963 28.865 8.88689H29.5375C29.6769 8.88689 29.8163 8.7941 29.8163 8.67037V7.27846C29.8163 7.15474 29.6769 7.06195 29.5375 7.06195L29.5062 7.04339ZM25.2342 9.0168L23.3631 9.10341L23.8439 10.7118L22.2759 9.80555L21.5965 11.3583L20.917 9.80555L19.349 10.7118L19.8264 9.10341L17.9552 9.01062L19.4082 7.95895L17.9552 6.91348L19.8264 6.82068L19.3455 5.21226L20.9135 6.12163L21.593 4.56888L22.255 6.12163L23.823 5.21535L23.3352 6.82377L25.1994 6.91657L23.7429 7.96823L25.1959 9.0199L25.2342 9.0168Z" fill="black"/>
<path fill-rule="evenodd" clip-rule="evenodd" d="M45.6984 8.89288L45.0503 8.73822C45.12 8.23094 45.12 7.7113 45.0503 7.19165L45.7124 7.03699C45.8517 6.99987 45.9563 6.87615 45.9214 6.75861L45.5033 5.40381C45.4684 5.28627 45.3291 5.21822 45.1897 5.25534L44.5276 5.41C44.3012 4.92746 44.005 4.48205 43.6565 4.07066L44.1374 3.66855C44.2419 3.57576 44.2559 3.4211 44.1618 3.34687L43.0468 2.35706C42.9492 2.26427 42.7819 2.27664 42.6739 2.37253L42.2 2.79938C41.7331 2.49007 41.2244 2.23334 40.6913 2.02609L40.8655 1.4384C40.9073 1.3023 40.8306 1.17239 40.7052 1.14145L39.1581 0.757905C39.0187 0.726974 38.8793 0.810488 38.8445 0.943494L38.6703 1.53119C38.0988 1.46933 37.5204 1.46933 36.9281 1.53119L36.7538 0.943494C36.719 0.810488 36.5796 0.726974 36.4402 0.757905L34.9071 1.12908C34.7747 1.16001 34.698 1.28993 34.7398 1.41984L34.914 2.00754C34.374 2.21168 33.8687 2.47151 33.4088 2.78082L32.9209 2.33541C32.8164 2.24261 32.6422 2.23334 32.5516 2.31994L31.4366 3.30975C31.332 3.39636 31.346 3.54483 31.454 3.64072L31.907 4.06757C31.5585 4.48205 31.2623 4.93365 31.0359 5.4069L30.3738 5.25224C30.2344 5.21513 30.0811 5.28318 30.0463 5.39453L29.6351 6.75551C29.6003 6.84831 29.6874 6.97203 29.8337 7.0339L30.4958 7.18855C30.4261 7.68346 30.4261 8.20929 30.4958 8.73513L29.8442 8.88978C29.7048 8.92072 29.6107 9.04444 29.6456 9.13724L30.0637 10.4982C30.0985 10.6158 30.2484 10.6838 30.3947 10.6467L31.0463 10.492C31.2798 10.9777 31.569 11.4262 31.9174 11.8345L31.4575 12.2768C31.346 12.3696 31.3355 12.5242 31.4331 12.6047L32.5481 13.6037C32.6457 13.6873 32.8129 13.678 32.9209 13.5821L33.3948 13.1614C33.8617 13.4707 34.3705 13.7336 34.9071 13.9409L34.7329 14.5131C34.698 14.643 34.7677 14.7729 34.9001 14.8039L36.4333 15.1751C36.5587 15.206 36.6981 15.1441 36.7364 14.9895L36.9106 14.4327C37.4821 14.4946 38.0675 14.4946 38.6598 14.4327L38.8341 15.0204C38.8689 15.1503 39.0083 15.2369 39.1372 15.206L40.6704 14.8348C40.7993 14.8039 40.8725 14.6802 40.8341 14.5441L40.6947 13.9749C41.2418 13.7677 41.7401 13.5048 42.207 13.2016L42.6774 13.613C42.7819 13.7058 42.9562 13.7182 43.0468 13.6347L44.1618 12.6325C44.2663 12.5521 44.2559 12.4036 44.1478 12.3077L43.6705 11.8747C44.0189 11.4633 44.3081 11.0086 44.5416 10.5353L45.1862 10.69C45.3326 10.7209 45.4789 10.6591 45.5137 10.5415L45.911 9.18054C45.9458 9.05681 45.8552 8.93309 45.7089 8.90216L45.6984 8.89288ZM40.8306 10.0992L39.0466 9.58883L38.848 11.2437L37.7678 9.89815L36.5134 11.1354V9.46511L34.6841 9.81154L35.7817 8.46602L34.0743 7.78553L35.8514 7.26898L34.9106 5.82448L36.6876 6.33794L36.8897 4.68311L37.9943 6.01316L39.2487 4.7759L39.2592 6.4462L41.092 6.10595L39.9944 7.43601L41.7018 8.1165L39.9142 8.63305L40.855 10.0745L40.8306 10.0992Z" fill="black"/>
</svg>
